<svg width="117" height="66" viewBox="0 0 117 66" fill="none" xmlns="http://www.w3.org/2000/svg">
<path fill-rule="evenodd" clip-rule="evenodd" d="M6.6799 0.31592C3.5532 1.15664 1.1008 3.64403 0.275999 6.8108C0.0569991 7.6517 0 9.198 0 14.3055V20.7409L2.081 20.744C4.6364 20.7481 6.3425 21.0896 8.0826 21.9458C14.3032 25.0068 16.6365 32.575 13.1844 38.4942C12.2912 40.026 10.4062 41.9109 8.8745 42.8042C6.9172 43.9457 5.6427 44.2659 2.6359 44.3717L0 44.4645V50.8766C0 57.9375 0.0698999 58.532 1.1376 60.5348C1.8283 61.8307 3.4659 63.4373 4.77 64.098C6.9413 65.1982 4.5362 65.1353 44.3945 65.1353C84.638 65.1353 109.123 65.2134 111.404 63.9977C113.528 62.8655 115.358 60.3537 115.815 57.9414C115.92 57.3876 116.004 54.1764 116.004 50.7051V44.4645L113.368 44.3785C111.146 44.3062 110.52 44.2176 109.375 43.8134C107.447 43.1323 106.129 42.2981 104.631 40.8109C100.095 36.3069 100.093 28.8771 104.627 24.3479C106.107 22.8692 107.431 22.0324 109.375 21.3454C110.52 20.9412 111.146 20.8526 113.368 20.7803L116.004 20.6943V14.2822C116.004 9.1214 115.949 7.658 115.721 6.7829C114.89 3.59242 112.424 1.135 109.217 0.29946C107.644 -0.11027 8.2059 -0.0945404 6.6799 0.31592Z" fill="white"/>
</svg>
