<svg width="28" height="21" viewBox="0 0 28 21" fill="none" xmlns="http://www.w3.org/2000/svg">
<path fill-rule="evenodd" clip-rule="evenodd" d="M21.636 10.3835C21.184 10.3835 20.7898 10.0507 20.7247 9.59021C20.6547 9.08547 21.0047 8.62004 21.5095 8.55004C22.7866 8.37074 23.7507 7.26303 23.7531 5.97111C23.7531 4.69024 22.8345 3.60709 21.5684 3.39955C21.0674 3.31727 20.7272 2.84324 20.8095 2.34096C20.893 1.83869 21.3633 1.5022 21.8681 1.58202C24.027 1.93693 25.5952 3.78394 25.5952 5.97357C25.5903 8.17794 23.9435 10.0692 21.7637 10.3749C21.7207 10.3811 21.6777 10.3835 21.636 10.3835Z" fill="#313131"/>
<mask id="mask0_875_151714" style="mask-type:luminance" maskUnits="userSpaceOnUse" x="22" y="12" width="6" height="7">
<path fill-rule="evenodd" clip-rule="evenodd" d="M22.9766 12.6617H27.6358V18.2243H22.9766V12.6617Z" fill="white"/>
</mask>
<g mask="url(#mask0_875_151714)">
<path fill-rule="evenodd" clip-rule="evenodd" d="M25.2893 18.2243C24.9185 18.2243 24.5685 17.9983 24.4285 17.6311C24.2467 17.1559 24.4862 16.6229 24.9614 16.4424C25.7941 16.1255 25.7941 15.7755 25.7941 15.6073C25.7941 15.0694 25.11 14.6936 23.7616 14.4922C23.2593 14.4161 22.9118 13.9482 22.9867 13.4434C23.0616 12.9399 23.5283 12.6047 24.0355 12.6697C27.0111 13.1155 27.6362 14.5131 27.6362 15.6073C27.6362 16.2753 27.3734 17.4948 25.6172 18.1641C25.5092 18.2046 25.3986 18.2243 25.2893 18.2243Z" fill="#313131"/>
</g>
<path fill-rule="evenodd" clip-rule="evenodd" d="M14.2671 15.0099C11.3492 15.0099 7.87012 15.3685 7.87012 17.0755C7.87012 18.796 11.3492 19.157 14.2671 19.157C17.185 19.157 20.6628 18.7997 20.6628 17.0964C20.6628 15.3722 17.185 15.0099 14.2671 15.0099ZM14.2674 21C12.23 21 6.02832 21 6.02832 17.0764C6.02832 13.1687 12.23 13.1687 14.2674 13.1687C16.3047 13.1687 22.5052 13.1687 22.5052 17.0973C22.5052 21 16.5209 21 14.2674 21Z" fill="#313131"/>
<path fill-rule="evenodd" clip-rule="evenodd" d="M14.2677 2.22144C12.1898 2.22144 10.5 3.91248 10.5 5.99035C10.4963 6.99736 10.882 7.93929 11.5881 8.65033C12.2942 9.36138 13.2349 9.75559 14.237 9.75927L14.2677 10.6803V9.75927C16.3456 9.75927 18.0366 8.06946 18.0366 5.99035C18.0366 3.91248 16.3456 2.22144 14.2677 2.22144ZM14.268 11.6012H14.2349C12.7366 11.5963 11.333 11.0092 10.2817 9.9482C9.22807 8.88838 8.65211 7.48103 8.65825 5.98648C8.65825 2.89667 11.1745 0.37915 14.268 0.37915C17.3627 0.37915 19.879 2.89667 19.879 5.99016C19.879 9.08364 17.3627 11.6012 14.268 11.6012Z" fill="#313131"/>
<path fill-rule="evenodd" clip-rule="evenodd" d="M6.89847 10.3838C6.85672 10.3838 6.81373 10.3813 6.77075 10.3752C4.59094 10.0694 2.94534 8.17817 2.94043 5.97626C2.94043 3.78417 4.50866 1.93716 6.66759 1.58225C7.18461 1.5012 7.64267 1.84137 7.72618 2.3412C7.80846 2.84347 7.46829 3.3175 6.96724 3.39978C5.70111 3.60733 4.78252 4.69048 4.78252 5.9738C4.78498 7.26326 5.749 8.3722 7.02496 8.55027C7.52969 8.62027 7.87969 9.08571 7.80969 9.59044C7.7446 10.051 7.3504 10.3838 6.89847 10.3838Z" fill="#313131"/>
<path fill-rule="evenodd" clip-rule="evenodd" d="M3.24649 18.224C3.13719 18.224 3.02667 18.2044 2.9186 18.1638C1.16124 17.4933 0.898438 16.2738 0.898438 15.607C0.898438 14.514 1.52352 13.1153 4.50034 12.6695C5.00753 12.6056 5.47174 12.9397 5.54788 13.4432C5.62279 13.9479 5.27525 14.4158 4.77297 14.4919C3.42456 14.6933 2.74053 15.0691 2.74053 15.607C2.74053 15.7753 2.74053 16.124 3.57438 16.4421C4.04964 16.6226 4.28911 17.1556 4.10736 17.6309C3.96736 17.998 3.61736 18.224 3.24649 18.224Z" fill="#313131"/>
</svg>
