<svg width="67" height="70" viewBox="0 0 67 70" fill="none" xmlns="http://www.w3.org/2000/svg">
<rect opacity="0.1" x="-3" width="70" height="70" rx="15" fill="#313131"/>
<path fill-rule="evenodd" clip-rule="evenodd" d="M41.5265 15.155C41.3769 15.2347 41.1759 15.4367 41.0799 15.6041L40.9054 15.9084L40.9041 22.8751L40.9029 29.8419L39.1507 29.8656C37.195 29.892 37.1341 29.908 36.8292 30.4763C36.6902 30.7354 36.6846 31.2194 36.6846 42.8729V55H41.5943H46.5041L46.7695 54.8227C46.9155 54.7252 47.0964 54.5231 47.1715 54.3736C47.2998 54.1184 47.3081 53.3861 47.3081 42.4251C47.3081 31.4641 47.2998 30.7317 47.1715 30.4766C47.0964 30.3271 46.9155 30.1249 46.7695 30.0275C46.5153 29.8577 46.4371 29.8502 44.9143 29.8502H43.3245V27.7837V25.7174L47.2637 25.6944C51.12 25.672 51.2075 25.6681 51.4234 25.5081C51.9332 25.1303 52.1191 24.5625 51.9117 24.0169C51.8657 23.896 51.2857 23.2508 50.6228 22.5833C49.9599 21.9158 49.4175 21.3459 49.4175 21.3168C49.4175 21.2877 49.931 20.7091 50.5585 20.0311C51.186 19.3531 51.766 18.6929 51.8471 18.564C52.1662 18.0575 51.966 17.2894 51.4297 16.9624C51.1846 16.813 51.0289 16.8072 47.2498 16.8069L43.3245 16.8066L43.324 16.5137C43.3223 15.3545 42.4256 14.6767 41.5265 15.155ZM28.5996 19.9438C27.2845 20.2239 26.3345 20.465 26.2171 20.5485C25.8307 20.8229 25.6533 21.1814 25.6882 21.6173C25.7296 22.1332 25.9623 22.4578 26.4146 22.6304C26.7575 22.7613 26.7929 22.7596 27.7943 22.559C28.3596 22.4458 28.8383 22.3693 28.858 22.3891C28.8778 22.4089 28.6261 22.8961 28.2987 23.4718C25.7542 27.9467 22.269 31.6979 18.033 34.5213C16.6059 35.4724 16.2368 35.6825 14.2315 36.6844C12.6908 37.4542 12.3238 37.669 12.1778 37.887C11.8227 38.417 12.019 39.1848 12.594 39.5144C13.1545 39.8357 13.4198 39.7629 15.5376 38.7063C19.0807 36.9389 21.8369 34.9493 24.6584 32.1219C27.1145 29.6609 28.91 27.2885 30.5356 24.3563L31.0483 23.4316L31.5426 24.3954C32.1098 25.5017 32.33 25.7108 32.9271 25.7103C33.6043 25.7097 34.1094 25.2066 34.1026 24.539C34.0998 24.2453 33.917 23.8285 32.9898 22.0006C31.9569 19.9643 31.859 19.8016 31.568 19.6392C31.3962 19.5433 31.1501 19.4677 31.0212 19.4713C30.8923 19.4749 29.8026 19.6875 28.5996 19.9438ZM25.7471 39.1331C25.5975 39.2126 25.3959 39.3936 25.2992 39.5351L25.1235 39.7926V47.3963V55H29.7323H34.3411V47.3963V39.7926L34.1654 39.5351C34.0687 39.3936 33.8671 39.2126 33.7175 39.1331C33.4635 38.9981 33.196 38.9885 29.7323 38.9885C26.2686 38.9885 26.0011 38.9981 25.7471 39.1331ZM13.0479 45.6603C12.7505 45.7898 12.495 46.1052 12.3859 46.4776C12.3312 46.6642 12.3114 48.0217 12.3273 50.4838C12.351 54.1206 12.3553 54.2129 12.5149 54.4281C12.6048 54.5493 12.7946 54.7276 12.9366 54.8243L13.1948 55H17.9874H22.78V50.7355C22.78 45.9276 22.7996 46.0952 22.1966 45.7419L21.8679 45.5493L17.5784 45.5523C14.1651 45.5548 13.2397 45.5769 13.0479 45.6603Z" fill="#313131"/>
</svg>
