<svg width="70" height="70" viewBox="0 0 70 70" fill="none" xmlns="http://www.w3.org/2000/svg">
<rect opacity="0.4" width="70" height="70" rx="10" fill="url(#paint0_linear_561_7357)"/>
<mask id="mask0_561_7357" style="mask-type:alpha" maskUnits="userSpaceOnUse" x="0" y="0" width="70" height="70">
<rect width="70" height="70" rx="10" fill="#E9F3FE"/>
</mask>
<g mask="url(#mask0_561_7357)">
<path opacity="0.4" d="M-1.75 21.9187L15.3713 17.5845C16.0322 17.4174 16.7255 17.4996 17.3378 17.8182L39.5767 29.3883C40.3304 29.7803 41.1771 29.9059 41.9992 29.7476L47.0981 28.7651C47.7718 28.6353 48.4657 28.7438 49.0787 29.0749L60.6684 35.3303H64.4764L66.6586 37.0936H-1.75V21.9187Z" fill="url(#paint1_linear_561_7357)"/>
<path opacity="0.4" d="M-1.75 27.2337L9.57058 24.6106C10.5799 24.3769 11.639 24.4919 12.5745 24.9374L27.7035 32.1411C28.1644 32.3604 28.682 32.4309 29.1845 32.3421L32.8896 31.6888C33.3931 31.6 33.912 31.6744 34.3706 31.9009L42.563 35.9479H45.2664L46.8156 37.0936H-1.75V27.2337Z" fill="url(#paint2_linear_561_7357)"/>
<path d="M135.516 37.0935H-1.75V69.8735H135.516V37.0935Z" fill="url(#paint3_linear_561_7357)"/>
<path opacity="0.4" d="M-1.75 62.0434L66.6583 37.0935H68.4956L31.6548 69.8735H-1.75V62.0434Z" fill="white"/>
<path d="M26.6224 62.722C26.6172 62.9436 26.6106 63.1593 26.6116 63.3599C26.6123 63.4792 26.6968 63.5825 26.8142 63.6057C27.1109 63.6648 27.4206 63.6605 27.7251 63.6552C28.7135 63.6382 29.7021 63.6212 30.6908 63.6041C30.7924 63.6025 30.9061 63.5962 30.9625 63.4943C30.9982 63.4297 30.9933 63.351 30.9592 63.2852C30.8904 63.1531 30.7514 63.0977 30.6193 63.0485C29.9775 62.8102 29.2809 62.5709 28.7994 62.1103C28.7843 62.0959 28.7692 62.0808 28.7541 62.0661C28.6525 61.9631 28.5617 61.8494 28.4837 61.7225C28.4237 61.6245 28.3726 61.5186 28.3434 61.4082C28.3332 61.3702 28.3254 61.3315 28.3211 61.2918C28.3191 61.2767 28.3175 61.2613 28.3168 61.2459L27.9677 61.2305L27.8671 61.2259L26.5182 61.1663C26.6103 61.5078 26.6303 61.9084 26.629 62.3109C26.629 62.4486 26.626 62.5863 26.6228 62.722H26.6224Z" fill="#2A2D49"/>
<path d="M19.6599 63.6056C19.9566 63.6646 20.2664 63.6604 20.5709 63.6551C21.5592 63.6381 22.5479 63.621 23.5365 63.604C23.6381 63.6024 23.7519 63.5961 23.8082 63.4942C23.844 63.4296 23.8391 63.3509 23.805 63.285C23.7361 63.1529 23.5971 63.0975 23.465 63.0484C22.8232 62.8101 22.1266 62.5708 21.6451 62.1102C21.63 62.0958 21.6149 62.0807 21.5999 62.066C21.4982 61.963 21.4074 61.8493 21.3294 61.7224C21.2694 61.6244 21.2183 61.5185 21.1891 61.4081C21.179 61.37 21.1711 61.3314 21.1668 61.2917C21.1649 61.2766 21.1632 61.2612 21.1626 61.2458L20.8135 61.2304L20.7128 61.2258L19.9382 59.5911C20.0304 59.9326 19.7124 61.3927 19.6449 61.8653C19.4564 63.1857 19.5429 63.5824 19.6599 63.6056Z" fill="#2A2D49"/>
<path d="M20.4445 61.8654C19.5345 61.6716 19.5345 61.3832 19.5345 61.3832C19.5345 61.3832 20.6841 55.8745 20.9998 54.026C21.4085 51.6347 22.901 43.563 22.901 43.563L30.1165 44.4195C30.1165 44.4195 29.8881 51.2211 29.7215 53.4812C29.5688 55.5539 28.8391 61.7503 28.8391 61.7503C28.8391 61.7503 28.8076 61.9598 27.956 61.9398C26.6222 61.908 26.5176 61.5972 26.5176 61.5972C26.5176 61.5972 26.6464 56.7527 26.611 55.195C26.5763 53.6674 26.237 49.2562 26.237 49.2562C26.237 49.2562 25.0392 53.1466 24.5839 54.4246C23.9139 56.3052 21.6599 61.8552 21.6599 61.8552C21.6599 61.8552 21.4426 62.0785 20.4441 61.8657L20.4445 61.8654Z" fill="#353757"/>
<path d="M24.7891 28.1509C24.7891 28.1509 23.7428 28.6095 24.0355 29.8741C24.2971 31.0037 25.9449 31.875 26.5166 31.5682C27.0883 31.2614 25.0045 28.1597 24.7891 28.1509Z" fill="#282F35"/>
<path d="M27.3069 33.6289C28.3608 33.4047 27.8049 32.8874 27.6855 32.6786C27.6793 32.6675 27.6727 32.6553 27.6665 32.6425C27.6278 32.5639 27.5892 32.4554 27.5524 32.3321C27.5174 32.2164 27.4843 32.0876 27.4544 31.9607C27.4528 31.9532 27.4508 31.9453 27.4492 31.9378C27.4259 31.8378 27.4043 31.7395 27.3856 31.6493C27.3646 31.5474 27.3469 31.4562 27.3335 31.3848C27.3154 31.2891 27.3056 31.2297 27.3056 31.2297L26.373 30.9924L26.2655 30.9652L25.7446 30.8328C25.7446 30.8357 25.8505 31.5523 25.7915 32.9582C25.7764 33.3159 26.2072 33.8633 27.3073 33.6289H27.3069Z" fill="#F4CAB5"/>
<path d="M25.6791 30.613C25.6791 30.613 26.3229 32.5201 27.9291 31.9989C29.5084 31.4866 28.8479 30.4051 28.1022 28.8029C27.6521 27.8358 24.5849 27.6356 25.6791 30.6126V30.613Z" fill="#F4CAB5"/>
<path d="M25.3512 30.6036C25.4138 30.5993 25.4761 30.6147 25.5384 30.6085C25.7252 30.5895 25.9055 30.5003 26.0301 30.3594C26.1858 30.183 26.2497 29.9191 26.1583 29.7025C26.1124 29.5943 26.0422 29.4976 25.9668 29.4071C25.9655 29.4055 25.9642 29.4042 25.9629 29.4025C25.8426 29.2557 25.9223 29.0301 26.1081 28.9915C26.193 28.9738 26.2802 28.9675 26.3517 28.9698C26.627 28.979 26.9017 29.0036 27.1741 29.0436C27.3538 29.0701 27.5367 29.0741 27.717 29.0508C28.6112 28.9364 28.5188 28.3126 28.1202 27.9536C27.8904 27.7468 27.3052 27.617 26.868 27.7622C26.868 27.7622 27.3888 27.5557 27.2721 27.3007C27.0866 26.8958 25.2693 27.3341 24.7887 28.151C24.7887 28.151 24.218 28.5161 24.2567 29.0718C24.2954 29.6271 24.8258 30.6393 25.3509 30.6036H25.3512Z" fill="#282F35"/>
<path d="M27.8809 29.0218C27.8809 29.0218 27.1489 29.1263 27.4105 29.5403C27.6721 29.9543 27.3652 30.5736 27.1591 30.727C26.9525 30.8804 27.0647 31.8772 26.1268 31.7015C25.189 31.5258 24.3049 30.7955 24.1571 30.2664C24.0092 29.7373 23.8978 29.4217 24.0256 29.0903C24.1535 28.7589 27.1509 28.4324 27.1509 28.4324L27.8812 29.0218H27.8809Z" fill="#282F35"/>
<path d="M27.5917 30.6627C27.8906 30.6297 28.1116 30.4104 28.0854 30.1729C28.0592 29.9354 27.7956 29.7696 27.4968 29.8026C27.1979 29.8356 26.9768 30.0549 27.003 30.2924C27.0293 30.5299 27.2928 30.6957 27.5917 30.6627Z" fill="#F4CAB5"/>
<path d="M27.0938 30.5182C27.217 30.6286 27.3635 30.7112 27.5347 30.6906C27.7238 30.6677 27.9221 30.5811 28.0568 30.4457C28.0719 30.4303 28.0493 30.4057 28.0339 30.4211C27.9123 30.5434 27.7481 30.6139 27.5806 30.6483C27.4016 30.6854 27.2508 30.6139 27.1187 30.4956C27.1026 30.4811 27.078 30.5041 27.0941 30.5185L27.0938 30.5182Z" fill="#EF9778"/>
<path d="M27.5583 30.1125C27.6081 30.1151 27.6603 30.125 27.6793 30.1774C27.6852 30.1938 27.6835 30.2135 27.6894 30.2305C27.7058 30.2764 27.7396 30.3105 27.7825 30.3325C27.8038 30.3433 27.8235 30.3118 27.8022 30.301C27.7543 30.2767 27.7258 30.239 27.7173 30.1856C27.714 30.1637 27.716 30.1414 27.7022 30.1223C27.6737 30.083 27.6029 30.0778 27.559 30.0755C27.535 30.0742 27.5341 30.1115 27.558 30.1128L27.5583 30.1125Z" fill="#EF9778"/>
<path d="M27.4252 29.8367C27.4721 29.8226 27.521 29.8186 27.5695 29.8265C27.5928 29.8304 27.6036 29.7947 27.58 29.7908C27.5249 29.7819 27.4705 29.7842 27.4167 29.8003C27.3938 29.8072 27.4023 29.8432 27.4252 29.8367Z" fill="#EF9778"/>
<path d="M27.479 31.5764C27.4318 31.7868 27.457 32.0376 27.5055 32.2464C27.5131 32.2789 27.5629 32.2651 27.5554 32.2326C27.5101 32.0373 27.4842 31.7888 27.5288 31.5901C27.536 31.5577 27.4865 31.5439 27.479 31.5764Z" fill="#EF9778"/>
<path d="M26.6156 32.6591C25.8135 32.6591 24.2158 32.8102 23.494 33.5527C22.4715 34.6043 23.8034 39.416 22.1428 45.2158C22.1428 45.2158 25.742 46.9243 30.3207 45.3945C30.3207 45.3945 30.1263 37.4712 29.8729 35.9859C29.6196 34.5007 29.0695 32.6584 26.6159 32.6584L26.6156 32.6591Z" fill="#494E7C"/>
<path d="M25.5695 47.7799C26.0616 48.2444 26.1504 48.9236 26.2133 49.5632C26.2166 49.5959 26.2681 49.5963 26.2648 49.5632C26.2002 48.9092 26.1081 48.2175 25.6059 47.7432C25.5817 47.7206 25.5453 47.757 25.5695 47.7796V47.7799Z" fill="white"/>
<path d="M29.06 47.0328C29.5183 46.7997 29.8601 46.41 30.0342 45.9265C30.0454 45.8953 29.9955 45.8819 29.9844 45.9127C29.8146 46.3834 29.4796 46.761 29.0338 46.9882C29.0043 47.0033 29.0302 47.0479 29.0597 47.0328H29.06Z" fill="white"/>
<path d="M29.0819 46.9592C29.0964 48.7889 28.9489 50.6286 28.8358 52.4534C28.6915 54.7831 28.5322 57.1141 28.2998 59.4369C28.2277 60.1577 28.1874 60.9136 28.0061 61.6177C27.9979 61.6499 28.0474 61.6636 28.0559 61.6315C28.207 61.0451 28.2487 60.4196 28.3123 59.8197C28.4244 58.7593 28.5132 57.6963 28.5965 56.6332C28.7827 54.2553 28.9377 51.8742 29.0524 49.4917C29.0931 48.649 29.1403 47.8032 29.1337 46.9592C29.1337 46.926 29.0819 46.926 29.0823 46.9592H29.0819Z" fill="white"/>
<path d="M27.3993 32.7313C27.3993 32.7313 29.7811 32.8876 30.6091 34.8108C31.4247 36.7059 32.5461 40.6064 32.5461 40.6064L34.3257 45.2257L31.8892 45.6269L29.528 41.4724L27.3993 32.731V32.7313Z" fill="#494E7C"/>
<path d="M23.4936 33.5528C22.0165 34.6421 20.3631 37.9335 19.8019 39.6781C19.4338 40.8224 18.3455 44.8439 18.3455 44.8439L20.7463 45.3706C20.7463 45.3706 21.8565 41.6229 22.4007 40.433C22.8563 39.4371 24.516 36.5967 24.516 36.5967C24.516 36.5967 24.2777 32.9745 23.4939 33.5525L23.4936 33.5528Z" fill="#494E7C"/>
<path d="M20.3785 46.7396C20.3041 46.7353 20.1979 46.5478 20.1327 46.3328C20.1107 46.2705 20.0891 46.2347 20.0661 46.219C19.993 46.7366 19.8488 47.4778 19.7065 47.4584C19.5774 47.4407 19.5993 46.9766 19.6485 46.5271L19.6265 46.5285C19.5111 47.0716 19.3109 47.7993 19.1519 47.7672C18.9788 47.7321 19.0722 47.0805 19.1729 46.5504L19.1499 46.5517C19.1496 46.5547 19.1486 46.558 19.1483 46.5612C19.0467 47.0644 18.8444 47.8236 18.6746 47.7892C18.6608 47.7866 18.6494 47.7797 18.6392 47.7695C18.5209 47.6492 18.6107 47.0418 18.6985 46.5737C18.6972 46.4016 18.652 46.4173 18.6149 46.4586C18.5992 46.4826 18.5835 46.5052 18.5681 46.5275C18.4114 46.7507 18.2531 46.8992 18.1685 46.8733C17.9757 46.8153 18.3586 46.1807 18.5209 45.6437C18.5635 45.5028 18.6241 45.3894 18.6923 45.2687C18.7608 45.1478 18.8365 45.0209 18.9096 44.8518C18.9463 44.7669 20.3133 44.9235 20.347 44.9901C20.3828 45.0602 20.4205 45.1448 20.4411 45.2812C20.4503 45.3389 20.4572 45.4284 20.4618 45.5352C20.4821 45.9856 20.4614 46.7445 20.3788 46.7402L20.3785 46.7396Z" fill="#F4CAB5"/>
<path d="M20.7777 45.296C20.7725 45.3229 20.7617 45.3474 20.7459 45.3711C20.7374 45.3829 20.7273 45.395 20.7168 45.4058C20.6614 45.4612 20.5735 45.5048 20.4614 45.535C20.4152 45.5481 20.365 45.5586 20.3109 45.5664C20.2883 45.5697 20.2657 45.5726 20.2418 45.5756C20.0612 45.5959 19.8461 45.591 19.617 45.5586C19.5704 45.5523 19.5229 45.5441 19.4751 45.535H19.4741C19.2954 45.5009 19.1286 45.4546 18.9804 45.3996C18.9463 45.3865 18.9132 45.373 18.8811 45.3596C18.8126 45.3307 18.7496 45.2999 18.6923 45.2684C18.5739 45.2019 18.4802 45.1308 18.4199 45.058C18.373 45.001 18.3451 44.9443 18.3428 44.8885C18.3419 44.8738 18.3428 44.8587 18.3458 44.8443C18.3628 44.7545 18.4461 44.6837 18.5759 44.6348C18.6097 44.6217 18.6467 44.6109 18.6864 44.6014C18.7818 44.5784 18.8929 44.5643 19.0158 44.5597C19.0411 44.5588 19.0666 44.5581 19.0928 44.5581C19.1378 44.5581 19.1843 44.5594 19.2322 44.5617C19.3636 44.5683 19.5036 44.5847 19.6475 44.6122C19.7914 44.6391 19.9274 44.6745 20.0526 44.7155C20.0553 44.7168 20.0569 44.7171 20.0589 44.7174C20.0939 44.7289 20.1287 44.7413 20.1621 44.7541C20.1975 44.7679 20.2323 44.7813 20.2654 44.7961C20.4463 44.8738 20.5899 44.9642 20.6791 45.0573C20.7561 45.1373 20.7925 45.219 20.7781 45.2963L20.7777 45.296Z" fill="#494E7C"/>
<path d="M30.3017 42.8747L29.5655 41.1701C29.5278 41.0836 29.4979 40.9928 29.4766 40.8993L28.5496 36.8572L28.5899 36.8484L29.517 40.8905C29.5379 40.981 29.5668 41.0695 29.6032 41.154L30.3394 42.8586L30.3017 42.8747Z" fill="white"/>
<path d="M22.9901 39.7109L22.8475 36.8538L22.8888 36.8518L23.0314 39.7092L22.9901 39.7109Z" fill="white"/>
<path d="M36.4135 47.9986L35.7159 47.8048C35.6766 47.7894 35.6353 47.7776 35.5927 47.7704C35.5507 47.7635 35.5071 47.7606 35.4629 47.7626L29.2367 48.0323C28.9046 48.0468 28.643 48.3201 28.643 48.6522V52.5855C28.643 52.8992 28.8748 53.1539 29.1704 53.1985L29.1698 53.206L29.8631 53.3991L30.2024 53.1191L35.5484 52.6094C35.8671 52.5789 36.11 52.3114 36.11 51.9915V48.3821C36.11 48.3398 36.1054 48.2985 36.0975 48.2589L36.4135 47.9983V47.9986Z" fill="#CE5242"/>
<path d="M36.2932 52.82L30.067 53.4136C29.7025 53.4483 29.3875 53.1618 29.3875 52.7957V48.8624C29.3875 48.53 29.649 48.2566 29.9811 48.2425L36.2073 47.9728C36.5604 47.9574 36.8547 48.2396 36.8547 48.5926V52.202C36.8547 52.522 36.6115 52.7895 36.2929 52.82H36.2932Z" fill="#F2735A"/>
<path d="M31.5227 48.3622C31.5011 48.3622 31.4791 48.3573 31.4585 48.3471C31.387 48.3117 31.3578 48.2249 31.3936 48.1534L31.7764 47.3827C31.9121 47.1087 32.1865 46.931 32.4923 46.9182L33.7232 46.8674C33.736 46.8665 33.7488 46.8665 33.7616 46.8665C34.171 46.8665 34.5417 47.1316 34.6712 47.5221L34.8496 48.058C34.8748 48.1337 34.8338 48.2154 34.7581 48.2406C34.6811 48.2649 34.6004 48.2245 34.5755 48.1491L34.3972 47.6132C34.3038 47.3316 34.0363 47.1516 33.7347 47.1552L32.5041 47.2061C32.3035 47.2146 32.1236 47.3316 32.0347 47.5109L31.6515 48.2816C31.6266 48.3321 31.5752 48.3619 31.5224 48.3619L31.5227 48.3622Z" fill="#26283F"/>
<path d="M34.3258 45.2258C34.3294 45.2526 34.3271 45.2798 34.3199 45.3071C34.3156 45.3212 34.3104 45.3356 34.3035 45.3493C34.2546 45.448 34.1376 45.5463 33.9711 45.6322C33.9511 45.643 33.9301 45.6532 33.9088 45.6634C33.7443 45.7411 33.539 45.806 33.3119 45.8496C33.2657 45.8587 33.2181 45.8663 33.1699 45.8732C33.1699 45.8732 33.1697 45.8732 33.1693 45.8732C32.9893 45.8984 32.8159 45.9086 32.6583 45.9046C32.6219 45.9033 32.5865 45.9017 32.5514 45.8991C32.3246 45.883 32.137 45.8355 32.0174 45.7627C31.9545 45.724 31.9102 45.6791 31.8899 45.6273C31.8843 45.6135 31.8804 45.5991 31.8784 45.5847C31.8653 45.4942 31.921 45.4001 32.0282 45.3116C32.0561 45.2884 32.0876 45.2664 32.122 45.2444C32.2216 45.1812 32.3478 45.1225 32.4927 45.072C32.5353 45.0576 32.5799 45.0435 32.6258 45.0301C32.7523 44.994 32.89 44.9645 33.0349 44.9435C33.1798 44.9225 33.3204 44.9121 33.4519 44.9104C33.4545 44.9104 33.4561 44.9104 33.4584 44.9104C33.4955 44.9098 33.5322 44.9104 33.5679 44.9117C33.8134 44.9196 34.0196 44.9619 34.155 45.0314C34.254 45.0822 34.3146 45.1477 34.3261 45.2258H34.3258Z" fill="#353757"/>
<path d="M34.409 46.961C34.413 47.04 34.4097 47.1183 34.3999 47.1957C34.3415 47.6693 34.0452 48.1027 33.7079 48.4531C33.682 48.48 33.6446 48.5085 33.6115 48.4911C33.5974 48.4839 33.5882 48.4695 33.5813 48.4551C33.5141 48.323 33.5381 48.1624 33.5918 48.0244C33.6456 47.8864 33.7256 47.7595 33.7731 47.6195C33.7905 47.5684 33.8029 47.5163 33.8121 47.4635C33.8137 47.4556 33.8154 47.4474 33.8167 47.4396C33.8121 47.4464 33.8075 47.4533 33.8029 47.4596C33.6262 47.7225 33.3899 47.9552 33.1424 48.1532C33.1109 48.1781 33.0664 48.204 33.0333 48.181C33.0188 48.1709 33.011 48.1538 33.0054 48.1374C32.952 47.986 33.0008 47.8169 33.0775 47.6759C33.1093 47.6179 33.1457 47.5622 33.1824 47.5074C33.0569 47.6136 32.9234 47.7106 32.7877 47.7985C32.754 47.8205 32.7071 47.8411 32.6766 47.8149C32.6632 47.8037 32.6573 47.786 32.653 47.7687C32.6153 47.613 32.6805 47.4494 32.771 47.317C32.8595 47.1878 32.9729 47.076 33.0572 46.9439C33.0591 46.9406 33.0611 46.9377 33.0631 46.9344C33.0673 46.9279 33.071 46.9207 33.0749 46.9141C33.0651 46.9236 33.0552 46.9328 33.0451 46.9416C32.8893 47.0882 32.7163 47.2186 32.5393 47.3327C32.5055 47.3547 32.4586 47.3756 32.4285 47.3494C32.415 47.3376 32.4091 47.3206 32.4052 47.3032C32.3668 47.1478 32.4321 46.9836 32.5229 46.8515C32.5976 46.742 32.6897 46.6456 32.7674 46.5384C32.77 46.5352 32.772 46.5319 32.7746 46.5286C32.7658 46.3598 32.7199 46.1936 32.6386 46.0454C32.6114 45.9953 32.5802 45.9468 32.5504 45.8982C32.5239 45.8546 32.498 45.8111 32.4763 45.7652C32.397 45.5954 32.3858 45.3977 32.4353 45.2177C32.4494 45.1672 32.4685 45.1181 32.4917 45.0715C32.5343 45.0571 32.5789 45.043 32.6248 45.0296C32.7513 44.9935 32.889 44.964 33.0339 44.943C33.1788 44.9221 33.3194 44.9116 33.4509 44.9099C33.4535 44.9099 33.4551 44.9099 33.4574 44.9099C33.4945 44.9093 33.5312 44.9099 33.5669 44.9112C33.6423 44.9942 33.7059 45.0961 33.7642 45.2059C33.7692 45.2154 33.7744 45.2249 33.779 45.2344C33.8324 45.3374 33.8826 45.4462 33.9347 45.5531C33.9468 45.5793 33.9586 45.6055 33.9704 45.6317C34.0625 45.8346 34.1488 46.0405 34.2281 46.249C34.3156 46.4785 34.3962 46.7155 34.4087 46.961H34.409Z" fill="#F4CAB5"/>
<path d="M33.2275 47.518C33.3 47.4088 33.3764 47.3016 33.4445 47.1898C33.4937 47.1095 33.5298 47.0269 33.5265 46.9312C33.5258 46.9092 33.4914 46.9079 33.4924 46.9299C33.496 47.0397 33.4432 47.1312 33.3849 47.2203C33.3236 47.3141 33.2606 47.4072 33.1987 47.5003C33.1866 47.5186 33.2157 47.5367 33.2279 47.5183L33.2275 47.518Z" fill="#EF9778"/>
<path d="M33.0653 46.9399C33.1886 46.8347 33.2525 46.6783 33.2381 46.517C33.2361 46.4954 33.202 46.4937 33.204 46.5157C33.2177 46.6691 33.1591 46.815 33.042 46.915C33.0253 46.9294 33.0489 46.954 33.0656 46.9399H33.0653Z" fill="#EF9778"/>
<path d="M33.8317 47.4523C33.8806 47.333 33.9405 47.2202 34.0114 47.1124C34.0235 47.094 33.9943 47.076 33.9822 47.0943C33.9097 47.2042 33.8488 47.3202 33.7989 47.4421C33.7904 47.4625 33.8235 47.4723 33.8317 47.452V47.4523Z" fill="#EF9778"/>
<path d="M29.3888 50.6007L29.3862 50.5601L36.8538 50.0569L36.8564 50.0975L29.3888 50.6007Z" fill="white"/>
<path d="M30.7832 50.2561H30.522V50.6944H30.7832V50.2561Z" fill="white"/>
<path d="M35.7949 49.9604H35.5337V50.3987H35.7949V49.9604Z" fill="white"/>
<path d="M3.75183 69.8736L19.66 63.6057L23.808 63.4943L18.0292 67.0325L26.612 63.3599L30.6908 63.6037L24.516 69.8736H3.75183Z" fill="url(#paint4_linear_561_7357)"/>
<path d="M23.3288 69.8735L51.1004 56.3013L68.4577 58.2732L89.8654 44.469L108.967 45.9565V69.8735H23.3288Z" fill="#8884E8"/>
</g>
<defs>
<linearGradient id="paint0_linear_561_7357" x1="34.9999" y1="70" x2="34.9999" y2="0" gradientUnits="userSpaceOnUse">
<stop stop-color="white"/>
<stop offset="1" stop-color="#BFB5FA"/>
</linearGradient>
<linearGradient id="paint1_linear_561_7357" x1="32.4543" y1="37.0936" x2="32.4543" y2="17.4996" gradientUnits="userSpaceOnUse">
<stop stop-color="#F2EFFE"/>
<stop offset="1" stop-color="#BFB5FA"/>
</linearGradient>
<linearGradient id="paint2_linear_561_7357" x1="22.5325" y1="37.0936" x2="22.5325" y2="24.4926" gradientUnits="userSpaceOnUse">
<stop stop-color="white"/>
<stop offset="1" stop-color="#BFB5FA"/>
</linearGradient>
<linearGradient id="paint3_linear_561_7357" x1="66.8829" y1="37.0935" x2="66.8829" y2="69.8735" gradientUnits="userSpaceOnUse">
<stop offset="0.11" stop-color="#E3DFFD"/>
<stop offset="0.67" stop-color="#BFB5FA"/>
</linearGradient>
<linearGradient id="paint4_linear_561_7357" x1="17.2215" y1="63.3599" x2="17.2215" y2="69.8736" gradientUnits="userSpaceOnUse">
<stop offset="0.33" stop-color="#BFB5FA"/>
<stop offset="1" stop-color="#CFC8FB"/>
</linearGradient>
</defs>
</svg>
