<svg width="18" height="19" viewBox="0 0 18 19" fill="none" xmlns="http://www.w3.org/2000/svg">
<rect y="0.719482" width="18" height="18" rx="4" fill="#FFDBDB"/>
<path d="M12.6881 12.179C13.104 12.5945 13.104 13.2667 12.6881 13.681C12.4801 13.8888 12.211 14 11.9297 14C11.6606 14 11.3914 13.9022 11.1835 13.681L9.00612 11.519L6.82875 13.681C6.6208 13.8888 6.35168 14 6.07034 14C5.80122 14 5.51988 13.8888 5.31193 13.681C4.89602 13.2667 4.89602 12.5945 5.31193 12.1667L7.4893 10.0035L5.31193 7.82683C4.89602 7.41252 4.89602 6.72811 5.31193 6.31257C5.72783 5.89581 6.40061 5.89581 6.82875 6.31257L9.00612 8.4868L11.1713 6.31257C11.5994 5.89581 12.2722 5.89581 12.6881 6.31257C13.104 6.72811 13.104 7.41252 12.6881 7.82683L10.5107 10.0035L12.6881 12.179Z" fill="#FE4D4D" stroke="#FFDBDB" stroke-width="0.8"/>
</svg>
