<svg width="27" height="22" viewBox="0 0 27 22" fill="none" xmlns="http://www.w3.org/2000/svg">
<path fill-rule="evenodd" clip-rule="evenodd" d="M23.6247 5.30193C23.6247 7.44638 21.8863 9.1848 19.7418 9.1848C17.5974 9.1848 15.859 7.44638 15.859 5.30193C15.859 3.15748 17.5974 1.41906 19.7418 1.41906C21.8863 1.41906 23.6247 3.15748 23.6247 5.30193ZM23.6873 17.8615V8.9083H23.6826V8.84892C22.7122 9.92642 21.3061 10.6039 19.7418 10.6039C16.8136 10.6039 14.4399 8.23011 14.4399 5.30193C14.4399 4.77161 14.5178 4.25947 14.6627 3.77632H12.804V3.77838H11.7086H11.5236V3.77718H3.95898C3.75806 3.77752 3.56545 3.85749 3.42338 3.99957C3.2813 4.14165 3.20133 4.33425 3.20099 4.53518V17.8615H5.12158V15.8001C5.12226 15.2602 5.33714 14.7425 5.71907 14.3609C6.10099 13.9792 6.61875 13.7646 7.15869 13.7643H10.5121C11.0519 13.7646 11.5695 13.9792 11.9512 14.3609C12.3329 14.7426 12.5475 15.2603 12.5479 15.8001V17.8615H23.6873ZM12.6973 2.49504H11.5236V2.49679H3.95898C3.41858 2.49747 2.9005 2.71244 2.51837 3.09457C2.13625 3.47669 1.92127 3.99477 1.92059 4.53518V17.8615H0.640198C0.470407 17.8615 0.30757 17.929 0.18751 18.049C0.0674492 18.1691 0 18.3319 0 18.5017C0 19.3507 0.337246 20.1649 0.937548 20.7652C1.53785 21.3655 2.35203 21.7027 3.20099 21.7027H23.6873C24.5363 21.7027 25.3505 21.3655 25.9508 20.7652C26.5511 20.1649 26.8883 19.3507 26.8883 18.5017C26.8883 18.3319 26.8209 18.1691 26.7008 18.049C26.5807 17.929 26.4179 17.8615 26.2481 17.8615H24.9677V8.10156H24.9639V6.22379C25.0164 5.9244 25.0438 5.61636 25.0438 5.30193C25.0438 2.37376 22.67 0 19.7418 0C17.8444 0 16.1798 0.996673 15.243 2.49504H12.804H12.6973ZM3.20099 20.4223H23.6873C24.0844 20.4223 24.4718 20.2991 24.796 20.0698C25.1203 19.8405 25.3654 19.5163 25.4978 19.1419H1.39051C1.52288 19.5163 1.76806 19.8405 2.0923 20.0698C2.41653 20.2991 2.80387 20.4223 3.20099 20.4223ZM6.40198 17.8615H11.2675V15.8001C11.2675 15.5997 11.1879 15.4076 11.0462 15.2659C10.9046 15.1243 10.7124 15.0447 10.5121 15.0447H7.15869C6.95822 15.0447 6.76594 15.1242 6.62407 15.2659C6.48219 15.4075 6.40232 15.5996 6.40198 15.8001V17.8615ZM8.83478 7.61831C8.30298 7.61831 7.78312 7.77601 7.34095 8.07146C6.89877 8.36692 6.55414 8.78685 6.35063 9.27817C6.14711 9.76949 6.09387 10.3101 6.19762 10.8317C6.30136 11.3533 6.55745 11.8324 6.93349 12.2084C7.30953 12.5845 7.78863 12.8406 8.31022 12.9443C8.8318 13.0481 9.37243 12.9948 9.86375 12.7913C10.3551 12.5878 10.775 12.2432 11.0705 11.801C11.3659 11.3588 11.5236 10.8389 11.5236 10.3071C11.5236 9.59402 11.2403 8.91011 10.7361 8.40585C10.2318 7.9016 9.5479 7.61831 8.83478 7.61831ZM8.83478 11.7156C8.55622 11.7156 8.28391 11.633 8.0523 11.4782C7.82068 11.3235 7.64016 11.1035 7.53356 10.8461C7.42696 10.5888 7.39906 10.3056 7.45341 10.0324C7.50775 9.75916 7.64189 9.5082 7.83887 9.31123C8.03584 9.11426 8.2868 8.98012 8.56001 8.92577C8.83322 8.87143 9.11641 8.89932 9.37377 9.00592C9.63112 9.11252 9.85109 9.29304 10.0059 9.52466C10.1606 9.75628 10.2432 10.0286 10.2432 10.3071C10.2432 10.6807 10.0948 11.0389 9.8307 11.3031C9.56656 11.5672 9.20832 11.7156 8.83478 11.7156Z" fill="#313131"/>
<path fill-rule="evenodd" clip-rule="evenodd" d="M18.9303 7.24178C18.8133 7.24178 18.695 7.19706 18.6056 7.10701L17.1512 5.65326C16.9717 5.47377 16.9717 5.18339 17.1512 5.00389C17.3307 4.82439 17.6211 4.82439 17.8006 5.00389L18.9303 6.13233L21.5131 3.55015C21.6926 3.37065 21.9829 3.37065 22.1624 3.55015C22.3419 3.72965 22.3419 4.02003 22.1624 4.19952L19.255 7.10701C19.1655 7.19706 19.0479 7.24178 18.9303 7.24178Z" fill="#313131"/>
</svg>
