<svg width="16" height="20" viewBox="0 0 16 20" fill="none" xmlns="http://www.w3.org/2000/svg">
<path d="M3.53057 1.90911H3.66807L3.68 1.77213C3.75831 0.873196 4.52049 0.15 5.43402 0.15H10.384C11.2974 0.15 12.058 0.873025 12.1363 1.77213L12.1483 1.90911H12.2858H13.3774C14.6314 1.90911 15.668 2.94566 15.668 4.19956V16.8927C15.668 18.1466 14.6314 19.1832 13.3774 19.1832H2.44068C1.18662 19.1832 0.15 18.1466 0.15 16.8927V4.19956C0.15 2.94566 1.18662 1.90911 2.44068 1.90911H3.53057ZM3.67999 3.50334L3.66794 3.36649H3.53057H2.44068C1.96372 3.36649 1.60756 3.72259 1.60756 4.19956V16.8927C1.60756 17.3697 1.96372 17.7258 2.44068 17.7258H13.3774C13.8543 17.7258 14.2105 17.3696 14.2105 16.8927V4.19956C14.2105 3.72263 13.8543 3.36649 13.3774 3.36649H12.2858H12.1484L12.1363 3.50334C12.0573 4.40166 11.2969 5.12388 10.384 5.12388H5.43402C4.52102 5.12388 3.75905 4.40149 3.67999 3.50334ZM10.384 1.60738H5.43402C5.35468 1.60738 5.27071 1.62955 5.20688 1.69341C5.14307 1.75726 5.12097 1.84122 5.12097 1.92047V3.35351C5.12097 3.4328 5.14313 3.51691 5.20772 3.58054C5.27194 3.64379 5.35587 3.66487 5.43402 3.66487H10.384C10.4622 3.66487 10.5463 3.64375 10.6103 3.57971C10.6743 3.51568 10.6954 3.43161 10.6954 3.35351V1.92047C10.6954 1.8424 10.6743 1.75849 10.6111 1.69425C10.5475 1.6296 10.4634 1.60738 10.384 1.60738Z" fill="#313131" stroke="white" stroke-width="0.3"/>
</svg>
