<svg width="70" height="70" viewBox="0 0 70 70" fill="none" xmlns="http://www.w3.org/2000/svg">
<rect opacity="0.1" width="70" height="70" rx="15" fill="#24A1FB"/>
<path d="M51.2235 44.5061H46.5024V53.8084C46.5024 54.2262 46.4296 54.6271 46.2974 55H54.4142C55.0721 55 55.6057 54.4665 55.6057 53.8084V48.2502C55.6057 46.1858 53.6398 44.5061 51.2235 44.5061Z" fill="#24A1FB"/>
<path d="M35.2702 27.2329C38.6518 27.2329 41.403 24.4817 41.403 21.0999C41.403 17.7183 38.6518 14.967 35.2702 14.967C31.8885 14.967 29.1372 17.7183 29.1372 21.0999C29.1372 24.4817 31.8885 27.2329 35.2702 27.2329Z" fill="#24A1FB"/>
<path d="M28.9737 31.4931V34.719C29.556 34.5551 30.1692 34.4655 30.8033 34.4655H39.737C40.3711 34.4655 40.9843 34.5551 41.5668 34.719V31.4931L49.4039 23.6559C50.1111 22.9488 50.5006 22.0085 50.5006 21.0084C50.5006 20.0083 50.1112 19.0681 49.404 18.361C48.6968 17.6539 47.7566 17.2643 46.7565 17.2643C45.7564 17.2643 44.8162 17.6538 44.1091 18.361L43.5129 18.9572C43.6909 19.6421 43.786 20.3602 43.786 21.1C43.786 25.7958 39.9657 29.6161 35.2701 29.6161C30.5744 29.6161 26.7541 25.7958 26.7541 21.1C26.7541 20.3602 26.8492 19.6421 27.0272 18.9571L26.4312 18.3609C25.7239 17.6539 24.7837 17.2643 23.7837 17.2643C22.7835 17.2643 21.8433 17.6538 21.1363 18.361C20.4292 19.0681 20.0397 20.0083 20.0396 21.0084C20.0395 22.0085 20.4289 22.9487 21.1361 23.6559L28.9737 31.4931Z" fill="#24A1FB"/>
<path d="M39.737 36.8485H30.8033C28.3869 36.8485 26.421 38.8144 26.421 41.2308V53.8085C26.421 54.4665 26.9546 55 27.6126 55H42.9277C43.5857 55 44.1193 54.4665 44.1193 53.8085V41.2308C44.1193 38.8144 42.1533 36.8485 39.737 36.8485Z" fill="#24A1FB"/>
<path d="M24.038 41.3155H19.3169C16.9005 41.3155 14.9346 42.995 14.9346 45.0597V53.8085C14.9346 54.4665 15.468 55 16.1262 55H24.2429C24.1107 54.6271 24.038 54.2262 24.038 53.8085V41.3155Z" fill="#24A1FB"/>
</svg>
