<svg width="70" height="70" viewBox="0 0 70 70" fill="none" xmlns="http://www.w3.org/2000/svg">
<rect opacity="0.1" width="70" height="70" rx="15" fill="#00E5F3"/>
<path d="M30.2935 36.1133H39.7066V40.2766H30.2935V36.1133Z" fill="#00E7F5"/>
<path d="M30.2935 29.7234H39.7066V33.8867H30.2935V29.7234Z" fill="#00E7F5"/>
<path d="M27.0847 29.2371H26.1418C25.7006 29.2371 25.271 29.2872 24.8582 29.3816V38.3718C25.708 38.6377 26.469 39.106 27.0847 39.7202V29.2371Z" fill="#00E7F5"/>
<path d="M27.8702 22.7058C29.1516 20.0575 31.866 18.2266 35 18.2266C36.6108 18.2266 38.1694 18.7249 39.4731 19.6166C39.9917 19.0335 40.6329 18.5623 41.3561 18.2432C39.5715 16.8114 37.3282 16 35 16C30.6059 16 26.8561 18.8092 25.4508 22.7258C25.6795 22.7129 27.8702 22.7058 27.8702 22.7058Z" fill="#00E7F5"/>
<path d="M53.9999 35C53.9999 31.0078 51.681 27.5475 48.3196 25.8939C47.9352 26.5816 47.4068 27.1779 46.7749 27.6418C49.7002 28.8054 51.7734 31.6651 51.7734 35C51.7734 38.1341 49.9425 40.8484 47.2941 42.1299C47.2941 42.1299 47.2876 44.3204 47.2748 44.549C51.1911 43.1435 53.9999 39.3939 53.9999 35Z" fill="#00E7F5"/>
<path d="M19.6271 39.4884C18.7287 38.1816 18.2266 36.6172 18.2266 35C18.2266 31.4815 20.5344 28.4924 23.7157 27.4655C24.4806 27.2186 25.2958 27.0847 26.1418 27.0847H39.6811C39.0689 26.4685 38.6021 25.7076 38.3378 24.8582H26.1418C25.3058 24.8582 24.4933 24.9606 23.7156 25.1522C19.2912 26.2425 16 30.2438 16 35C16 37.3303 16.8128 39.5756 18.2471 41.3609C18.5694 40.641 19.0427 40.0035 19.6271 39.4884Z" fill="#00E7F5"/>
<path d="M40.7629 43.8582V42.9153H28.648C28.6749 43.1344 28.6903 43.357 28.6903 43.5833C28.6903 44.1248 28.6099 44.6476 28.4624 45.1418H40.6174C40.7119 44.7289 40.7629 44.2995 40.7629 43.8582Z" fill="#00E7F5"/>
<path d="M45.1418 43.8583V28.4617C44.6385 28.6152 44.1048 28.6985 43.5518 28.6985C43.3364 28.6985 43.1243 28.6845 42.9153 28.6602V43.8583C42.9153 45.123 42.6166 46.3192 42.0868 47.3807C40.7884 49.9822 38.0997 51.7735 35 51.7735C31.6699 51.7735 28.8138 49.7062 27.6469 46.7878C27.1853 47.4221 26.5907 47.9532 25.9042 48.3405C27.5619 51.6907 31.016 54 35 54C39.3542 54 43.0759 51.2416 44.5106 47.3807C44.9185 46.2829 45.1418 45.0962 45.1418 43.8583Z" fill="#00E7F5"/>
<path d="M23.2315 46.8899C25.0577 46.8899 26.5381 45.4095 26.5381 43.5833C26.5381 41.7571 25.0577 40.2766 23.2315 40.2766C21.4053 40.2766 19.9248 41.7571 19.9248 43.5833C19.9248 45.4095 21.4053 46.8899 23.2315 46.8899Z" fill="#00E7F5"/>
<path d="M43.5518 26.5461C45.378 26.5461 46.8585 25.0656 46.8585 23.2394C46.8585 21.4132 45.378 19.9327 43.5518 19.9327C41.7256 19.9327 40.2451 21.4132 40.2451 23.2394C40.2451 25.0656 41.7256 26.5461 43.5518 26.5461Z" fill="#00E7F5"/>
</svg>
