<svg width="70" height="70" viewBox="0 0 70 70" fill="none" xmlns="http://www.w3.org/2000/svg">
<rect opacity="0.1" width="70" height="70" rx="15" fill="#006DF0"/>
<path d="M54.5293 42.3431L48.9601 39.133L54.5293 35.9154C54.6703 35.8332 54.7873 35.7155 54.8686 35.5741C54.9499 35.4326 54.9927 35.2723 54.9927 35.1091C54.9927 34.9459 54.9499 34.7856 54.8686 34.6441C54.7873 34.5027 54.6703 34.385 54.5293 34.3028L48.9676 31.0852L54.4995 27.89C54.6559 27.8091 54.7856 27.6847 54.8728 27.5316C54.9346 27.4258 54.9749 27.3088 54.9914 27.1873C55.008 27.0658 55.0005 26.9423 54.9693 26.8237C54.9381 26.7052 54.8838 26.5939 54.8096 26.4964C54.7354 26.3988 54.6427 26.3168 54.5368 26.255L35.1266 15.0568C34.9842 14.9764 34.8235 14.9341 34.66 14.9341C34.4965 14.9341 34.3357 14.9764 34.1934 15.0568L14.7832 26.255C14.6404 26.3367 14.5218 26.4546 14.4393 26.5969C14.3568 26.7391 14.3134 26.9006 14.3134 27.0651C14.3134 27.2295 14.3568 27.391 14.4393 27.5332C14.5218 27.6755 14.6404 27.7934 14.7832 27.8751L20.345 31.0852L14.7757 34.3028C14.6347 34.385 14.5178 34.5027 14.4365 34.6441C14.3552 34.7856 14.3124 34.9459 14.3124 35.1091C14.3124 35.2723 14.3552 35.4326 14.4365 35.5741C14.5178 35.7155 14.6347 35.8332 14.7757 35.9154L20.345 39.133L14.7832 42.3431C14.6404 42.4248 14.5218 42.5427 14.4393 42.6849C14.3568 42.8272 14.3134 42.9887 14.3134 43.1531C14.3134 43.3176 14.3568 43.4791 14.4393 43.6213C14.5218 43.7636 14.6404 43.8815 14.7832 43.9631L34.1934 55.1614C34.3336 55.2349 34.4905 55.2709 34.6488 55.2659C34.8139 55.2646 34.9758 55.2209 35.1191 55.139L54.5293 43.9408C54.6702 43.8576 54.7869 43.7391 54.868 43.5971C54.9491 43.455 54.9918 43.2943 54.9918 43.1307C54.9918 42.9672 54.9491 42.8064 54.868 42.6644C54.7869 42.5224 54.6702 42.4039 54.5293 42.3207V42.3431ZM17.1049 35.1091L22.2039 32.1677L34.1486 39.0807C34.2889 39.1633 34.4487 39.2071 34.6115 39.2076C34.7765 39.2063 34.9385 39.1626 35.0818 39.0807L47.0266 32.1677L52.1927 35.1091L34.6488 45.2397L17.1049 35.1091ZM34.6488 53.2801L17.1049 43.1569L22.2039 40.1707L34.1486 47.0837C34.2888 47.1665 34.4487 47.2101 34.6115 47.2101C34.7743 47.2101 34.9341 47.1665 35.0743 47.0837L47.0564 40.1707L52.1553 43.1569L34.6488 53.2801Z" fill="#006DF0"/>
</svg>
