<svg width="23" height="22" viewBox="0 0 23 22" fill="none" xmlns="http://www.w3.org/2000/svg">
<path fill-rule="evenodd" clip-rule="evenodd" d="M0 5.42871V10.8574H1.05566H2.11133V13.2835C2.11133 14.6179 2.12647 15.7082 2.14502 15.7065C2.16357 15.7048 3.06803 14.6131 4.15491 13.2804L6.13116 10.8574H7.33314H8.53516V14.0041V17.1509H12.702H16.8688L18.8451 19.5739C19.932 20.9065 20.8364 21.9983 20.855 22C20.8735 22.0017 20.8887 20.9113 20.8887 19.577V17.1509H21.9443H23V11.7222V6.29346H18.7324H14.4648V3.14673V0H7.23242H0V5.42871ZM12.8027 4.01148V6.29346H10.6689H8.53516V7.71068V9.12791L6.95166 9.13123L5.36816 9.13449L4.58203 10.1018L3.7959 11.0691L3.78372 10.0985L3.7716 9.12791H2.69437H1.61719V5.42871V1.7295H7.20996H12.8027V4.01148ZM6.43699 2.85603C6.33304 2.89076 6.16166 2.98709 6.05619 3.07005C5.86976 3.21668 5.60081 3.58343 5.62548 3.65741C5.63221 3.67759 5.80808 3.82387 6.01634 3.98256L6.39499 4.27105L6.50037 4.11832C6.6784 3.86024 6.90139 3.78011 7.11185 3.89858C7.24082 3.97117 7.27582 4.03266 7.27667 4.18793C7.2777 4.38197 7.10026 4.5691 6.67081 4.82684C6.18318 5.11951 6.05385 5.28987 6.02793 5.67362L6.00875 5.95716L6.49705 5.95688C6.98396 5.95654 6.98553 5.9562 7.05642 5.82294C7.10008 5.74078 7.25583 5.61775 7.46071 5.50355C7.9447 5.23375 8.12736 5.06412 8.25507 4.76583C8.35277 4.53763 8.36378 4.45644 8.34729 4.08753C8.33171 3.73836 8.30785 3.63065 8.20426 3.44161C8.05467 3.16863 7.79192 2.95504 7.48645 2.858C7.21261 2.77104 6.69417 2.77003 6.43699 2.85603ZM6.01953 7.15979V7.73788L6.5249 7.72428L7.03027 7.71068L7.04294 7.14619L7.05556 6.58171H6.53757H6.01953V7.15979ZM21.3828 11.7222V15.4214H20.3056H19.2284L19.2163 16.392L19.2041 17.3626L18.418 16.3953L17.6318 15.4279L13.9146 15.4247L10.1973 15.4214V11.7222V8.02295H15.79H21.3828V11.7222ZM15.2391 10.5091L15.251 11.9383L15.8687 11.9517L16.4863 11.9651V10.5225V9.07987H15.8567H15.2272L15.2391 10.5091ZM15.2481 12.7939C15.2357 12.8285 15.2313 13.1149 15.2383 13.4304L15.251 14.0041L15.8687 14.0175L16.4863 14.0309V13.3809V12.731H15.8785C15.4192 12.731 15.2651 12.7464 15.2481 12.7939Z" fill="#313131"/>
</svg>
