<svg width="70" height="70" viewBox="0 0 70 70" fill="none" xmlns="http://www.w3.org/2000/svg">
<rect opacity="0.1" width="70" height="70" rx="15" fill="#FE4D4D"/>
<path fill-rule="evenodd" clip-rule="evenodd" d="M33.637 19.0985C32.92 19.2646 33.0207 19.2196 23.7207 23.5337L15.2702 27.4538L14.7742 27.9548C14.3977 28.3351 14.2445 28.5636 14.1383 28.9037C13.7143 30.2608 14.2912 31.6611 15.5161 32.2479C19.5528 34.1813 32.7644 40.252 33.2789 40.4099C33.8668 40.5904 34.1372 40.624 35.0018 40.624C35.8642 40.624 36.1384 40.5901 36.7248 40.411C37.2404 40.2536 50.6322 34.0995 54.4875 32.2484C55.0815 31.9631 55.6167 31.3845 55.8376 30.7887C56.0873 30.1148 56.0458 29.2308 55.7354 28.612C55.2841 27.7129 55.4964 27.8264 46.0517 23.4357C41.2766 21.2159 37.123 19.3194 36.8216 19.2214C36.1128 18.9909 34.3888 18.9243 33.637 19.0985ZM52.0057 36.287L50.7545 36.8807V40.8175V44.7544L50.9411 45.0361C51.5293 45.9245 52.6051 45.9245 53.1934 45.0361L53.3799 44.7544V40.2162C53.3799 37.7202 53.3523 35.6815 53.3184 35.6858C53.2845 35.6899 52.6938 35.9606 52.0057 36.287ZM21.8746 41.3846C21.8746 45.0699 21.8857 45.1639 22.4625 46.3627C22.7253 46.9089 22.9466 47.2161 23.436 47.7141C23.9817 48.2694 24.1986 48.4219 25.0027 48.8151C26.97 49.7773 29.4494 50.5036 32.0892 50.8911C33.0821 51.0368 36.9284 51.0361 37.9144 50.8901C40.7219 50.474 43.4937 49.6382 45.37 48.6417C46.2344 48.1826 47.105 47.2689 47.5415 46.3627C48.1231 45.1555 48.1337 45.0619 48.1095 41.3817L48.088 38.1212L43.5345 40.2397C38.1396 42.7497 38.0084 42.8068 37.0781 43.0434C36.0072 43.3158 33.956 43.3112 32.9097 43.0341C31.9154 42.7708 32.0229 42.8172 27.0845 40.5204C24.6929 39.4081 22.5423 38.4104 22.3054 38.3033L21.8746 38.1086V41.3846Z" fill="#FD4D4D"/>
</svg>
