<svg width="70" height="70" viewBox="0 0 70 70" fill="none" xmlns="http://www.w3.org/2000/svg">
<rect opacity="0.1" width="70" height="70" rx="15" fill="#8884E8"/>
<path fill-rule="evenodd" clip-rule="evenodd" d="M32.3053 15.0262C32.1094 15.0424 31.4861 15.0939 30.9201 15.1406C28.9336 15.3048 26.4884 15.6964 25.4984 16.009C23.2809 16.709 21.0582 18.5963 19.8291 20.8226C19.1446 22.0625 18.8987 22.9475 18.6155 25.1889C18.1106 29.1861 17.8912 34.0589 18.0519 37.7062C18.2225 41.5781 18.6042 45.4755 18.9622 47.0012C19.691 50.1073 22.4802 53.0589 25.6171 54.0435C26.446 54.3037 28.7589 54.6725 30.9597 54.8954C32.5208 55.0535 37.8781 55.0268 39.4683 54.853C41.7819 54.6001 43.5653 54.2994 44.4943 54.0056C47.4944 53.0569 50.3286 50.0297 51.021 47.0344C51.4125 45.3411 51.7876 41.4364 51.9453 37.4128C52.0182 35.5515 52.0182 34.4628 51.9453 32.6015C51.7881 28.5902 51.4125 24.6736 51.0237 22.9913C50.4337 20.4379 48.2363 17.76 45.6915 16.4928C44.4656 15.8824 42.8485 15.5341 39.5475 15.1694C38.5022 15.054 33.2284 14.9497 32.3053 15.0262ZM37.4896 20.9594C40.306 21.7028 42.6777 23.692 43.7893 26.2432C44.402 27.6494 44.6142 28.8085 44.5523 30.4112C44.4581 32.8522 43.6135 34.7609 41.8428 36.5342C40.7145 37.6641 39.7346 38.2951 38.3392 38.7904C36.3844 39.4842 33.9252 39.4878 31.9887 38.7996C29.7323 37.9978 27.7583 36.2741 26.7048 34.1857C25.4028 31.605 25.4033 28.3779 26.7059 25.8163C27.6203 24.0179 29.3587 22.3604 31.2178 21.514C32.5891 20.8897 33.6633 20.6861 35.3921 20.7228C36.4989 20.7463 36.8188 20.7823 37.4896 20.9594ZM32.0678 23.181C30.485 23.8501 28.9957 25.3126 28.2567 26.9235C28.0525 27.3685 27.6354 28.7581 27.6354 28.9932C27.6354 29.0308 28.2897 29.0615 29.0893 29.0615H30.5432L30.6339 28.3631C30.8635 26.5933 31.5761 24.7023 32.6037 23.1353C32.7508 22.9111 32.695 22.9159 32.0678 23.181ZM34.5644 23.6438C33.9358 24.4688 33.2586 25.7461 32.9418 26.7044C32.7091 27.4083 32.4636 28.5224 32.4636 28.8745V29.0615H35.1547C38.2777 29.0615 37.9432 29.2065 37.687 27.9638C37.3985 26.5647 36.8208 25.1899 36.0584 24.088C35.6264 23.4635 35.2184 22.9627 35.1402 22.9607C35.1104 22.9599 34.8514 23.2674 34.5644 23.6438ZM37.7994 23.2918C38.1673 23.8823 38.731 25.0148 38.9966 25.6973C39.2636 26.3832 39.6127 27.8205 39.7045 28.6116L39.7567 29.0615H41.2133H42.6699L42.6239 28.8072C42.2466 26.7254 41.0655 24.9375 39.297 23.7711C38.7577 23.4155 37.8275 22.9593 37.6414 22.9593C37.6144 22.9593 37.6855 23.1089 37.7994 23.2918ZM27.6354 30.9731C27.6354 30.9918 27.6873 31.251 27.7508 31.5493C28.2202 33.7546 29.7341 35.6812 31.7914 36.6912C32.6597 37.1175 32.7768 37.1323 32.5486 36.7869C31.5641 35.2968 30.7922 33.1722 30.6018 31.428L30.5484 30.939H29.0919C28.2909 30.939 27.6354 30.9544 27.6354 30.9731ZM32.4979 31.418C32.6276 32.5503 33.1364 34.0403 33.7911 35.2046C34.123 35.7949 35.0442 37.0412 35.1486 37.0412C35.1896 37.0412 35.4545 36.7366 35.7372 36.3643C36.3328 35.5799 37.0234 34.2985 37.3296 33.4093C37.5338 32.8165 37.8457 31.4163 37.8457 31.0928C37.8457 30.943 37.7767 30.939 35.1444 30.939H32.4431L32.4979 31.418ZM39.7042 31.3889C39.4965 33.1682 38.8122 35.1077 37.8619 36.6109C37.7259 36.826 37.6504 37.0144 37.6941 37.0293C37.7379 37.0443 38.1016 36.8957 38.5025 36.699C40.6683 35.6366 42.2014 33.589 42.625 31.1933L42.6699 30.939H41.2133H39.7567L39.7042 31.3889ZM44.1031 42.9868C44.2579 43.0294 44.4894 43.1723 44.6176 43.3044C44.8211 43.5145 44.8505 43.6025 44.8505 44.0027C44.8505 44.3825 44.8167 44.4968 44.6526 44.6726C44.2355 45.1195 44.6966 45.0992 34.9964 45.0992C25.2961 45.0992 25.7572 45.1195 25.3401 44.6726C25.176 44.4968 25.1422 44.3825 25.1422 44.0027C25.1422 43.6018 25.1714 43.5146 25.3766 43.3029C25.5057 43.1699 25.7194 43.0299 25.8515 42.9919C26.1925 42.8939 43.7469 42.889 44.1031 42.9868ZM40.2153 47.4326C40.9206 47.8065 40.955 48.8393 40.2757 49.2486C40.0315 49.3959 39.8418 49.4014 35.0122 49.4016C29.4831 49.402 29.6886 49.42 29.3735 48.9092C29.0668 48.4119 29.2595 47.7071 29.7774 47.4326C30.0303 47.2985 30.3541 47.2897 34.9964 47.2897C39.6386 47.2897 39.9625 47.2985 40.2153 47.4326Z" fill="#8884E8"/>
</svg>
