<svg width="70" height="70" viewBox="0 0 70 70" fill="none" xmlns="http://www.w3.org/2000/svg">
<rect width="70" height="70" rx="10" fill="#E9F3FE"/>
<mask id="mask0_561_7347" style="mask-type:alpha" maskUnits="userSpaceOnUse" x="0" y="0" width="70" height="70">
<rect width="70" height="70" rx="10" fill="#E9F3FE"/>
</mask>
<g mask="url(#mask0_561_7347)">
<path opacity="0.2" d="M-18.6559 56.7594C-18.6559 56.7594 -28.5925 44.8759 -19.3013 35.6973C-13.4727 29.939 -11.5126 34.0225 -8.01669 24.9705C-3.34038 12.8615 14.4742 6.47946 28.5558 19.4361C37.8968 28.0303 40.9132 30.1962 45.4982 28.1959C50.7561 25.9017 53.0663 18.9964 61.2968 20.4565C70.8094 22.1442 69.5357 32.3762 76.5452 30.5945C90.0629 27.1585 100.078 46.7882 90.7337 56.8952L-18.6563 56.7602L-18.6559 56.7594Z" fill="#AFCDFB"/>
<path d="M57.2235 36.7844C57.2235 38.0135 57.1125 39.2168 56.8999 40.3848C55.2046 49.7045 47.0469 56.7702 37.2381 56.7702C29.08 56.7702 22.0641 51.8829 18.9581 44.8758C18.5485 43.9526 18.2069 42.992 17.94 42.0013C17.4911 40.3382 17.252 38.589 17.252 36.784C17.252 35.3078 17.4119 33.8693 17.7158 32.4847C18.5461 28.697 20.4508 25.3117 23.0946 22.6638C23.8442 21.9123 24.6541 21.2202 25.5162 20.5952C28.8091 18.2062 32.8588 16.7979 37.2385 16.7979C37.7469 16.7979 38.2505 16.8167 38.7489 16.8545C39.4523 16.9072 40.1452 16.996 40.826 17.1194C45.4782 17.9626 49.5702 20.4167 52.5025 23.8825C53.0938 24.5814 53.638 25.3213 54.1299 26.0974C56.0893 29.1882 57.2239 32.8537 57.2239 36.784L57.2235 36.7844Z" fill="#CAE2FF"/>
<path d="M57.2239 36.7845C57.2239 38.0136 57.1129 39.2169 56.9003 40.3849C56.0868 40.2671 55.0274 40.1522 54.3735 40.229C53.1954 40.3676 52.017 42.7932 49.5914 42.8885C47.1659 42.9837 44.1857 41.1301 40.9976 42.3772C37.8096 43.6248 36.1465 42.3081 35.5919 41.407C35.0376 40.5059 36.9781 38.4268 36.8024 37.5261C36.6264 36.625 37.0476 33.5756 39.7501 33.5756C42.4526 33.5756 43.7005 32.1894 44.047 31.5656C44.3934 30.9418 46.4726 31.427 47.5815 30.2489C48.6903 29.0709 46.7499 26.9918 47.5815 25.6056C48.413 24.2194 52.5021 23.8826 52.5021 23.8826C55.4474 27.364 57.2235 31.8667 57.2235 36.7841L57.2239 36.7845Z" fill="#AFCDFB"/>
<path d="M27.7608 33.3874C26.7906 34.7539 28.1073 37.5951 27.2757 39.0504C26.4441 40.5058 24.8501 40.2285 23.6721 40.9218C22.6492 41.5234 22.2393 44.0053 18.9584 44.8762C17.8612 42.4028 17.2523 39.6646 17.2523 36.7844C17.2523 35.3082 17.4122 33.8697 17.7161 32.4851C18.3857 31.8091 19.3028 31.2018 20.5536 30.8726C24.5041 29.8333 25.4867 29.5937 27.0619 29.8489C28.2527 30.0423 28.7314 32.0205 27.7612 33.387L27.7608 33.3874Z" fill="#AFCDFB"/>
<path d="M42.6607 25.8482C42.6607 25.8482 40.2351 25.3631 38.9184 26.1946C37.6018 27.0262 34.9334 28.5161 35.2799 29.3826C35.6263 30.2488 38.156 30.9075 39.1954 30.8726C40.2347 30.838 43.2841 29.2785 44.5662 29.3826C45.8483 29.4867 45.1172 25.9294 42.6603 25.8482H42.6607Z" fill="#AFCDFB"/>
<path d="M31.1185 49.6293C30.0583 50.4026 29.8054 52.7795 29.127 53.1087C28.7866 53.2739 28.2629 53.8691 27.826 54.4197C25.0721 52.9471 22.7036 50.8483 20.911 48.3134C22.1107 47.4806 24.3603 46.0743 25.9209 46.0361C25.9209 46.0361 26.701 46.0269 27.279 44.4425C27.5069 43.818 27.7512 43.2641 28.0338 42.8473C28.4691 42.2059 28.9948 41.8887 29.6925 42.1391C29.9915 42.2465 30.1796 42.4137 30.3207 42.6247C30.7242 43.2259 30.7496 44.1805 31.8866 45.1009C33.4223 46.344 32.1792 48.8564 31.1185 49.6297V49.6293Z" fill="#AFCDFB"/>
<path d="M19.3289 48.3721H18.9395V56.6873H19.3289V48.3721Z" fill="#1C468A"/>
<path d="M18.7739 48.0823C18.7739 47.8709 18.9351 47.6997 19.134 47.6997C19.333 47.6997 19.4946 47.8709 19.4946 48.0823C19.4946 48.2937 19.3334 48.465 19.134 48.465C18.9347 48.465 18.7739 48.2937 18.7739 48.0823Z" fill="#1C468A"/>
<path d="M19.4753 56.5737H18.7739V56.7703H19.4753V56.5737Z" fill="#1C468A"/>
<path d="M19.4314 48.3057H18.8422V48.4648H19.4314V48.3057Z" fill="#1C468A"/>
<path d="M1.8146 50.6416C-0.405997 50.6416 -2.78575 50.5833 -5.32346 50.4486C-11.8333 50.103 -16.3493 49.4061 -16.3943 49.3992L-16.3276 48.9177C-16.283 48.9246 -11.7839 49.6187 -5.29453 49.9631C0.691637 50.2806 9.64355 50.3574 18.2985 48.9181L18.3692 49.3988C14.6884 50.0109 9.12066 50.6416 1.815 50.6416H1.8146Z" fill="#739AF0"/>
<path d="M37.8276 50.6416C35.607 50.6416 33.2272 50.5833 30.6895 50.4486C24.1797 50.103 19.6637 49.4061 19.6187 49.3992L19.6854 48.9177C19.73 48.9246 24.2291 49.6187 30.7185 49.9631C36.7046 50.2806 45.6565 50.3574 54.3114 48.9181L54.3822 49.3988C50.7014 50.0109 45.1336 50.6416 37.828 50.6416H37.8276Z" fill="#739AF0"/>
<path d="M73.8206 50.6416C71.6 50.6416 69.2202 50.5833 66.6825 50.4486C60.1727 50.103 55.6567 49.4061 55.6117 49.3992L55.6784 48.9177C55.723 48.9246 60.2221 49.6187 66.7114 49.9631C72.6976 50.2806 81.6495 50.3574 90.3044 48.9181L90.3752 49.3988C86.6944 50.0109 81.1266 50.6416 73.821 50.6416H73.8206Z" fill="#739AF0"/>
<path d="M17.9114 49.5176L17.8398 48.9401L18.667 48.8179L18.7249 49.3838L17.9114 49.5176Z" fill="#1C468A"/>
<path d="M19.0448 49.0501C19.0351 48.9778 18.9949 48.9183 18.9399 48.8849C18.8985 48.8588 18.8494 48.8475 18.7984 48.8556L18.6734 48.8757L18.4154 48.9155C18.4041 48.9175 18.3933 48.9203 18.3824 48.9235C18.3535 48.9331 18.3278 48.9488 18.3056 48.9689C18.2506 49.0188 18.2204 49.0967 18.2321 49.1779C18.2405 49.239 18.2715 49.2925 18.3185 49.3294C18.3322 49.3411 18.3466 49.3499 18.3631 49.3564H18.3635C18.3993 49.3728 18.4391 49.3789 18.4793 49.3724L18.7204 49.3343L18.8623 49.3122C18.89 49.3077 18.9162 49.2985 18.9399 49.2832C18.9652 49.2675 18.9873 49.247 19.005 49.2209C19.0391 49.1715 19.054 49.1104 19.0448 49.0497V49.0501ZM18.964 49.1888C18.9568 49.1988 18.9483 49.2081 18.9399 49.2161C18.9166 49.239 18.8868 49.2535 18.8551 49.2587L18.7148 49.2808L18.472 49.3198C18.4302 49.3262 18.3872 49.3154 18.3531 49.2888C18.3515 49.2876 18.3499 49.2872 18.3491 49.2856C18.3129 49.2579 18.29 49.2169 18.2827 49.1699C18.2755 49.1204 18.2892 49.073 18.3161 49.0364C18.3414 49.0011 18.3788 48.9766 18.423 48.9693L18.679 48.9283L18.8064 48.9086C18.8571 48.9006 18.9053 48.9179 18.9403 48.9516C18.9692 48.9774 18.9893 49.0147 18.9953 49.0577C19.0018 49.1036 18.9909 49.1502 18.9644 49.1884L18.964 49.1888Z" fill="#1C468A"/>
<path d="M55.3424 48.3721H54.9529V56.6873H55.3424V48.3721Z" fill="#1C468A"/>
<path d="M54.7874 48.0823C54.7874 47.8709 54.9485 47.6997 55.1475 47.6997C55.3464 47.6997 55.5076 47.8709 55.5076 48.0823C55.5076 48.2937 55.3464 48.465 55.1475 48.465C54.9485 48.465 54.7874 48.2937 54.7874 48.0823Z" fill="#1C468A"/>
<path d="M55.4888 56.5737H54.7874V56.7703H55.4888V56.5737Z" fill="#1C468A"/>
<path d="M55.4449 48.3057H54.8557V48.4648H55.4449V48.3057Z" fill="#1C468A"/>
<path d="M20.4749 48.9876L20.3824 49.5615L19.5581 49.4184L19.6606 48.8594L20.4749 48.9876Z" fill="#1C468A"/>
<path d="M20.0343 49.0388C20.0041 48.9954 19.9615 48.9653 19.9133 48.9516C19.9117 48.9504 19.9097 48.95 19.9076 48.95H19.906C19.9012 48.9488 19.8968 48.9476 19.8924 48.9468L19.6516 48.9078L19.5098 48.8845C19.4567 48.8761 19.4048 48.8877 19.3598 48.9179C19.3558 48.9203 19.3518 48.9235 19.3478 48.9271C19.3008 48.9637 19.2706 49.0171 19.2618 49.0774C19.2481 49.1707 19.2891 49.2595 19.3598 49.3069C19.3848 49.3238 19.4125 49.3359 19.4434 49.3407L19.5688 49.3608L19.6227 49.3692L19.8261 49.4022C19.8373 49.4042 19.8482 49.4058 19.8594 49.4058C19.9643 49.4058 20.0572 49.3234 20.074 49.2093C20.0825 49.149 20.0684 49.0875 20.0343 49.038V49.0388ZM20.0238 49.202C20.0097 49.2985 19.9253 49.3644 19.8345 49.3499L19.6307 49.3162L19.5789 49.3077L19.4519 49.2876C19.4161 49.2812 19.3848 49.2639 19.3606 49.2382C19.3237 49.2004 19.3048 49.145 19.3128 49.0863C19.3188 49.0485 19.3349 49.0135 19.3606 48.9878C19.3667 48.9818 19.3723 48.9761 19.3787 48.9713C19.4149 48.9432 19.4591 48.9319 19.5017 48.9392L19.642 48.9621H19.6424L19.6786 48.9685L19.8851 49.0019C19.929 49.0083 19.9675 49.0336 19.9937 49.0722C20.0198 49.11 20.0306 49.1566 20.0238 49.2028V49.202Z" fill="#1C468A"/>
<path d="M53.9244 49.5176L53.8529 48.9401L54.6805 48.8179L54.7379 49.3838L53.9244 49.5176Z" fill="#1C468A"/>
<path d="M55.0578 49.0501C55.0482 48.9778 55.008 48.9183 54.9529 48.8849C54.9115 48.8588 54.8625 48.8475 54.8115 48.8556L54.6865 48.8757L54.4284 48.9155C54.4172 48.9175 54.4063 48.9203 54.3955 48.9235C54.3665 48.9331 54.3408 48.9488 54.3187 48.9689C54.2636 49.0188 54.2335 49.0967 54.2452 49.1779C54.2536 49.239 54.2845 49.2925 54.3316 49.3294C54.3452 49.3411 54.3597 49.3499 54.3762 49.3564H54.3766C54.4124 49.3728 54.4521 49.3789 54.4923 49.3724L54.7335 49.3343L54.8754 49.3122C54.9031 49.3077 54.9292 49.2985 54.9529 49.2832C54.9783 49.2675 55.0004 49.247 55.018 49.2209C55.0522 49.1715 55.0671 49.1104 55.0578 49.0497V49.0501ZM54.9771 49.1888C54.9698 49.1988 54.9614 49.2081 54.9529 49.2161C54.9296 49.239 54.8999 49.2535 54.8681 49.2587L54.7279 49.2808L54.4851 49.3198C54.4433 49.3262 54.4003 49.3154 54.3661 49.2888C54.3645 49.2876 54.3629 49.2872 54.3621 49.2856C54.3259 49.2579 54.303 49.2169 54.2958 49.1699C54.2886 49.1204 54.3022 49.073 54.3292 49.0364C54.3545 49.0011 54.3919 48.9766 54.4361 48.9693L54.6921 48.9283L54.8195 48.9086C54.8701 48.9006 54.9184 48.9179 54.9533 48.9516C54.9823 48.9774 55.0024 49.0147 55.0084 49.0577C55.0148 49.1036 55.004 49.1502 54.9775 49.1884L54.9771 49.1888Z" fill="#1C468A"/>
<path d="M56.4678 48.9876L56.3754 49.5615L55.551 49.4184L55.6535 48.8594L56.4678 48.9876Z" fill="#1C468A"/>
<path d="M56.0273 49.0388C55.9971 48.9954 55.9545 48.9653 55.9063 48.9516C55.9047 48.9504 55.9027 48.95 55.9007 48.95H55.899C55.8938 48.9488 55.8898 48.9476 55.8854 48.9468L55.6446 48.9078L55.5028 48.8845C55.4497 48.8761 55.3979 48.8877 55.3528 48.9179C55.3488 48.9203 55.3448 48.9235 55.3408 48.9271C55.2938 48.9637 55.2636 49.0171 55.2552 49.0774C55.2415 49.1707 55.2825 49.2595 55.3532 49.3069C55.3782 49.3238 55.4059 49.3359 55.4368 49.3407L55.5618 49.3608L55.6157 49.3692L55.8191 49.4022C55.8303 49.4042 55.8412 49.4058 55.8524 49.4058C55.9573 49.4058 56.0502 49.3234 56.067 49.2093C56.0755 49.149 56.0614 49.0875 56.0273 49.038V49.0388ZM56.0168 49.202C56.0027 49.2985 55.9183 49.3644 55.8275 49.3499L55.6237 49.3162L55.5719 49.3077L55.4445 49.2876C55.4087 49.2812 55.3774 49.2639 55.3532 49.2382C55.3163 49.2004 55.2974 49.145 55.3054 49.0863C55.3114 49.0485 55.3275 49.0135 55.3532 48.9878C55.3593 48.9818 55.3649 48.9761 55.3713 48.9713C55.4075 48.9432 55.4517 48.9319 55.4943 48.9392L55.6346 48.9621H55.635L55.6712 48.9685L55.8777 49.0019C55.9216 49.0083 55.9601 49.0336 55.9863 49.0722C56.0124 49.11 56.0232 49.1566 56.0164 49.2028L56.0168 49.202Z" fill="#1C468A"/>
<path d="M14.8977 23.7115C14.8977 23.7115 12.6453 22.6291 9.73505 23.2236C9.73505 23.2236 13.0637 22.9961 15.0375 25.109C15.0375 25.109 16.4177 22.9921 18.6994 22.5069C18.6994 22.5069 16.9993 22.3044 14.8973 23.7115H14.8977Z" fill="#9FC1F4"/>
<path d="M8.54978 22.6916C8.54978 22.6916 6.8127 21.8444 4.55914 22.2909C4.55914 22.2909 7.13463 22.1302 8.65147 23.7732C8.65147 23.7732 9.72861 22.1422 11.4954 21.7773C11.4954 21.7773 10.1812 21.6129 8.54938 22.6916H8.54978Z" fill="#9FC1F4"/>
<path d="M2.94679 21.9193C2.94679 21.9193 1.33389 21.2155 -0.698608 21.7086C-0.698608 21.7086 1.63774 21.4631 3.08102 22.8991C3.08102 22.8991 3.9978 21.3743 5.591 20.9739C5.591 20.9739 4.38927 20.8751 2.94679 21.9193Z" fill="#9FC1F4"/>
<path d="M-0.194685 20.2986C-0.194685 20.2986 -1.32648 19.926 -2.66608 20.3866C-2.66608 20.3866 -1.10623 20.0735 -0.0423567 20.9509C-0.0423567 20.9509 0.479733 19.865 1.52874 19.4944C1.52874 19.4944 0.712041 19.5036 -0.194685 20.2986Z" fill="#9FC1F4"/>
<path d="M11.0506 16.3141C11.0506 16.3141 9.9397 15.8828 8.578 16.2731C8.578 16.2731 10.1523 16.042 11.1688 16.9736C11.1688 16.9736 11.7467 15.9162 12.8138 15.6011C12.8138 15.6011 11.9979 15.5677 11.0506 16.3145V16.3141Z" fill="#9FC1F4"/>
<path d="M16.5263 20.1525C16.5263 20.1525 14.9761 19.3708 12.9468 19.745C12.9468 19.745 15.2623 19.6313 16.6051 21.1252C16.6051 21.1252 17.5922 19.6731 19.1834 19.3664C19.1834 19.3664 18.005 19.2032 16.5263 20.1525Z" fill="#9FC1F4"/>
<path d="M14.3652 17.7269C14.3652 17.7269 12.9058 17.0589 11.0438 17.4753C11.0438 17.4753 13.1788 17.2896 14.4717 18.6228C14.4717 18.6228 15.333 17.247 16.7924 16.9078C16.7924 16.9078 15.698 16.7981 14.3652 17.7269Z" fill="#9FC1F4"/>
<path d="M48.3318 16.5115C46.3921 16.5115 44.8198 18.2027 44.8198 20.2883C44.8198 22.3738 48.3318 25.7074 48.3318 25.7074C48.3318 25.7074 51.8437 22.3738 51.8437 20.2883C51.8437 18.2027 50.2714 16.5115 48.3318 16.5115ZM48.3318 22.1359C47.1863 22.1359 46.2623 21.2119 46.2623 20.0664C46.2623 18.921 47.1863 17.997 48.3318 17.997C49.4772 17.997 50.4013 18.9262 50.4013 20.0664C50.4013 21.2067 49.472 22.1359 48.3318 22.1359Z" fill="#F78E48"/>
<path d="M48.3627 55.8359C48.3627 55.8359 48.2698 56.7294 48.4724 56.8255C48.675 56.9215 51.0692 56.8379 51.0692 56.8379C51.0692 56.8379 51.0627 56.5373 50.6492 56.479C50.2356 56.4207 49.5065 56.1908 49.3727 55.6478C49.2388 55.1045 48.3627 55.8359 48.3627 55.8359Z" fill="#182C4C"/>
<path d="M47.7952 33.1232C47.7952 33.1232 49.3635 33.737 49.5283 33.3849C49.552 33.243 49.5713 33.1132 49.5862 32.9974C49.6404 32.579 49.6424 32.3407 49.6424 32.3407L48.6075 31.5067L48.3756 31.3198C48.3824 31.5176 48.37 31.7012 48.3438 31.87C48.3418 31.8833 48.3398 31.8966 48.3378 31.9098C48.1698 32.9138 47.7952 33.1232 47.7952 33.1232Z" fill="#FFB27D"/>
<path d="M48.3297 31.894C48.3297 31.894 48.3325 31.8992 48.3381 31.9092C48.4032 32.0262 48.8493 32.7806 49.5864 32.9968C49.6407 32.5784 49.6427 32.3401 49.6427 32.3401L48.6078 31.5061C48.4711 31.6661 48.3783 31.8128 48.3441 31.8694C48.3349 31.8851 48.3297 31.894 48.3297 31.894Z" fill="#E8945B"/>
<path d="M49.9411 32.3174C49.9411 32.3174 48.329 32.585 48.1779 31.5786C48.0267 30.5722 47.7165 29.9292 48.7393 29.7154C49.7622 29.5019 50.0203 29.8556 50.1525 30.1792C50.2847 30.5027 50.3567 32.2213 49.9411 32.317V32.3174Z" fill="#FFB27D"/>
<path d="M48.4732 31.3191C48.4732 31.3191 48.2589 31.1029 48.3823 30.9666C48.5057 30.8304 48.5769 31.0382 48.6741 31.0313C48.7714 31.0249 48.9466 30.7395 48.9595 30.4799C48.9723 30.2206 49.9084 30.6165 50.2846 30.4932C50.6608 30.3698 50.9904 29.867 50.4024 29.5961C50.0567 29.4369 48.3293 28.6166 47.6734 29.4486C46.8374 30.5096 47.9539 31.6213 48.103 31.7901C48.2521 31.9589 48.3373 31.9091 48.3373 31.9091C48.3373 31.9091 48.6006 31.553 48.4724 31.3191H48.4732Z" fill="#2C3A64"/>
<path d="M47.6384 29.5464C47.6433 29.4685 47.6601 29.2631 47.7293 29.1377C47.7293 29.1377 47.7248 29.3495 47.7554 29.4576C47.7855 29.5657 47.6388 29.5464 47.6388 29.5464H47.6384Z" fill="#2C3A64"/>
<path d="M47.468 29.3737C47.468 29.3737 47.6709 29.3954 47.6838 29.5554L47.6102 29.6502C47.6102 29.6502 47.6235 29.4468 47.468 29.3733V29.3737Z" fill="#2C3A64"/>
<path d="M45.9781 55.8359C45.9781 55.8359 45.8824 56.7515 46.0842 56.8496C46.169 56.891 48.7831 56.8644 48.7831 56.8644C48.7831 56.8644 48.6786 56.5369 48.265 56.479C47.8514 56.4207 47.1224 56.1908 46.9885 55.6478C46.8547 55.1045 45.9785 55.8359 45.9785 55.8359H45.9781Z" fill="#233862"/>
<path d="M47.2184 42.1216C47.2184 42.1216 47.2205 42.2197 47.2245 42.3961C47.249 43.5339 47.3463 47.9333 47.4387 50.3858C47.4427 50.475 47.4459 50.5614 47.4491 50.6454C47.4508 50.6897 47.4528 50.7343 47.4544 50.7785C47.5098 51.9641 47.6706 53.1253 47.833 54.0537C48.0404 55.2378 48.2506 56.0444 48.2506 56.0444C49.0407 56.2044 49.5524 55.9041 49.5524 55.9041C49.5524 55.9041 49.7654 54.0662 49.8466 52.9541C49.8731 52.5931 50.0033 51.3617 50.1665 49.8633C50.2931 48.705 50.4394 47.3867 50.5737 46.1882C50.5809 46.1243 50.5877 46.0604 50.595 45.9977C50.8116 44.0596 50.9912 42.4809 50.9912 42.4809L49.5946 42.3479L47.2192 42.1216H47.2184Z" fill="#2B478B"/>
<path d="M47.8325 54.0542L50.166 49.8638C50.2926 48.7055 50.4389 47.3872 50.5731 46.1887C50.5804 46.1248 50.5872 46.0609 50.5944 45.9982C50.8111 44.0602 50.9907 42.4814 50.9907 42.4814L49.5941 42.3484L47.2244 42.397L47.8329 54.0546L47.8325 54.0542Z" fill="#233862"/>
<path d="M50.7324 42.4915C50.7324 42.4915 49.4266 48.9454 48.3631 52.0607C47.2992 55.1756 47.2859 56.0413 47.2859 56.0413C47.2859 56.0413 46.3097 56.2527 45.8796 56.0071C45.8796 56.0071 45.6341 50.1022 46.2775 48.5339C46.7032 47.4965 47.0291 45.2888 46.9182 44.4938C46.8077 43.6988 46.7044 42.104 46.7044 42.104L50.7324 42.4923V42.4915Z" fill="#2B478B"/>
<path d="M47.0516 42.8366C47.3603 43.0553 47.8466 43.134 48.3819 43.1256C49.0073 43.1155 49.6998 42.9865 50.2533 42.8209C50.5511 42.7321 50.8079 42.6324 50.9936 42.536C51.8203 42.1047 51.1692 35.6379 50.0708 33.8815C49.5676 33.0772 48.0419 32.8289 48.0419 32.8289C47.7951 32.947 47.1211 34.2328 47.0797 35.1214C47.0335 36.1085 47.1231 37.3528 47.1231 38.4879C47.1231 39.4259 46.9459 40.2555 46.8173 40.9436C46.6501 41.837 46.5641 42.4914 47.0516 42.8366Z" fill="#B64C41"/>
<path d="M48.3819 43.1256C49.0073 43.1156 49.6998 42.9866 50.2532 42.821C50.4864 42.2635 50.588 41.3327 50.373 39.7966C50.209 38.6254 49.0133 33.9141 49.0133 33.9141C48.0479 33.7883 46.0906 40.5309 48.3823 43.126L48.3819 43.1256Z" fill="#963333"/>
<path d="M48.1127 45.4501C48.1063 45.2093 48.2261 44.9855 48.4278 44.8536C48.755 44.6402 49.3128 44.3886 50.0797 44.4373C51.3743 44.5192 51.6617 45.2387 51.7027 45.7933C51.7436 46.348 52.1753 47.1494 52.2778 47.7659C52.3807 48.3825 52.5523 49.9504 51.6351 50.0733C50.7184 50.1963 47.6453 50.0733 47.6453 50.0733C47.6453 50.0733 46.9295 49.2341 47.6453 47.622C48.0701 46.6659 48.1232 45.8701 48.1123 45.4501H48.1127Z" fill="#D37129"/>
<path d="M48.5098 44.6207L48.7549 44.5785C48.7549 44.5785 48.7449 44.3555 48.8317 44.1879C48.8984 44.0597 49.0094 43.9873 49.1609 43.9757C49.3044 43.9636 49.4185 44.0167 49.4917 44.1344C49.5954 44.2996 49.5978 44.5508 49.5978 44.5536L49.8441 44.5552C49.8441 44.5379 49.8441 44.1284 49.6637 43.837C49.5399 43.6356 49.3663 43.5492 49.1484 43.5597C48.9254 43.5782 48.755 43.6995 48.6424 43.9206C48.4869 44.2257 48.5082 44.6055 48.5094 44.6211L48.5098 44.6207Z" fill="#D37129"/>
<path d="M47.0195 50.072C47.0195 50.072 50.093 50.197 51.0102 50.072C51.9274 49.9503 51.7565 48.3824 51.6512 47.7642C51.5492 47.1493 51.1187 46.3475 51.0761 45.7916C51.0697 45.6863 51.0532 45.5714 51.0202 45.4596C50.8888 44.9862 50.4977 44.5031 49.4556 44.4372C48.6863 44.3877 48.1308 44.6409 47.8021 44.8548C47.6015 44.9862 47.4801 45.2097 47.4866 45.4496C47.4866 45.499 47.4898 45.5581 47.4898 45.6172C47.4834 46.0677 47.3945 46.7844 47.0195 47.6224C46.3029 49.2332 47.0195 50.0717 47.0195 50.0717V50.072Z" fill="#F1A34F"/>
<path opacity="0.4" d="M51.2432 47.9917H49.4076C49.4076 47.9917 49.2842 49.3341 50.1608 49.3751C51.0374 49.4161 51.2705 48.8546 51.2428 47.9917H51.2432Z" fill="#D86713"/>
<path d="M51.2432 47.9917C51.2432 47.9917 50.9281 48.4712 50.353 48.4575C49.7778 48.4439 49.4077 47.9917 49.4077 47.9917H51.2432Z" fill="#D37129"/>
<path opacity="0.4" d="M49.0351 47.9917H47.1995C47.1995 47.9917 47.0761 49.3341 47.9527 49.3751C48.8293 49.4161 49.062 48.8546 49.0347 47.9917H49.0351Z" fill="#D86713"/>
<path d="M49.0351 47.9917C49.0351 47.9917 48.72 48.4712 48.1449 48.4575C47.5697 48.4439 47.2 47.9917 47.2 47.9917H49.0355H49.0351Z" fill="#D37129"/>
<path opacity="0.4" d="M47.4865 45.4501C47.4865 45.4995 47.4897 45.5586 47.4897 45.6177C47.8281 46.0417 48.4037 46.5513 49.1762 46.5252C50.4912 46.4858 51.0202 45.4601 51.0202 45.4601C50.8887 44.9867 50.4977 44.5036 49.4555 44.4377C48.6862 44.3882 48.1308 44.6414 47.802 44.8552C47.6015 44.9867 47.4801 45.2101 47.4865 45.4501Z" fill="#D86713"/>
<path d="M49.2179 46.793C49.3007 46.793 49.3686 46.7251 49.3686 46.6423V46.5052C49.3686 46.4224 49.3007 46.3545 49.2179 46.3545C49.1351 46.3545 49.0672 46.4224 49.0672 46.5052V46.6423C49.0672 46.7251 49.1351 46.793 49.2179 46.793Z" fill="#D86713"/>
<path d="M49.398 43.149C49.398 43.149 49.7971 43.9187 49.5974 44.2181C49.398 44.5175 48.685 44.1325 48.6283 43.9617C48.5713 43.7905 48.6283 42.9641 48.6283 42.9641L49.398 43.1494V43.149Z" fill="#DA935B"/>
<path d="M49.4623 43.126C49.4623 43.126 49.6416 43.2948 49.6537 43.4222C49.6657 43.55 49.8068 43.8301 49.7702 43.8559C49.6521 43.9387 49.4623 43.5966 49.4623 43.5966L49.3956 43.2192L49.4623 43.126Z" fill="#DA935B"/>
<path d="M47.3566 35.429C47.3566 35.429 47.5443 38.109 47.5419 39.2175C47.5395 40.326 48.4217 43.2748 48.4217 43.2748C48.4217 43.2748 49.0057 43.3214 49.2348 43.2921C49.4989 43.2579 49.656 43.137 49.656 43.137C49.656 43.137 49.4623 39.6531 49.8321 38.3176C50.2018 36.9824 50.2211 34.3004 50.2211 34.3004C50.2211 34.3004 50.0157 33.7212 48.7863 33.9041C47.3277 34.1207 47.3562 35.429 47.3562 35.429H47.3566Z" fill="#B64C41"/>
<path d="M11.2174 32.2699C11.2174 32.2699 10.0776 31.6698 8.44462 31.5496C7.56884 31.4853 6.75978 32.0255 6.48487 32.8599C6.46919 32.9081 6.45392 32.9579 6.43945 33.0098C6.05562 34.3896 6.26502 38.5663 7.55558 39.6563C8.84614 40.7459 11.2174 40.2861 11.2174 40.2861V32.2703V32.2699Z" fill="#233862"/>
<path d="M14.7753 42.0041C14.7753 42.0041 14.637 43.7308 14.4742 45.8063C14.2532 48.6257 13.4116 55.6508 13.4116 55.6508C13.4116 55.6508 13.59 55.931 12.7239 55.7485C12.7239 55.7485 11.6628 53.3555 11.4426 50.6032C11.4389 50.5581 11.4357 50.5127 11.4325 50.4673C11.2275 47.6655 10.9088 41.7654 10.9088 41.7654L14.7757 42.0045L14.7753 42.0041Z" fill="#2B478B"/>
<path d="M14.8222 41.4077C14.8222 41.4077 14.6365 43.7308 14.4737 45.8063L11.4421 50.6032C11.4385 50.5582 11.4352 50.5128 11.432 50.4673C11.227 47.6656 10.9083 41.7654 10.9083 41.7654L14.8222 41.4081V41.4077Z" fill="#233862"/>
<path d="M14.1462 40.9705L8.93531 55.9629C8.93531 55.9629 8.39031 55.8604 8.26812 55.6192C8.26812 55.6192 8.11821 49.279 9.00082 47.7493C9.4996 46.8848 9.75361 44.462 9.78818 43.6417C9.89107 41.2041 10.1499 40.5437 10.1499 40.5437L14.1458 40.9705H14.1462Z" fill="#2B478B"/>
<path d="M12.6004 56.8788H13.0248C13.1671 56.8563 13.272 56.8153 13.4175 56.7964C13.6389 56.7675 13.7406 56.8583 13.7611 56.8788C13.7639 56.8816 13.7651 56.8832 13.7651 56.8832H15.5673C15.6128 56.8185 15.5693 56.6686 15.5263 56.5581C15.4978 56.4829 15.4351 56.4262 15.3575 56.4037C15.1666 56.3483 14.7896 56.2992 14.4448 55.9869C14.2507 55.8117 13.5075 55.3419 13.5075 55.3419L13.5035 55.3411C13.487 55.3411 13.4094 55.3652 13.0714 55.6505C12.8966 55.7976 12.5988 55.4423 12.5988 55.4423C12.5988 55.4423 12.5429 55.4886 12.5011 55.5746C12.4677 55.6425 12.4432 55.7361 12.4625 55.8511C12.4894 56.0135 12.4026 56.3153 12.3335 56.5195C12.2913 56.6433 12.2559 56.7309 12.2559 56.7309C12.2559 56.7309 12.2358 56.833 12.6008 56.8784L12.6004 56.8788Z" fill="#233862"/>
<path d="M12.6005 56.885H13.0229C13.1652 56.8625 13.2709 56.8154 13.4168 56.7965C13.6382 56.7676 13.7399 56.8584 13.7604 56.8789C13.7632 56.8817 13.7644 56.8834 13.7644 56.8834H15.5666C15.612 56.8186 15.5686 56.6687 15.5256 56.5582C15.471 56.5096 15.4553 56.7696 15.4251 56.811C15.395 56.8524 13.9549 56.8263 13.8717 56.7656C13.7885 56.7053 13.5389 56.5992 13.1913 56.6824C12.8886 56.7547 12.4425 56.5695 12.3324 56.52C12.2902 56.6438 12.2548 56.7314 12.2548 56.7314C12.2548 56.7314 12.2355 56.8395 12.6005 56.885Z" fill="#233862"/>
<path d="M8.26774 56.8788H8.69216C8.83444 56.8563 8.93934 56.8153 9.08483 56.7964C9.30629 56.7675 9.40798 56.8583 9.42847 56.8788C9.43129 56.8816 9.43249 56.8832 9.43249 56.8832H11.2347C11.2801 56.8185 11.2367 56.6686 11.1937 56.5581C11.1652 56.4829 11.1025 56.4262 11.0249 56.4037C10.834 56.3483 10.457 56.2992 10.1121 55.9869C9.91801 55.8117 9.17486 55.3419 9.17486 55.3419L9.17085 55.3411C9.15437 55.3411 9.0768 55.3652 8.73878 55.6505C8.56395 55.7976 8.26613 55.4423 8.26613 55.4423C8.26613 55.4423 8.21026 55.4886 8.16846 55.5746C8.1351 55.6425 8.11059 55.7361 8.12988 55.8511C8.15681 56.0135 8.06999 56.3153 8.00086 56.5195C7.95866 56.6433 7.92329 56.7309 7.92329 56.7309C7.92329 56.7309 7.9032 56.833 8.26814 56.8784L8.26774 56.8788Z" fill="#233862"/>
<path d="M8.26855 56.885H8.69097C8.83325 56.8625 8.93895 56.8154 9.08485 56.7965C9.30631 56.7676 9.40799 56.8584 9.42849 56.8789C9.4313 56.8817 9.43251 56.8834 9.43251 56.8834H11.2347C11.2801 56.8186 11.2367 56.6687 11.1937 56.5582C11.1391 56.5096 11.1234 56.7696 11.0932 56.811C11.0631 56.8524 9.62302 56.8263 9.53982 56.7656C9.45662 56.7053 9.20703 56.5992 8.85937 56.6824C8.55673 56.7547 8.1106 56.5695 8.00048 56.52C7.95827 56.6438 7.92291 56.7314 7.92291 56.7314C7.92291 56.7314 7.90361 56.8395 8.26855 56.885Z" fill="#233862"/>
<path d="M10.9437 32.0292C10.9437 32.0292 12.6322 32.8603 13.608 32.5525C13.608 32.5525 13.3681 32.2458 12.9489 32.0151C12.9726 31.8732 12.9919 31.7434 13.0072 31.6276C13.0614 31.2092 13.0634 30.9713 13.0634 30.9713L12.0285 30.1373L11.7966 29.9504C11.8034 30.1482 11.791 30.3319 11.7648 30.5007C11.7628 30.5139 11.7608 30.5272 11.7588 30.5405C11.5908 31.5444 10.9437 32.0296 10.9437 32.0296V32.0292Z" fill="#FFB27D"/>
<path d="M9.97996 40.8694C9.97513 40.9771 10.1966 41.0953 10.2926 41.1383C10.7195 41.3296 11.1294 41.4867 11.5494 41.5985C11.8428 41.6764 12.1411 41.7323 12.4542 41.7625C13.3585 41.8553 14.4268 41.6515 14.7933 41.6568C14.8323 41.6568 14.8665 41.6419 14.8958 41.6178C14.9203 41.5981 14.9396 40.4936 14.9203 39.101C14.9203 39.0475 14.9203 38.9884 14.9155 38.9346V38.9153C14.9107 38.3727 14.8906 37.8012 14.8665 37.2341C14.813 35.9829 14.7153 34.7759 14.549 34.1063C14.3536 33.3198 13.6145 32.3347 13.1234 32.065C12.7078 31.8367 11.3425 31.5976 11.2737 31.6466C10.4723 32.2454 10.0306 34.0167 10.0382 36.0279C10.0382 36.0914 10.039 36.1553 10.0398 36.2192C10.0435 36.427 10.0511 36.6368 10.0628 36.8482C10.15 38.3321 10.0603 39.6186 10.0093 40.3666C9.99442 40.5816 9.98277 40.7524 9.97955 40.8702L9.97996 40.8694Z" fill="#F99746"/>
<path d="M11.7504 30.5247C11.7504 30.5247 11.7532 30.5299 11.7588 30.5399C11.8243 30.6569 12.2704 31.4113 13.0076 31.6275C13.0618 31.2091 13.0638 30.9712 13.0638 30.9712L12.0289 30.1372C11.8922 30.2972 11.7994 30.4439 11.7652 30.5005C11.7556 30.5162 11.7508 30.5251 11.7508 30.5251L11.7504 30.5247Z" fill="#E8945B"/>
<path d="M13.3621 30.9475C13.3621 30.9475 11.75 31.2152 11.5989 30.2088C11.4478 29.2024 11.1375 28.5593 12.1604 28.3455C13.1832 28.1321 13.4413 28.4857 13.5735 28.8093C13.7057 29.1328 13.7777 30.8514 13.3621 30.9471V30.9475Z" fill="#FFB27D"/>
<path d="M11.8939 29.9496C11.8939 29.9496 11.6797 29.7334 11.803 29.5971C11.9264 29.4609 11.9976 29.6686 12.0948 29.6618C12.1921 29.6554 12.3673 29.37 12.3802 29.1104C12.3931 28.8511 13.3291 29.247 13.7053 29.1236C14.0815 29.0003 14.4111 28.4975 13.8231 28.2266C13.4774 28.0674 11.75 27.2471 11.0941 28.0795C10.2581 29.1405 11.3746 30.2522 11.5237 30.421C11.6728 30.5898 11.758 30.54 11.758 30.54C11.758 30.54 12.0213 30.1839 11.8935 29.95L11.8939 29.9496Z" fill="#2C3A64"/>
<path d="M11.0594 28.1766C11.0643 28.0986 11.0812 27.8932 11.1503 27.7678C11.1503 27.7678 11.1459 27.9796 11.1764 28.0877C11.2066 28.1959 11.0599 28.1766 11.0599 28.1766H11.0594Z" fill="#2C3A64"/>
<path d="M10.8886 28.0043C10.8886 28.0043 11.092 28.026 11.1044 28.186L11.0309 28.2808C11.0309 28.2808 11.0442 28.0775 10.8886 28.0039V28.0043Z" fill="#2C3A64"/>
<path d="M10.0049 37.1255L9.95507 36.8181C10.7022 36.6967 11.3067 36.3378 11.752 35.751C12.088 35.3081 12.3248 34.7277 12.4011 34.159C12.5494 33.0569 12.2593 32.4295 11.5145 32.241C10.8473 32.0722 10.076 32.5935 10.0684 32.5987L9.89197 32.3423C9.92814 32.3174 10.7854 31.7354 11.5909 31.9392C12.2187 32.0979 12.9224 32.6192 12.7098 34.2004C12.6608 34.5649 12.5032 35.2759 12.0004 35.9391C11.5053 36.5918 10.8341 36.9909 10.0053 37.1255H10.0049Z" fill="#233862"/>
<path d="M12.9453 38.9611C12.9453 38.9611 13.1583 38.853 13.2744 38.8007C13.3906 38.7485 13.6169 38.609 13.6345 38.7079C13.6518 38.8068 13.7451 38.9981 13.53 39.033C13.315 39.068 12.9453 38.9611 12.9453 38.9611Z" fill="#FFB27D"/>
<path d="M14.3499 38.2462L14.2027 38.2024C14.1291 38.1805 14.0871 38.1031 14.109 38.0295L14.1366 37.9367C14.1585 37.8631 14.236 37.8207 14.31 37.8427L14.4572 37.8864C14.5308 37.9083 14.5731 37.9859 14.5511 38.0598L14.5236 38.1527C14.5017 38.2263 14.4241 38.2686 14.3501 38.2467L14.3499 38.2462Z" fill="#415DA5"/>
<path d="M13.7073 38.1183L13.186 39.8743C13.1507 39.9932 13.219 40.1194 13.338 40.1544L14.0043 40.3521C14.1233 40.3875 14.2495 40.3192 14.2845 40.2002L14.8058 38.4442C14.8411 38.3253 14.7728 38.1995 14.6538 38.1641L13.9875 37.9664C13.8685 37.931 13.7423 37.9993 13.7073 38.1183Z" fill="#CADEFF"/>
<path d="M13.686 38.1894L13.1856 39.8742C13.1502 39.9932 13.2186 40.1194 13.3375 40.1543L14.0039 40.3521C14.1229 40.3875 14.2491 40.3191 14.284 40.2002L14.774 38.5499C14.6755 38.5169 14.4492 38.4486 14.2865 38.4599C14.1277 38.4707 13.8287 38.285 13.686 38.189V38.1894Z" fill="#86B1FC"/>
<path d="M13.3115 39.448L14.4108 39.7744L14.7378 38.6733L13.6386 38.3468L13.3115 39.448Z" fill="#415DA5"/>
<path d="M13.9299 38.9182C13.6309 38.8435 13.3616 39.0268 12.9452 38.9608C12.9452 38.9608 10.8834 37.5143 10.5221 37.153C10.2604 36.8914 11.3098 35.7121 11.8564 34.7962C11.8283 34.7922 11.8002 34.7825 11.7732 34.7668C11.3552 34.5193 10.5156 34.0695 9.82273 33.9984C9.7962 33.996 9.77168 33.9883 9.74918 33.9783C9.30506 34.9372 8.84848 36.1768 8.70942 37.4336C8.69173 37.5931 8.75483 37.7507 8.87621 37.8556C9.38464 38.2949 10.7785 39.073 12.4541 39.5553C12.4541 39.5553 12.8287 39.8077 13.1856 39.8744C13.5449 39.9415 13.6932 39.7422 14.2149 40.0424C14.4552 40.1807 14.5308 39.8861 14.5015 39.7337C14.4613 39.5275 14.2631 39.0022 13.9295 38.9186L13.9299 38.9182Z" fill="#FFB27D"/>
<path d="M10.709 32.2954C10.709 32.2954 9.85609 33.129 9.45337 34.3058C9.45337 34.3058 10.2528 35.0027 11.7499 35.1418C11.7499 35.1418 12.3645 34.0116 11.9155 33.4385C11.4666 32.8657 10.709 32.2954 10.709 32.2954Z" fill="#F99746"/>
<path d="M69.6997 51.2832C69.6921 50.9954 69.8351 50.7277 70.0763 50.5706C70.4674 50.3158 71.1337 50.0147 72.0501 50.073C73.5967 50.1711 73.9403 51.0304 73.9898 51.6935C74.0388 52.3563 74.5545 53.3141 74.677 54.0504C74.7996 54.7871 75.005 56.6604 73.9094 56.8075C72.8138 56.9546 69.1418 56.8075 69.1418 56.8075C69.1418 56.8075 68.2862 55.8047 69.1418 53.8784C69.6495 52.7357 69.713 51.7848 69.6997 51.2832Z" fill="#5D8FE8"/>
<path d="M68.9526 51.2832C68.9449 50.9954 69.088 50.7277 69.3292 50.5706C69.7202 50.3158 70.3866 50.0147 71.303 50.073C72.8496 50.1711 73.1932 51.0304 73.2426 51.6935C73.2917 52.3563 73.8073 53.3141 73.9299 54.0504C74.0525 54.7871 74.2579 56.6604 73.1622 56.8075C72.0666 56.9546 68.3947 56.8075 68.3947 56.8075C68.3947 56.8075 67.539 55.8047 68.3947 53.8784C68.9023 52.7357 68.9658 51.7848 68.9526 51.2832Z" fill="#739AF0"/>
<path d="M70.7351 54.3206H68.5418C68.5418 54.3206 68.3943 55.9246 69.4421 55.9736C70.4899 56.0227 70.7681 55.3519 70.7351 54.3206Z" fill="#5D8FE8"/>
<path d="M70.7351 54.3206C70.7351 54.3206 70.3585 54.8933 69.6712 54.8768C68.9839 54.8603 68.5418 54.3206 68.5418 54.3206H70.7351Z" fill="#739AF0"/>
<path d="M70.4067 53.0807H71.5731C72.1133 53.0807 72.555 52.6386 72.555 52.0988C72.555 51.5587 72.1129 51.1169 71.5731 51.1169H70.4067C69.8666 51.1169 69.4249 51.5587 69.4249 52.0988C69.4249 52.639 69.867 53.0807 70.4067 53.0807Z" fill="#5D8FE8"/>
<path d="M72.465 51.0366C72.465 51.0366 71.9433 51.8308 70.9903 51.8079C70.0374 51.7854 69.4249 51.0366 69.4249 51.0366H72.465Z" fill="#739AF0"/>
<path d="M64.6232 55.6666C64.6232 55.6666 64.6943 56.8108 64.9154 56.8273C64.9447 56.8293 66.0383 56.8293 66.0383 56.8293L67.4342 56.8213C67.4342 56.8213 67.4249 56.4849 67.017 56.4137C66.609 56.3426 65.9262 56.056 65.679 55.5166C65.419 54.9491 64.6232 55.6662 64.6232 55.6662V55.6666Z" fill="#163560"/>
<path d="M64.5427 55.7463C64.5427 55.7463 64.9671 55.8882 65.2983 55.8882C65.6677 55.8882 66.0037 55.7877 66.0037 55.7877C66.0037 55.7877 66.0837 55.0152 66.5234 53.3131C66.7537 52.4208 67.0828 51.2738 67.5511 49.8482C68.8457 45.9086 69.2395 43.604 69.2753 43.3857C69.2773 43.3741 69.2781 43.3684 69.2781 43.3684L69.2737 43.3664L65.2931 41.6189C65.2931 41.6189 65.785 47.0484 65.1573 49.1323C65.0692 49.4237 64.9941 49.763 64.9294 50.1307C64.5331 52.3943 64.5423 55.7459 64.5423 55.7459L64.5427 55.7463Z" fill="#F99746"/>
<path d="M64.9302 50.1306L66.5234 53.3126C66.7537 52.4203 67.0829 51.2733 67.5511 49.8477C68.8457 45.9081 69.2395 43.6035 69.2753 43.3852C69.2753 43.3788 69.2745 43.3728 69.2737 43.3659L65.2931 41.6184C65.2931 41.6184 65.7851 47.0479 65.1573 49.1319C65.0692 49.4233 64.9941 49.7625 64.9294 50.1302L64.9302 50.1306Z" fill="#E58638"/>
<path d="M67.7324 55.6666C67.7324 55.6666 67.8035 56.8108 68.0245 56.8273C68.0539 56.8293 69.1475 56.8293 69.1475 56.8293L70.5434 56.8213C70.5434 56.8213 70.5341 56.4849 70.1262 56.4137C69.7182 56.3426 69.0354 56.056 68.7882 55.5166C68.5281 54.9491 67.7324 55.6662 67.7324 55.6662V55.6666Z" fill="#163560"/>
<path d="M69.9892 41.7466C69.9892 41.7466 70.041 45.265 69.4321 49.5852C68.8232 53.905 69.0298 55.7389 69.0298 55.7389C69.0298 55.7389 68.6114 55.8744 68.4426 55.8881C68.0125 55.923 67.5716 55.7872 67.5716 55.7872C67.5716 55.7872 66.7003 51.4654 66.9502 49.3034C67.1998 47.1411 65.757 41.8836 65.757 41.8836L69.9892 41.7466Z" fill="#F99746"/>
<path d="M66.773 33.4031C66.773 33.4031 64.7557 35.4617 64.6557 36.2736C64.5556 37.0854 65.6476 38.3551 65.6476 38.3551L66.773 33.4031Z" fill="#5D8FE8"/>
<path d="M67.1664 33.5129L67.9434 34.0221L69.0659 33.8127C69.0502 33.7223 68.9763 33.3465 68.9088 33.006C68.9047 32.9859 68.9007 32.9658 68.8967 32.9461C68.8388 32.6568 68.789 32.408 68.789 32.408L67.7404 31.9454L67.3493 31.7729C67.3505 31.779 67.3795 32.0941 67.3839 32.1403C67.4574 32.9574 67.1664 33.5124 67.1664 33.5124V33.5129Z" fill="#FFB27D"/>
<path d="M68.7785 33.2556C68.7568 33.2463 67.5081 32.7902 67.3634 32.838C67.2187 32.8858 66.9398 33.2733 66.9398 33.2733L69.2275 33.721C69.2275 33.721 69.0563 33.3729 68.7781 33.256L68.7785 33.2556Z" fill="#5D8FE8"/>
<path d="M65.1966 42.1806C65.4221 43.2091 69.1744 43.3313 70.1418 42.3976C70.252 42.2911 70.2572 41.796 70.2158 41.1284C70.1346 39.8242 69.8741 37.862 69.8637 36.8596C69.8589 36.3757 69.7922 35.8805 69.7037 35.4308C69.5152 34.4726 69.2279 33.7206 69.2279 33.7206C69.2279 33.7206 67.3951 33.1282 67.0523 33.2291C65.4 33.7146 64.9716 41.1521 65.197 42.1806H65.1966Z" fill="#739AF0"/>
<path d="M70.2158 41.1284C70.1346 39.8242 69.8742 37.8621 69.8637 36.8597C69.8589 36.3758 69.7922 35.8806 69.7038 35.4309L68.6013 35.2363C68.6013 35.2363 67.5234 39.6393 70.2158 41.1284Z" fill="#5D8FE8"/>
<path d="M67.4627 32.1553C67.693 32.5452 68.5511 32.8828 68.9088 33.0066C68.9047 32.9865 68.9007 32.9664 68.8967 32.9467C68.8388 32.6573 68.789 32.4085 68.789 32.4085L67.7404 31.9459C67.5085 31.9427 67.3674 31.9946 67.4627 32.1553Z" fill="#FCA56B"/>
<path d="M69.1845 32.3448C69.1845 32.3448 67.4956 32.8718 67.1834 31.8147C66.8715 30.7577 66.4434 30.1142 67.5085 29.7328C68.5736 29.3518 68.9032 29.693 69.0933 30.0202C69.283 30.3477 69.6158 32.1801 69.1845 32.3444V32.3448Z" fill="#FFB27D"/>
<path d="M69.0269 29.9185C69.0269 29.9185 68.9192 31.1484 68.6648 31.095C68.4104 31.0415 68.1797 31.0021 68.217 31.3727C68.2544 31.7433 68.2166 32.2657 67.4325 32.3313C66.6488 32.3968 65.9124 30.2811 66.1275 29.8985C66.7488 28.794 69.9248 28.5713 69.0265 29.9185H69.0269Z" fill="#163560"/>
<path d="M69.7162 39.1463C69.7162 39.1463 69.8621 39.4667 69.9931 39.5342C70.1607 39.6202 70.2729 39.7488 70.2873 39.8051C70.3343 39.9896 70.3143 40.3336 70.1696 40.5177C70.0731 40.6403 70.1756 40.09 69.6551 39.965C69.4871 39.9244 69.2464 39.7978 69.2448 39.5627C69.2423 39.2846 69.2757 39.0752 69.2757 39.0752L69.7162 39.1467V39.1463Z" fill="#FFB27D"/>
<path d="M69.2789 39.7075C69.2789 39.7075 69.5385 40.304 69.6097 40.2811C69.7885 40.2232 69.5912 40.0138 69.6057 39.8454C69.6153 39.7328 69.2785 39.7075 69.2785 39.7075H69.2789Z" fill="#FFB27D"/>
<path d="M68.3859 33.457C68.3859 33.457 69.461 33.6584 70.3179 34.9208C71.1748 36.1832 71.7383 37.1221 71.5803 37.5771C71.4224 38.0321 70.3637 39.6104 70.1157 39.6104C69.8677 39.6104 69.2106 39.444 69.1881 39.0381C69.1881 39.0381 69.8971 37.4658 69.7934 37.1816C69.6816 36.8761 68.5635 36.1832 68.3883 36.6342C68.0977 37.3801 68.3863 33.457 68.3863 33.457H68.3859Z" fill="#739AF0"/>
<path d="M94.4016 56.9998H-23.845C-23.9081 56.9998 -23.9595 56.9484 -23.9595 56.8853C-23.9595 56.8222 -23.9081 56.7708 -23.845 56.7708H94.4016C94.4647 56.7708 94.5162 56.8222 94.5162 56.8853C94.5162 56.9484 94.4647 56.9998 94.4016 56.9998Z" fill="#2E3552"/>
<path d="M30.5976 41.1655C30.5976 41.1655 30.6912 41.274 30.7451 41.3396C30.7994 41.4055 30.8653 41.6571 30.8303 41.6997C30.7953 41.7423 30.5747 41.8042 30.567 41.6727C30.5594 41.5409 30.5976 41.1655 30.5976 41.1655Z" fill="#FFB27D"/>
<path d="M38.7847 40.1306C38.7847 40.1306 38.9872 40.5868 39.3731 40.6792C39.8449 40.7918 40.0511 41.385 40.0511 41.5208C40.0511 41.6567 39.4474 41.2146 39.2095 41.2061C38.9716 41.1977 38.8437 41.3191 38.6826 41.0036C38.521 40.6877 38.3168 40.3818 38.3168 40.3818L38.7843 40.131L38.7847 40.1306Z" fill="#FFB27D"/>
<path d="M32.7559 40.3188C32.9701 40.3188 33.159 40.2758 33.3234 40.1938C35.3644 39.1805 33.4697 32.2185 33.4697 32.2185C33.4697 32.2185 33.3861 31.8729 33.0023 31.7366C32.8608 31.6864 32.5461 31.6924 32.1707 31.6651C30.9501 31.5763 30.8898 32.2897 30.8468 32.5392C30.8006 32.7925 29.8299 40.3039 32.7559 40.3184V40.3188Z" fill="#2B478B"/>
<path d="M33.3234 40.1937C35.3643 39.1805 33.4697 32.2185 33.4697 32.2185C33.4697 32.2185 33.3732 31.9042 33.0023 31.7366C32.2137 31.9436 32.0497 32.3181 32.0067 32.5396C31.9673 32.7751 31.1325 39.2231 33.3234 40.1937Z" fill="#233862"/>
<path d="M34.8286 55.748C34.8286 55.748 34.7152 56.6555 34.9194 56.7576C35.1236 56.8597 37.5624 56.8255 37.5624 56.8255C37.5624 56.8255 37.5624 56.5192 37.1428 56.4513C36.7232 56.3834 35.9857 56.1338 35.8611 55.578C35.7365 55.0221 34.829 55.748 34.829 55.748H34.8286Z" fill="#233862"/>
<path d="M37.0344 41.8913C37.0344 41.8913 36.8965 43.6107 36.7345 45.6777C36.5143 48.4855 36.2494 51.9344 36.2233 52.5875C36.1779 53.7221 35.9962 55.5368 35.9962 55.5368C35.9962 55.5368 35.5654 55.968 34.7032 55.7864C34.7032 55.7864 33.9348 53.1956 33.7153 50.4549C33.7121 50.4099 33.7085 50.3649 33.7053 50.3195C33.5011 47.529 33.1836 41.6533 33.1836 41.6533L37.0344 41.8917V41.8913Z" fill="#2B478B"/>
<path d="M37.0344 41.8914C37.0344 41.8914 36.8965 43.6108 36.7345 45.6779L33.7153 50.4547C33.7121 50.4097 33.7085 50.3646 33.7053 50.3192C33.5011 47.5287 33.1836 41.6531 33.1836 41.6531L37.0344 41.8914Z" fill="#233862"/>
<path d="M36.4049 42.0956C36.4049 42.0956 33.9207 48.3229 32.2873 51.2493C30.6539 54.1757 30.1434 54.9923 30.1434 54.9923C30.1434 54.9923 29.2078 54.6182 29.1226 54.3629C29.1226 54.3629 29.7471 48.7132 30.8412 47.3362C31.4593 46.5581 32.1852 44.2226 32.2193 43.4059C32.2535 42.5892 32.4404 40.9727 32.4404 40.9727L36.4049 42.0956Z" fill="#2B478B"/>
<path d="M35.7867 32.9867C34.8157 33.293 33.1365 32.4658 33.1365 32.4658C33.1365 32.4658 33.7635 31.9952 33.9411 31.0221C33.9411 31.0221 33.9407 31.0221 33.9411 31.0217C33.9749 30.8332 33.9922 30.625 33.9849 30.3979L34.8933 31.1302L35.2453 31.414C35.2453 31.414 35.2445 31.5101 35.2297 31.6873C35.2152 31.8658 35.1871 32.1258 35.1316 32.4526C35.5484 32.6816 35.7871 32.9871 35.7871 32.9871L35.7867 32.9867Z" fill="#FFB27D"/>
<path d="M38.7964 40.6891C39.0126 40.5114 39.056 40.374 39.056 40.374C39.056 40.374 37.3004 37.9689 37.1525 37.7342C37.0046 37.4994 35.8982 33.7347 35.8982 33.7347L33.1004 33.168C33.1004 33.168 35.436 37.9862 35.8226 38.5734C36.462 39.544 38.4704 40.8675 38.4704 40.8675C38.4704 40.8675 38.6372 40.8201 38.7968 40.6891H38.7964Z" fill="#ED7D2B"/>
<path d="M32.2531 41.2609C32.2495 41.318 32.3138 41.3823 32.3885 41.4321C32.4492 41.4751 32.5208 41.5069 32.5634 41.5286C32.7776 41.625 32.9882 41.7107 33.1952 41.7854C33.6911 41.9707 34.1799 42.0957 34.7116 42.1459C35.2791 42.203 35.9105 42.1459 36.3924 42.0997C36.6637 42.0676 36.8848 42.0426 37.0206 42.0426H37.0383C37.0777 42.0426 37.1131 42.0282 37.142 42.0033C37.1633 41.9888 37.1814 41.1395 37.1705 39.9977C37.1705 39.8369 37.1669 39.6729 37.1669 39.5017C37.1669 39.4483 37.1669 39.3876 37.1597 39.3341V39.316C37.1561 38.7807 37.1384 38.2136 37.1131 37.6533V37.6424C37.0596 36.3973 36.9631 35.198 36.7955 34.5308C36.6436 33.9147 36.0343 33.2226 35.5838 32.77C35.3784 32.5638 35.1264 32.4115 34.8487 32.3251C34.368 32.1752 33.6248 31.9738 33.4697 32.108C33.3519 32.2009 33.245 32.3186 33.1485 32.4577C33.1437 32.4601 33.1413 32.4625 33.1413 32.4649H33.1377C33.0593 32.5791 32.9842 32.7073 32.9162 32.8504C32.8057 33.0751 32.7129 33.3355 32.6309 33.6249C32.413 34.4062 32.3061 35.3913 32.3097 36.4439C32.3097 36.7116 32.317 36.9825 32.3347 37.2574C32.3383 37.3362 32.3419 37.4109 32.3455 37.4857C32.3777 38.1674 32.3741 38.7988 32.3564 39.3518V39.3695C32.3387 39.9298 32.3065 40.4044 32.2816 40.7577C32.2671 40.9719 32.2567 41.1432 32.2531 41.2609Z" fill="#F99746"/>
<path d="M32.2808 40.7589C32.3319 40.015 32.4207 38.7353 32.3339 37.2594C32.3182 36.9845 32.3102 36.712 32.309 36.4435C32.6409 35.6381 32.9126 35.0537 32.9126 35.0537H33.7498C33.7498 35.0537 34.3636 39.2453 32.2808 40.7589Z" fill="#ED7D2B"/>
<path d="M35.245 31.4138C35.245 31.4138 35.2442 31.5099 35.2293 31.6871C34.507 31.6027 33.9596 31.0421 33.9411 31.0224H33.9407L33.9411 31.022L34.8929 31.1301L35.245 31.4138Z" fill="#E8945B"/>
<path d="M35.542 31.3906C35.542 31.3906 33.9387 31.657 33.788 30.6559C33.6377 29.6547 33.329 29.0148 34.3467 28.8026C35.3639 28.5904 35.6208 28.9421 35.7522 29.264C35.8836 29.586 35.9551 31.2953 35.542 31.3906Z" fill="#FFB27D"/>
<path d="M33.7864 30.5594C33.7864 30.5594 33.9508 30.5321 33.9243 30.3054C33.8977 30.0787 33.8981 29.7825 34.0822 29.8376C34.2667 29.8926 34.2755 30.0401 34.3515 29.9541C34.4271 29.8681 34.4287 29.5052 34.9769 29.4799C35.5251 29.4545 35.7482 29.6454 36.003 29.5333C36.2578 29.4212 36.2715 29.0353 36.2715 29.0353C36.2715 29.0353 36.1991 29.1732 36.0894 29.217C36.0894 29.217 36.5146 28.635 36.0223 28.2363C35.5299 27.8372 35.0275 28.0985 34.7426 28.1157C34.1148 28.1539 33.7088 28.1913 33.5039 28.6041C33.2989 29.0168 33.3833 30.1623 33.7864 30.5594Z" fill="#2B478B"/>
<path d="M25.3068 55.9409C25.4402 56.2439 25.2955 56.5952 24.9836 56.7246C24.6713 56.8544 24.3104 56.7137 24.1766 56.4107C24.0431 56.1076 24.1878 55.7564 24.4997 55.627C24.812 55.4971 25.1729 55.6378 25.3068 55.9409Z" fill="#1C468A"/>
<path d="M29.7162 55.9404C29.8496 56.2434 29.7049 56.5947 29.393 56.7241C29.0807 56.8539 28.7198 56.7133 28.586 56.4102C28.4525 56.1072 28.5972 55.7559 28.9091 55.6265C29.2214 55.4966 29.5823 55.6373 29.7162 55.9404Z" fill="#1C468A"/>
<path d="M24.0355 55.8669L24.9096 56.172C24.9981 56.2029 25.0913 56.2182 25.1853 56.217L30.145 56.1676L30.6864 55.2954L24.0355 55.8665V55.8669Z" fill="#DD772A"/>
<path d="M26.8525 46.2347L28.2379 42.8891L28.2395 42.8827C28.248 42.8525 28.4634 42.1343 29.7122 41.9736L29.7178 41.9728L30.7447 41.7847C30.8773 41.7509 31.2608 41.6938 31.4364 41.8377C31.5144 41.9016 31.5457 42.0013 31.5329 42.1432C31.5071 42.4237 30.5851 44.5933 29.9718 45.9827L30.1684 46.0647C30.3259 45.7078 31.7089 42.5656 31.7459 42.1617C31.7652 41.9502 31.7073 41.7879 31.5743 41.6785C31.2873 41.4438 30.7515 41.5688 30.6945 41.5829L29.6816 41.7682C28.3372 41.9422 28.0627 42.7324 28.0354 42.8232L26.6548 46.1575L26.8529 46.2351L26.8525 46.2347Z" fill="#DD772A"/>
<path d="M29.5108 45.2441L32.1872 45.7637C32.1872 45.7637 32.9677 46.072 32.8129 47.4007C32.6767 48.5699 32.0795 55.1292 32.0795 55.1292C32.0795 55.1292 31.9549 56.4941 28.9537 56.0982L29.5108 45.2437V45.2441Z" fill="#DD772A"/>
<path d="M30.9947 47.0488L30.2748 54.395C30.2455 54.692 30.137 54.9653 29.9702 55.1944C29.6615 55.6193 29.1539 55.8942 28.5844 55.8978L26.1021 55.9127H26.0406L24.486 55.9227C24.3297 55.9235 24.1786 55.9042 24.0355 55.8672C24.0017 55.8588 23.9688 55.8492 23.9362 55.8387C23.398 55.6655 22.9841 55.2399 22.8305 54.7166C22.7654 54.4939 22.7469 54.2535 22.7863 54.0072L23.9137 46.9784C24.0343 46.2289 24.6621 45.6537 25.4398 45.5814L25.8783 45.5408L25.9828 45.5311L26.0708 45.5231L27.5366 45.3868L27.7166 45.3704L29.131 45.2393C29.3529 45.2188 29.5675 45.2401 29.7676 45.296C29.7809 45.2996 29.7938 45.3032 29.807 45.3077L29.8886 45.335C30.5863 45.587 31.071 46.2711 30.9947 47.0492V47.0488Z" fill="#F99746"/>
<path d="M29.9702 55.1941C29.6615 55.6189 29.1539 55.8938 28.5844 55.8975L26.1021 55.9123H26.0406L24.486 55.9224C24.3297 55.9232 24.1785 55.9039 24.0355 55.8669C24.0017 55.8585 23.9687 55.8488 23.9362 55.8384C23.398 55.6652 22.7775 55.0321 22.7686 54.3605C22.7686 54.3605 28.0197 54.2938 29.1173 54.4586C29.6836 54.5434 29.8528 54.928 29.9702 55.1941Z" fill="#EF8A3F"/>
<path d="M26.0708 45.5227C26.06 45.5291 24.9085 46.2108 24.7573 46.8096C24.6018 47.425 23.5624 54.5976 23.552 54.6699C23.5512 54.6756 23.5226 55.3689 24.1143 55.8853L24.0355 55.8669C24.0017 55.8584 23.9688 55.8488 23.9362 55.8383C23.3804 55.3022 23.4551 54.6844 23.4591 54.6575C23.5017 54.3613 24.5098 47.4077 24.6665 46.7879C24.804 46.245 25.6154 45.7036 25.8783 45.5404L25.9828 45.5307L26.0708 45.5227Z" fill="#DD772A"/>
<path d="M27.7166 45.3701C27.551 45.479 26.9188 45.9457 26.7838 46.8074C26.6254 47.8182 26.0077 55.1588 26.0012 55.2328V55.238L25.9992 55.2428C25.998 55.2464 25.91 55.6427 26.164 55.912H26.1017L26.0402 55.9128C25.7967 55.6242 25.8931 55.2702 25.908 55.2203C25.9273 54.9932 26.5338 47.7961 26.6909 46.7937C26.8071 46.051 27.2777 45.5896 27.5366 45.3866L27.7166 45.3701Z" fill="#DD772A"/>
<path d="M29.8882 45.3342C29.8834 45.337 29.6443 45.468 29.4381 45.6955C29.2323 45.923 29.008 46.273 28.9309 46.7662C28.7725 47.7762 28.2826 55.0927 28.2778 55.1663V55.1719L28.2758 55.1771C28.2745 55.1807 28.2528 55.6285 28.5073 55.8978L28.3509 55.8986C28.1564 55.6526 28.1684 55.2077 28.1849 55.155C28.2006 54.9211 28.6813 47.7549 28.8384 46.7521C28.9859 45.8092 29.6302 45.3772 29.7673 45.2952C29.7805 45.2988 29.7934 45.3024 29.8067 45.3068L29.8882 45.3342Z" fill="#DD772A"/>
<path d="M30.9802 40.1411L30.631 40.9956C30.5888 41.0989 30.5876 41.2118 30.6189 41.3131C30.6876 41.5358 30.7347 41.9694 30.2194 42.2769C30.2194 42.2769 29.9067 42.4332 29.8569 42.1905C29.8074 41.9481 29.8633 42.0358 29.7857 41.6953C29.7178 41.3971 29.8718 41.2134 29.9726 41.0072C30.0217 40.9068 30.0381 40.8043 30.049 40.7215L30.1197 40.1841L30.9798 40.1411H30.9802Z" fill="#FFB27D"/>
<path d="M30.2311 41.0941C30.5325 41.1528 30.8593 41.129 30.8593 41.129C30.8593 41.129 31.7539 38.3647 31.8693 38.1122C31.9846 37.8598 34.5272 35.0533 34.5272 35.0533L32.9163 32.8503C32.9163 32.8503 30.7174 36.8141 30.438 37.4595C29.9766 38.5262 29.8163 40.9176 29.8163 40.9176C29.8163 40.9176 29.9939 41.0479 30.2307 41.0937L30.2311 41.0941Z" fill="#F99746"/>
<path d="M32.3564 39.3518V39.3694C32.813 39.2625 33.202 39.0519 33.5376 38.7734C34.1622 38.2634 34.5866 37.5174 34.8543 36.7357C35.2683 35.5191 35.3004 34.2128 35.0898 33.5706C35.0613 33.4886 35.0291 33.4134 34.9934 33.3568C34.9077 33.2141 34.8113 33.0927 34.7008 32.9926C34.3511 32.6606 33.905 32.5324 33.5766 32.4858C33.4801 32.4713 33.3945 32.4677 33.3234 32.4645C33.2233 32.4609 33.1594 32.4645 33.1413 32.4645H33.1377C32.9303 32.5228 32.7707 32.6679 32.9162 32.8499C32.9805 32.8427 33.0412 32.8427 33.0983 32.8427C33.3515 32.8355 33.5694 32.8676 33.7514 32.9319C34.0653 33.0316 34.2868 33.2209 34.4399 33.4387C34.8824 34.0597 34.786 34.9484 34.786 34.9484C34.7502 35.4158 34.6791 35.8334 34.5862 36.2007C34.3756 37.0431 34.044 37.6424 33.7012 38.0636C33.0625 38.8558 32.3652 39.0278 32.3652 39.0278C32.3652 39.0278 32.3471 39.0889 32.3419 39.1962C32.3371 39.2931 32.3564 39.3518 32.3564 39.3518Z" fill="#233862"/>
<path d="M38.714 41.0598C38.714 41.0598 38.8434 41.2596 38.9836 41.3138C39.1239 41.3681 39.3462 41.551 39.3671 41.5019C39.3884 41.4529 39.3542 41.3681 39.2714 41.3086C39.1886 41.2491 39.1629 41.1748 39.1842 41.1302C39.2055 41.0855 38.7136 41.0602 38.7136 41.0602L38.714 41.0598Z" fill="#FFB27D"/>
<path d="M26.1006 22.6929C24.0199 22.6929 22.333 24.5071 22.333 26.7446C22.333 28.9821 26.1006 32.5583 26.1006 32.5583C26.1006 32.5583 29.8682 28.9821 29.8682 26.7446C29.8682 24.5071 28.1813 22.6929 26.1006 22.6929ZM26.1006 28.7269C24.8719 28.7269 23.8804 27.7357 23.8804 26.5071C23.8804 25.2784 24.8715 24.2869 26.1006 24.2869C27.3296 24.2869 28.3208 25.284 28.3208 26.5071C28.3208 27.7301 27.3236 28.7269 26.1006 28.7269Z" fill="#F78E48"/>
<path d="M27.3123 22.2552C27.3059 22.2552 27.2994 22.2548 27.293 22.254C27.2166 22.2436 27.1636 22.1732 27.174 22.0969C27.1744 22.0928 27.1877 21.9964 27.2162 21.8183C27.2283 21.7424 27.2998 21.6909 27.3758 21.7026C27.4518 21.7146 27.5036 21.7862 27.4916 21.8621C27.4638 22.0366 27.4506 22.1334 27.4502 22.1346C27.4405 22.2046 27.3806 22.2552 27.3123 22.2552Z" fill="#F99746"/>
<path d="M27.4489 21.4213C27.4408 21.4213 27.4324 21.4205 27.424 21.4189C27.3484 21.4052 27.2978 21.3329 27.3114 21.2569C27.3444 21.0736 27.3798 20.8851 27.4167 20.6958C27.4316 20.6203 27.5048 20.5712 27.5803 20.5857C27.6559 20.6006 27.7049 20.6737 27.6904 20.7493C27.6535 20.937 27.6185 21.1243 27.5859 21.3059C27.5739 21.3735 27.5152 21.4209 27.4489 21.4209V21.4213ZM27.6671 20.3056C27.6575 20.3056 27.6478 20.3048 27.6382 20.3024C27.563 20.2863 27.5148 20.2123 27.5305 20.1372C27.5695 19.9527 27.6105 19.7654 27.6523 19.5801C27.6691 19.505 27.7439 19.4579 27.8191 19.4748C27.8942 19.4917 27.9412 19.5664 27.9244 19.6416C27.883 19.8253 27.842 20.0114 27.8034 20.1946C27.7897 20.2602 27.7314 20.3052 27.6671 20.3052V20.3056ZM27.9179 19.1975C27.9071 19.1975 27.8962 19.1963 27.885 19.1935C27.8102 19.1754 27.764 19.1002 27.7821 19.0255C27.8267 18.841 27.8729 18.6549 27.9199 18.4724C27.9392 18.3981 28.0152 18.3531 28.0895 18.3719C28.1639 18.3912 28.2089 18.4672 28.19 18.5416C28.1434 18.7228 28.0976 18.9077 28.0534 19.0906C28.0381 19.1545 27.981 19.1971 27.9179 19.1971V19.1975ZM28.2005 18.0974C28.1884 18.0974 28.176 18.0958 28.1639 18.0926C28.0895 18.0725 28.0457 17.9958 28.0662 17.9214C28.1165 17.7377 28.1683 17.5528 28.2206 17.3728C28.2419 17.2988 28.3194 17.2562 28.3934 17.2775C28.4673 17.2988 28.5099 17.3764 28.4886 17.4503C28.4368 17.6292 28.3854 17.8125 28.3355 17.9949C28.3186 18.0568 28.2624 18.0978 28.2013 18.0978L28.2005 18.0974ZM28.5164 17.007C28.5027 17.007 28.489 17.005 28.4754 17.001C28.4018 16.9785 28.3604 16.9005 28.3829 16.827C28.4388 16.6449 28.4967 16.462 28.555 16.2836C28.5787 16.2104 28.6575 16.1706 28.7306 16.1944C28.8037 16.2181 28.8439 16.2968 28.8198 16.37C28.7624 16.5468 28.7049 16.7281 28.649 16.909C28.6305 16.9689 28.5755 17.0074 28.516 17.0074L28.5164 17.007ZM28.8685 15.9279C28.8532 15.9279 28.8379 15.9255 28.823 15.9202C28.7503 15.8949 28.7117 15.8158 28.737 15.743C28.7997 15.5621 28.864 15.3813 28.9287 15.206C28.9553 15.1337 29.0353 15.0967 29.1076 15.1232C29.1799 15.1498 29.2169 15.2298 29.1904 15.3021C29.1265 15.4757 29.0626 15.655 29.0003 15.8338C28.9802 15.8913 28.9263 15.9275 28.8685 15.9275V15.9279ZM45.3728 15.5967C45.3202 15.5967 45.2695 15.5666 45.2462 15.5155C45.1694 15.3483 45.0882 15.1767 45.0042 15.0059C44.9705 14.9368 44.9986 14.8532 45.0678 14.8194C45.1369 14.7856 45.2205 14.8138 45.2542 14.8829C45.3394 15.0561 45.4218 15.2298 45.4994 15.3994C45.5316 15.4693 45.5006 15.5521 45.4307 15.5842C45.4118 15.5927 45.3921 15.5971 45.3728 15.5971V15.5967ZM29.2607 14.8632C29.2439 14.8632 29.2266 14.86 29.2101 14.8536C29.1385 14.8254 29.1032 14.7446 29.1313 14.6731C29.2008 14.4955 29.2728 14.3178 29.3447 14.1454C29.3745 14.0742 29.4561 14.0409 29.5272 14.0706C29.5983 14.1004 29.6317 14.182 29.602 14.2531C29.5308 14.4239 29.4597 14.5995 29.3906 14.7752C29.3688 14.8302 29.3166 14.8636 29.2607 14.8636V14.8632ZM44.872 14.5774C44.8218 14.5774 44.7731 14.5501 44.7486 14.5027C44.6614 14.3359 44.571 14.1687 44.4805 14.0063C44.4432 13.9392 44.4673 13.8544 44.5344 13.8166C44.6015 13.7792 44.6863 13.8033 44.7241 13.8705C44.8158 14.0353 44.907 14.2041 44.9954 14.3733C45.0312 14.4416 45.0046 14.5256 44.9367 14.5614C44.9162 14.5722 44.8941 14.5774 44.872 14.5774ZM29.698 13.8174C29.6791 13.8174 29.6598 13.8134 29.6413 13.8054C29.571 13.774 29.5397 13.6916 29.571 13.6213C29.6494 13.4456 29.7302 13.2708 29.811 13.102C29.8443 13.0325 29.9275 13.0031 29.9966 13.0365C30.0662 13.0698 30.0955 13.153 30.0622 13.2222C29.9826 13.3886 29.9026 13.561 29.825 13.7346C29.8017 13.7865 29.7511 13.817 29.6976 13.817L29.698 13.8174ZM44.3198 13.5855C44.272 13.5855 44.2257 13.561 44.1996 13.5172C44.1035 13.3552 44.0051 13.1932 43.9062 13.0357C43.8652 12.9706 43.8849 12.8846 43.95 12.8436C44.0151 12.8026 44.1011 12.8223 44.1421 12.8874C44.2422 13.0469 44.3423 13.2109 44.4396 13.3753C44.4785 13.4416 44.4568 13.5268 44.3905 13.5662C44.3684 13.5795 44.3439 13.5855 44.3198 13.5855ZM30.1888 12.7937C30.1675 12.7937 30.1454 12.7889 30.1253 12.7781C30.0569 12.7427 30.03 12.6587 30.065 12.5904C30.1534 12.4187 30.2438 12.2491 30.3347 12.0864C30.372 12.0192 30.4568 11.9947 30.5244 12.0321C30.5915 12.0695 30.616 12.1543 30.5786 12.2218C30.4894 12.3822 30.4002 12.5494 30.3134 12.7182C30.2884 12.766 30.2398 12.7937 30.1892 12.7937H30.1888ZM43.7153 12.6249C43.6703 12.6249 43.6261 12.6032 43.5995 12.563C43.4946 12.4063 43.3869 12.2503 43.2792 12.1C43.2346 12.0373 43.2491 11.9505 43.3114 11.9055C43.3741 11.8609 43.4609 11.8753 43.5059 11.9376C43.6152 12.0904 43.7245 12.2487 43.8311 12.4079C43.8737 12.4718 43.8568 12.5586 43.7929 12.6012C43.7692 12.6173 43.7422 12.6249 43.7153 12.6249ZM30.7402 11.8026C30.7157 11.8026 30.6908 11.7962 30.6682 11.7825C30.6023 11.7427 30.581 11.6571 30.6208 11.5912C30.7205 11.4256 30.8234 11.2624 30.9259 11.1065C30.9681 11.0422 31.0545 11.0245 31.1188 11.0667C31.1831 11.1089 31.2008 11.1953 31.1586 11.2596C31.0581 11.4123 30.9572 11.5723 30.8596 11.7351C30.8334 11.7785 30.7872 11.8026 30.7402 11.8026ZM43.0554 11.7021C43.0136 11.7021 42.9722 11.6832 42.9444 11.6475C42.8295 11.4975 42.7117 11.3492 42.5948 11.207C42.5457 11.1475 42.5542 11.0599 42.6136 11.0108C42.6731 10.9618 42.7607 10.9702 42.8098 11.0297C42.9291 11.1744 43.0485 11.3251 43.1655 11.4779C43.2121 11.5389 43.2008 11.6266 43.1393 11.6732C43.114 11.6925 43.0843 11.7017 43.0549 11.7017L43.0554 11.7021ZM31.364 10.8557C31.3358 10.8557 31.3073 10.8472 31.2824 10.8292C31.2201 10.7841 31.206 10.6969 31.251 10.6346C31.3648 10.4775 31.4817 10.3235 31.5983 10.1776C31.6465 10.1178 31.7341 10.1077 31.794 10.1559C31.8539 10.2042 31.864 10.2918 31.8157 10.3517C31.702 10.494 31.5878 10.6439 31.4769 10.7974C31.4496 10.8352 31.407 10.8553 31.364 10.8553V10.8557ZM42.3335 10.8267C42.2953 10.8267 42.2567 10.8111 42.2294 10.7801C42.1032 10.6386 41.975 10.5004 41.8476 10.369C41.7941 10.3135 41.7953 10.2255 41.8508 10.172C41.9063 10.1186 41.9943 10.1198 42.0477 10.1752C42.178 10.3095 42.309 10.4506 42.4376 10.5952C42.4886 10.6527 42.4838 10.7407 42.4263 10.7922C42.3998 10.8159 42.3669 10.8275 42.3335 10.8275V10.8267ZM41.5429 10.0129C41.5088 10.0129 41.4746 10.0004 41.4477 9.97508C41.3098 9.84566 41.1692 9.71986 41.0301 9.6021C40.9714 9.55226 40.9642 9.46424 41.014 9.40556C41.0638 9.34688 41.1515 9.33965 41.2105 9.38949C41.3532 9.51047 41.4975 9.63908 41.639 9.77211C41.6953 9.82476 41.6977 9.91319 41.645 9.96905C41.6177 9.99839 41.5807 10.0129 41.5433 10.0129H41.5429ZM32.0734 9.97187C32.0404 9.97187 32.007 9.96021 31.9805 9.9361C31.923 9.88465 31.9186 9.79663 31.9697 9.73916C32.0999 9.59406 32.2333 9.4542 32.3667 9.32317C32.4218 9.26931 32.5098 9.27012 32.5637 9.32478C32.6175 9.37984 32.6167 9.46786 32.5621 9.52172C32.4327 9.64873 32.3032 9.78457 32.177 9.92524C32.1497 9.95579 32.1115 9.97146 32.0734 9.97146V9.97187ZM40.6776 9.28097C40.6483 9.28097 40.6189 9.27173 40.5936 9.25284C40.4433 9.1395 40.2902 9.03098 40.1382 8.9305C40.0739 8.88789 40.0562 8.80148 40.0988 8.73758C40.1414 8.67327 40.2279 8.65559 40.2918 8.69819C40.4485 8.80188 40.6065 8.91362 40.7612 9.03058C40.8227 9.0768 40.8348 9.16441 40.7885 9.22591C40.7612 9.26208 40.7194 9.28137 40.6772 9.28137L40.6776 9.28097ZM32.8824 9.17969C32.843 9.17969 32.8036 9.16321 32.7763 9.13065C32.7265 9.07197 32.7337 8.98395 32.7924 8.93412C32.9411 8.80751 33.0938 8.68774 33.2465 8.57802C33.3088 8.533 33.3961 8.54707 33.4411 8.60977C33.4861 8.67206 33.472 8.75928 33.4093 8.8043C33.2626 8.9096 33.1159 9.02495 32.9728 9.14673C32.9467 9.16884 32.9146 9.18009 32.8828 9.18009L32.8824 9.17969ZM39.7327 8.6576C39.7094 8.6576 39.6857 8.65157 39.664 8.63951C39.5012 8.54707 39.3352 8.46106 39.1708 8.38349C39.1013 8.35053 39.0715 8.26774 39.1041 8.1982C39.1371 8.12867 39.2202 8.09893 39.2898 8.13149C39.4606 8.21187 39.6326 8.30109 39.8014 8.39715C39.8685 8.43493 39.8919 8.52014 39.8541 8.58726C39.8284 8.63268 39.7813 8.658 39.7327 8.658V8.6576ZM33.8008 8.52094C33.753 8.52094 33.7067 8.49643 33.6806 8.45262C33.6416 8.3863 33.6633 8.30069 33.7297 8.26171C33.8977 8.16243 34.0705 8.0716 34.2429 7.99162C34.3128 7.95906 34.3956 7.98961 34.4278 8.05954C34.4603 8.12948 34.4298 8.21227 34.3599 8.24442C34.1959 8.32039 34.0315 8.4068 33.8711 8.50165C33.849 8.51492 33.8245 8.52094 33.8004 8.52094H33.8008ZM38.7086 8.1761C38.6925 8.1761 38.6757 8.17329 38.6596 8.16726C38.4855 8.10174 38.3083 8.04387 38.1323 7.99483C38.0583 7.97434 38.0149 7.89717 38.0354 7.82321C38.0559 7.74926 38.1331 7.70585 38.207 7.72635C38.3903 7.7774 38.5756 7.83809 38.7572 7.90601C38.8292 7.93294 38.8658 8.01332 38.8388 8.08527C38.8179 8.14113 38.7649 8.1757 38.7082 8.1757L38.7086 8.1761ZM34.8257 8.04708C34.7678 8.04708 34.7135 8.01051 34.6939 7.95263C34.6689 7.87989 34.7079 7.80071 34.7811 7.77579C34.9643 7.71349 35.1524 7.66124 35.3397 7.61984C35.4149 7.60337 35.4893 7.65079 35.5057 7.72595C35.5222 7.80111 35.4748 7.87546 35.3996 7.89194C35.2224 7.93093 35.0443 7.98077 34.8707 8.03945C34.8558 8.04467 34.8406 8.04708 34.8257 8.04708ZM37.6186 7.87305C37.6102 7.87305 37.6017 7.87225 37.5933 7.87064C37.4124 7.83768 37.2283 7.81276 37.0459 7.79669C36.9691 7.78986 36.9124 7.72233 36.9193 7.64557C36.9261 7.5688 36.9936 7.51173 37.0704 7.51896C37.2613 7.53544 37.4542 7.56157 37.6439 7.59613C37.7195 7.6098 37.7697 7.68254 37.7561 7.7581C37.7436 7.82522 37.6853 7.87265 37.619 7.87265L37.6186 7.87305ZM35.9269 7.80513C35.8566 7.80513 35.7959 7.75208 35.7887 7.68013C35.7806 7.60377 35.8361 7.53504 35.9129 7.527C35.9716 7.52097 36.031 7.51575 36.0893 7.51133C36.2236 7.50168 36.359 7.49646 36.492 7.49565C36.5696 7.49364 36.6319 7.55715 36.6323 7.63391C36.6327 7.71068 36.5708 7.77378 36.494 7.77418C36.3666 7.77498 36.2372 7.78021 36.109 7.78905C36.0539 7.79307 35.9977 7.79789 35.9418 7.80352C35.937 7.80392 35.9318 7.80432 35.9269 7.80432V7.80513Z" fill="#F99746"/>
<path d="M45.7008 16.3608C45.6445 16.3608 45.5919 16.3266 45.5706 16.2712C45.5706 16.2704 45.5352 16.1787 45.4673 16.0176C45.4376 15.9464 45.4709 15.8648 45.5417 15.8351C45.6124 15.8054 45.6944 15.8387 45.7241 15.9095C45.7941 16.0754 45.8294 16.1679 45.8306 16.1719C45.858 16.2438 45.8218 16.3242 45.7503 16.3516C45.7338 16.3576 45.7173 16.3608 45.7008 16.3608Z" fill="#F99746"/>
</g>
</svg>
