<svg width="42" height="37" viewBox="0 0 42 37" fill="none" xmlns="http://www.w3.org/2000/svg">
<path d="M40.8442 23.781C39.2887 21.9415 36.7376 22.7854 35.3609 23.2365C34.4898 23.5243 32.4015 24.4032 30.3443 25.2743C30.4684 24.6169 30.3841 23.9371 30.1032 23.3299C28.991 20.7904 26.2454 21.2765 24.2388 21.6343C23.6196 21.7688 22.9897 21.8482 22.3566 21.8715C21.2839 21.8595 20.2251 21.6279 19.2455 21.191C17.9731 20.6436 16.5973 20.3782 15.2127 20.4132C12.5616 20.4623 9.9477 21.0469 7.52831 22.1321L7.09275 22.311C3.48 23.7499 1.92445 24.0765 1.92445 24.0765C1.77973 24.1054 1.6462 24.1748 1.53947 24.2768C1.43273 24.3787 1.3572 24.5088 1.32168 24.6521C1.29446 24.7649 0.683904 27.3743 2.41445 31.0415C3.9 34.1526 5.63832 35.3465 6.8322 35.7781C6.9561 35.8225 7.08923 35.8347 7.21914 35.8137C7.34904 35.7926 7.47148 35.7389 7.57497 35.6576C7.57497 35.6576 8.55108 34.8798 9.29774 34.4442C9.79163 34.1448 10.9933 33.9542 13.9333 34.7709C16.6534 35.4947 19.4493 35.8955 22.2632 35.9648C23.359 36.0005 24.453 35.8506 25.4988 35.5215C28.5671 34.3548 36.0337 30.4659 38.9698 28.8715C40.5253 28.0237 41.3731 27.1098 41.5675 26.0754C41.6308 25.6631 41.5985 25.2418 41.4731 24.844C41.3477 24.4461 41.1325 24.0824 40.8442 23.781ZM40.0353 25.7915C39.9381 26.3165 39.2926 26.9271 38.2231 27.5104C35.7576 28.8598 28.0032 32.9237 24.9504 34.0709C22.8077 34.872 17.4138 34.1254 14.3494 33.2931C13.125 32.9086 11.8555 32.6864 10.5733 32.632C9.84601 32.5969 9.1232 32.7638 8.48497 33.1143C7.95997 33.4331 7.36109 33.8687 6.98387 34.1487C5.81721 33.5654 4.70888 32.2431 3.81833 30.3687C3.04942 28.8515 2.69015 27.1597 2.77611 25.461C4.43856 24.9756 6.07306 24.3992 7.6722 23.7343L8.11941 23.5515C10.3604 22.5391 12.7851 21.9965 15.2438 21.9571C16.4318 21.9263 17.6117 22.1615 18.6971 22.6454C19.8428 23.1478 21.0784 23.4124 22.3293 23.4232C23.0628 23.4005 23.7928 23.3133 24.511 23.1626C26.6537 22.7738 28.1004 22.6299 28.676 23.9404C28.7742 24.1421 28.83 24.3617 28.8401 24.5858C28.8501 24.8098 28.8141 25.0336 28.7343 25.2432C28.5165 25.7799 27.9565 26.2699 27.0776 26.6665C26.2999 26.9932 25.7165 27.246 25.4599 27.3471C23.811 27.9926 22.3915 27.7671 21.0188 27.5493L20.2643 27.4326C20.0581 27.4048 19.8492 27.46 19.6836 27.5862C19.5181 27.7123 19.4094 27.8991 19.3816 28.1054C19.3537 28.3117 19.409 28.5206 19.5351 28.6861C19.6613 28.8517 19.8481 28.9603 20.0543 28.9882C20.2916 29.0193 20.5327 29.0582 20.7738 29.0971C22.2788 29.3343 23.9821 29.6026 26.0276 28.8054C26.2649 28.7121 26.7393 28.5137 27.3693 28.2415C27.486 28.1948 27.5987 28.1482 27.7076 28.0976L28.711 27.6698C31.2426 26.581 34.7115 25.0876 35.8509 24.7143C37.6592 24.1193 38.927 23.9365 39.6542 24.7843C40.1248 25.3365 40.0587 25.6787 40.0353 25.7915Z" fill="#313131" stroke="#313131" stroke-width="0.479062"/>
<path d="M21.7577 4.53949V5.57004C21.488 5.63146 21.2268 5.72548 20.9799 5.85004C20.5837 6.04954 20.249 6.35269 20.0114 6.72727C19.7738 7.10184 19.6421 7.53382 19.6305 7.97725C19.576 9.68446 21.1121 10.2561 22.2321 10.6722C23.5388 11.1583 23.9354 11.4072 23.8771 12.0294C23.8653 12.2412 23.791 12.4447 23.6637 12.6142C23.5363 12.7838 23.3616 12.9119 23.1615 12.9822C22.7872 13.1251 22.3855 13.1817 21.9863 13.1481C21.5871 13.1144 21.2006 12.9913 20.8555 12.7878C20.775 12.7245 20.6829 12.6776 20.5844 12.6499C20.4858 12.6221 20.3828 12.6141 20.2811 12.6262C20.1795 12.6383 20.0812 12.6703 19.9919 12.7204C19.9026 12.7704 19.8241 12.8376 19.7607 12.9181C19.6974 12.9985 19.6505 13.0906 19.6228 13.1892C19.5951 13.2877 19.5871 13.3907 19.5992 13.4924C19.6112 13.594 19.6432 13.6923 19.6933 13.7816C19.7434 13.8709 19.8106 13.9494 19.891 14.0128C20.4387 14.4059 21.0851 14.6389 21.7577 14.6855V15.615C21.7577 15.8213 21.8396 16.0191 21.9855 16.1649C22.1313 16.3108 22.3292 16.3928 22.5354 16.3928C22.7417 16.3928 22.9395 16.3108 23.0854 16.1649C23.2313 16.0191 23.3132 15.8213 23.3132 15.615V14.5689C23.4759 14.5276 23.6357 14.4756 23.7915 14.4133C24.2482 14.233 24.6452 13.9283 24.9373 13.5337C25.2295 13.1391 25.4051 12.6705 25.4443 12.1811C25.631 10.2678 23.9238 9.63391 22.796 9.21391C21.5866 8.76669 21.186 8.53336 21.2016 8.0278C21.2056 7.85758 21.2573 7.6919 21.3508 7.5496C21.4443 7.40729 21.5758 7.29407 21.7304 7.22281C22.0892 7.0672 22.481 7.00314 22.8706 7.0364C23.2602 7.06966 23.6355 7.1992 23.9627 7.41336C24.0492 7.47107 24.1465 7.51082 24.2487 7.53026C24.3509 7.5497 24.456 7.54843 24.5577 7.52654C24.6594 7.50465 24.7557 7.46257 24.8408 7.4028C24.926 7.34303 24.9983 7.26678 25.0535 7.17857C25.1086 7.09036 25.1455 6.99198 25.162 6.88925C25.1785 6.78652 25.1742 6.68153 25.1493 6.5805C25.1245 6.47947 25.0796 6.38445 25.0174 6.30106C24.9552 6.21767 24.8769 6.14762 24.7871 6.09504C24.3367 5.81391 23.8362 5.62244 23.3132 5.53115V4.53949C23.3132 4.33321 23.2313 4.13538 23.0854 3.98952C22.9395 3.84366 22.7417 3.76172 22.5354 3.76172C22.3292 3.76172 22.1313 3.84366 21.9855 3.98952C21.8396 4.13538 21.7577 4.33321 21.7577 4.53949Z" fill="#313131" stroke="#313131" stroke-width="0.479062"/>
<path d="M13.202 10.0769C13.202 11.9229 13.7494 13.7274 14.7749 15.2622C15.8005 16.7971 17.2581 17.9933 18.9636 18.6998C20.669 19.4062 22.5456 19.591 24.3561 19.2309C26.1666 18.8707 27.8296 17.9818 29.1349 16.6766C30.4401 15.3713 31.3291 13.7082 31.6892 11.8978C32.0493 10.0873 31.8645 8.21067 31.1581 6.50524C30.4517 4.79981 29.2554 3.34215 27.7205 2.31659C26.1857 1.29104 24.3812 0.743652 22.5352 0.743652C20.0599 0.743652 17.6859 1.72698 15.9356 3.47731C14.1853 5.22763 13.202 7.60159 13.202 10.0769ZM30.313 10.0769C30.313 11.6152 29.8568 13.119 29.0022 14.398C28.1476 15.677 26.9328 16.6739 25.5117 17.2626C24.0905 17.8513 22.5266 18.0053 21.0179 17.7052C19.5092 17.4051 18.1233 16.6643 17.0356 15.5766C15.9478 14.4889 15.2071 13.103 14.907 11.5943C14.6069 10.0856 14.7609 8.52172 15.3496 7.10052C15.9382 5.67933 16.9351 4.46461 18.2142 3.60998C19.4932 2.75535 20.997 2.2992 22.5352 2.2992C24.598 2.2992 26.5763 3.11864 28.0349 4.57724C29.4935 6.03585 30.313 8.01415 30.313 10.0769Z" fill="#313131" stroke="#313131" stroke-width="0.479062"/>
</svg>
