<svg width="14" height="19" viewBox="0 0 14 19" fill="none" xmlns="http://www.w3.org/2000/svg">
<path d="M10.9022 6.60124V6.67334L10.9585 6.71838C12.5368 7.98076 13.4548 9.89283 13.453 11.9139C13.4495 15.5838 10.4717 18.5561 6.80174 18.5527H6.80146C4.78039 18.5546 2.86832 17.6366 1.60594 16.0583C-0.686346 13.1923 -0.221283 9.01063 2.64471 6.71834L2.70102 6.67331V6.6012V4.25062C2.70102 1.98589 4.53687 0.15 6.8016 0.15C9.06632 0.15 10.9022 1.98589 10.9022 4.25065V6.60124ZM9.29531 5.74035L9.50202 5.82476V5.60148V4.25062C9.50202 2.75921 8.29304 1.55023 6.80163 1.55023C5.31023 1.55023 4.10125 2.75925 4.10125 4.25062L4.10128 5.60148L4.10129 5.82476L4.30799 5.74035C5.90637 5.0876 7.69693 5.0876 9.29531 5.74035ZM6.8016 6.65097H6.80144C3.90285 6.65388 1.55378 9.00295 1.55086 11.9015V11.9017C1.55086 14.8016 3.9017 17.1524 6.8016 17.1524C9.70149 17.1524 12.0523 14.8016 12.0523 11.9017C12.0523 9.0018 9.70149 6.65097 6.8016 6.65097Z" fill="#313131" stroke="white" stroke-width="0.3"/>
</svg>
