<svg width="21" height="20" viewBox="0 0 21 20" fill="none" xmlns="http://www.w3.org/2000/svg">
<path fill-rule="evenodd" clip-rule="evenodd" d="M7.842 13.2073C11.531 13.2073 14.684 13.7663 14.684 15.9993C14.684 18.2323 11.552 18.8073 7.842 18.8073C4.152 18.8073 1 18.2533 1 16.0193C1 13.7853 4.131 13.2073 7.842 13.2073Z" stroke="#313131" stroke-width="1.3" stroke-linecap="round" stroke-linejoin="round"/>
<path fill-rule="evenodd" clip-rule="evenodd" d="M7.84205 10.0202C5.42005 10.0202 3.45605 8.05724 3.45605 5.63524C3.45605 3.21324 5.42005 1.25024 7.84205 1.25024C10.2631 1.25024 12.2271 3.21324 12.2271 5.63524C12.2361 8.04824 10.2861 10.0112 7.87305 10.0202H7.84205Z" stroke="#313131" stroke-width="1.3" stroke-linecap="round" stroke-linejoin="round"/>
<path d="M14.7336 8.88201C16.3346 8.65701 17.5676 7.28301 17.5706 5.62001C17.5706 3.98101 16.3756 2.62101 14.8086 2.36401" stroke="#313131" stroke-width="1.3" stroke-linecap="round" stroke-linejoin="round"/>
<path d="M16.8459 12.7327C18.3969 12.9637 19.4799 13.5077 19.4799 14.6277C19.4799 15.3987 18.9699 15.8987 18.1459 16.2117" stroke="#313131" stroke-width="1.3" stroke-linecap="round" stroke-linejoin="round"/>
</svg>
