<svg width="21" height="22" viewBox="0 0 21 22" fill="none" xmlns="http://www.w3.org/2000/svg">
<path d="M18.6865 16.1449C19.3485 15.5802 19.7695 14.7409 19.7695 13.8046C19.7695 12.1084 18.3896 10.7284 16.6934 10.7284C15.2078 10.7284 13.9649 11.7869 13.6791 13.1893H11.1562V12.5741C11.1562 10.9197 10.2094 9.48045 8.82455 8.7594C9.53626 8.15897 9.92578 7.31589 9.92578 6.42175C9.92578 4.72112 8.50931 3.34558 6.80859 3.34558C5.10796 3.34558 3.69141 4.72104 3.69141 6.42175C3.69141 7.31397 4.07941 8.15766 4.79263 8.7594C3.40774 9.48045 2.46094 10.9197 2.46094 12.5741V13.1893H1.8457C0.827982 13.1893 0 14.0173 0 15.035C0 15.8371 0.514377 16.5209 1.23047 16.7749V21.2694C1.23047 21.6092 1.50593 21.8846 1.8457 21.8846C2.18765 21.8846 20.1365 21.8846 20.3848 21.8846C20.7245 21.8846 21 21.6092 21 21.2694V19.9979C21 18.3262 20.0604 16.8721 18.6865 16.1449ZM16.6934 11.9589C17.7111 11.9589 18.5391 12.7868 18.5391 13.8046C18.5391 14.8223 17.7111 15.6503 16.6934 15.6503C15.6756 15.6503 14.8477 14.8223 14.8477 13.8046C14.8477 12.7868 15.6756 11.9589 16.6934 11.9589ZM6.80859 4.57605C7.83132 4.57605 8.69531 5.42126 8.69531 6.42175C8.69531 7.42225 7.83132 8.26746 6.80859 8.26746C5.78587 8.26746 4.92188 7.42225 4.92188 6.42175C4.92188 5.42126 5.78587 4.57605 6.80859 4.57605ZM3.69141 12.5741C3.69141 10.8779 5.08979 9.49792 6.80859 9.49792C8.52739 9.49792 9.92578 10.8779 9.92578 12.5741V13.1893H3.69141V12.5741ZM1.23047 15.035C1.23047 14.6958 1.50646 14.4198 1.8457 14.4198C1.95616 14.4198 13.5926 14.4198 13.6791 14.4198C13.7717 14.8742 13.9648 15.2924 14.2341 15.6503H1.8457C1.50646 15.6503 1.23047 15.3743 1.23047 15.035ZM12.3867 20.6542H2.46094V16.8807H13.6945C12.8885 17.6713 12.3867 18.7765 12.3867 19.9979V20.6542ZM19.7695 20.6542H13.6172V19.9979C13.6172 18.2791 14.9972 16.8807 16.6934 16.8807C18.3896 16.8807 19.7695 18.2791 19.7695 19.9979V20.6542Z" fill="#313131"/>
<path d="M17.9238 3.34558H14.2324C13.8926 3.34558 13.6172 3.62104 13.6172 3.96082C13.6172 4.30059 13.8926 4.57605 14.2324 4.57605H17.9238C18.2636 4.57605 18.5391 4.30059 18.5391 3.96082C18.5391 3.62104 18.2636 3.34558 17.9238 3.34558Z" fill="#313131"/>
<path d="M19.1543 0.884644H13.002C11.9842 0.884644 11.1562 1.71263 11.1562 2.73035V5.19128C11.1562 5.99339 11.6705 6.67765 12.3867 6.93158V8.88269C12.3867 9.13153 12.5366 9.35589 12.7665 9.45109C12.9964 9.54632 13.261 9.49366 13.437 9.3177L15.7177 7.03699H19.1543C20.172 7.03699 21 6.209 21 5.19128V2.73035C21 1.71263 20.172 0.884644 19.1543 0.884644ZM19.7695 5.19128C19.7695 5.53052 19.4935 5.80652 19.1543 5.80652H15.4629C15.2997 5.80652 15.1432 5.87136 15.0279 5.98674L13.6172 7.39739V6.42175C13.6172 6.08198 13.3417 5.80652 13.002 5.80652C12.6627 5.80652 12.3867 5.53052 12.3867 5.19128V2.73035C12.3867 2.39111 12.6627 2.11511 13.002 2.11511H19.1543C19.4935 2.11511 19.7695 2.39111 19.7695 2.73035V5.19128Z" fill="#313131"/>
</svg>
