<svg width="44" height="44" viewBox="0 0 44 44" fill="none" xmlns="http://www.w3.org/2000/svg">
<path d="M14.2656 5.24219C10.7119 5.24219 7.73438 8.13373 7.73438 11.6875C7.73438 15.2413 10.7119 18.1328 14.2656 18.1328C17.8194 18.1328 20.7969 15.2413 20.7969 11.6875C20.7969 8.13373 17.8194 5.24219 14.2656 5.24219Z" fill="#FF0000"/>
<path d="M34.9766 20.7109C31.4228 20.7109 28.5312 23.6025 28.5312 27.1562C28.5312 30.71 31.4228 33.6016 34.9766 33.6016C38.5303 33.6016 41.4219 30.71 41.4219 27.1562C41.4219 23.6025 38.5303 20.7109 34.9766 20.7109Z" fill="#FF0000"/>
<path d="M41.2716 33.6016C39.6441 35.1913 37.4257 36.1797 34.9766 36.1797C32.5274 36.1797 30.309 35.1913 28.6816 33.6016C27.003 35.2412 25.9531 37.521 25.9531 40.0469V42.7109C25.9531 43.4234 26.5297 44 27.2422 44H42.7109C43.4234 44 44 43.4234 44 42.7109V40.0469C44 37.521 42.9501 35.2412 41.2716 33.6016Z" fill="#FF0000"/>
<path d="M20.6466 18.1328C19.019 19.7226 16.7147 20.7109 14.2656 20.7109C11.8166 20.7109 9.51216 19.7226 7.88468 18.1328C6.20615 19.7725 5.15625 22.0522 5.15625 24.5781V25.8672H23.375V24.5781C23.375 22.0522 22.3251 19.7725 20.6466 18.1328Z" fill="#FF0000"/>
<path d="M40.1328 0H27.2422C25.1097 0 23.375 1.82067 23.375 3.95312V9.10938C23.375 10.79 24.4526 12.2237 25.9531 12.7563V16.8438C25.9531 17.3649 26.2665 17.8357 26.7487 18.0346C27.2241 18.2328 27.7814 18.1271 28.1536 17.7551L32.9322 12.9766H40.1328C42.2653 12.9766 44 11.2418 44 9.10938V3.95312C44 1.82067 42.2653 0 40.1328 0ZM37.5547 7.82031H29.8203C29.1078 7.82031 28.5312 7.24376 28.5312 6.53125C28.5312 5.81874 29.1078 5.24219 29.8203 5.24219H37.5547C38.2672 5.24219 38.8438 5.81874 38.8438 6.53125C38.8438 7.24376 38.2672 7.82031 37.5547 7.82031Z" fill="#FF0000"/>
<path d="M26.0834 28.4453H2.57812C1.15423 28.4453 0 29.5995 0 31.0234C0 32.4472 1.15423 33.6016 2.57812 33.6016H25.3463C25.7894 32.9451 26.298 32.3252 26.8796 31.7573L27.1262 31.5165C26.603 30.5788 26.2434 29.5495 26.0834 28.4453Z" fill="#FF0000"/>
<path d="M23.375 40.0469C23.375 38.7027 23.6475 37.4099 24.0862 36.1797H2.57812V42.7109C2.57812 43.4228 3.15528 44 3.86719 44H23.6124C23.468 43.5948 23.375 43.165 23.375 42.7109V40.0469Z" fill="#FF0000"/>
</svg>
