<svg width="27" height="27" viewBox="0 0 27 27" fill="none" xmlns="http://www.w3.org/2000/svg">
<path d="M13.5 0.1C15.0397 0.1 16.2929 1.35316 16.2929 2.89286C16.2929 4.43256 15.0397 5.68571 13.5 5.68571C11.9603 5.68571 10.7072 4.43256 10.7072 2.89286C10.7072 1.35316 11.9603 0.1 13.5 0.1ZM12.4357 2.89286C12.4357 3.47941 12.9135 3.95714 13.5 3.95714C14.0866 3.95714 14.5643 3.47941 14.5643 2.89286C14.5643 2.30631 14.0866 1.82857 13.5 1.82857C12.9135 1.82857 12.4357 2.30631 12.4357 2.89286Z" fill="#313131" stroke="#F7F7F7" stroke-width="0.2"/>
<path d="M18.2215 11.1107V11.164L18.2658 11.1937C20.5634 12.7353 22.0787 15.3547 22.0787 18.3216C22.0787 23.0512 18.2297 26.9002 13.5001 26.9002C8.77055 26.9002 4.92153 23.0512 4.92153 18.3216C4.92153 15.3547 6.43683 12.7353 8.73439 11.1937L8.77868 11.164V11.1107V8.67875C8.77868 7.13905 10.0318 5.88589 11.5715 5.88589H13.5001H15.4287C16.9684 5.88589 18.2215 7.13905 18.2215 8.67875V11.1107ZM16.3595 10.2435L16.493 10.2909V10.1493V8.67875C16.493 8.0922 16.0152 7.61446 15.4287 7.61446H11.5715C10.985 7.61446 10.5072 8.0922 10.5072 8.67875V10.1493V10.2909L10.6407 10.2435C11.5372 9.92498 12.4969 9.74303 13.5001 9.74303C14.5033 9.74303 15.463 9.92498 16.3595 10.2435ZM6.6501 18.3216C6.6501 22.099 9.72273 25.1716 13.5001 25.1716C17.2775 25.1716 20.3501 22.099 20.3501 18.3216C20.3501 14.5442 17.2775 11.4716 13.5001 11.4716C9.72273 11.4716 6.6501 14.5442 6.6501 18.3216Z" fill="#313131" stroke="#F7F7F7" stroke-width="0.2"/>
<path d="M13.1008 17.4572H13.1422L13.1715 17.4279L15.7818 14.8176C16.1198 14.4796 16.6659 14.4796 17.0039 14.8176C17.3418 15.1556 17.3418 15.7017 17.0039 16.0397L14.111 18.9325L14.1108 18.9327C13.9494 19.095 13.7291 19.1858 13.5 19.1858H10.6071C10.1301 19.1858 9.74282 18.7986 9.74282 18.3215C9.74282 17.8444 10.1301 17.4572 10.6071 17.4572H13.1008Z" fill="#313131" stroke="#F7F7F7" stroke-width="0.2"/>
<path d="M3.37248 14.7095L3.37257 14.7096C3.76913 14.9739 3.87647 15.5107 3.61188 15.9084L2.04015 18.266L2.00317 18.3215L2.04015 18.377L3.61188 20.7346C3.87647 21.1323 3.76913 21.6691 3.37257 21.9334C3.22469 22.032 3.05801 22.0786 2.89382 22.0786C2.61436 22.0786 2.3406 21.9438 2.17382 21.6932L2.17378 21.6931L0.245205 18.8002C0.0515983 18.5098 0.0515983 18.1322 0.245205 17.8418L2.17378 14.9489C2.43832 14.5521 2.9741 14.4433 3.37248 14.7095Z" fill="#313131" stroke="#F7F7F7" stroke-width="0.2"/>
<path d="M23.6275 14.7096L23.6275 14.7096L23.6278 14.7094C24.024 14.4435 24.5608 14.5519 24.8264 14.9491L26.7549 17.8418C26.9485 18.1322 26.9485 18.5108 26.7549 18.8012L24.8264 21.694C24.8263 21.694 24.8263 21.694 24.8263 21.694C24.6596 21.9437 24.3857 22.0786 24.1063 22.0786C23.9421 22.0786 23.7754 22.032 23.6275 21.9334C23.2309 21.669 23.1237 21.1314 23.3881 20.7346L24.9599 18.377L24.9969 18.3215L24.9599 18.266L23.3882 15.9084C23.3882 15.9084 23.3882 15.9084 23.3881 15.9083C23.1236 15.5106 23.231 14.9739 23.6275 14.7096Z" fill="#313131" stroke="#F7F7F7" stroke-width="0.2"/>
</svg>
