<svg width="24" height="24" viewBox="0 0 24 24" fill="none" xmlns="http://www.w3.org/2000/svg">
<path d="M11.1104 15.8447C11.278 15.6766 11.278 15.4047 11.1104 15.2367C10.9425 15.0692 10.6706 15.0692 10.5026 15.2367C10.3351 15.4047 10.3351 15.6766 10.5026 15.8447C10.6706 16.0122 10.9425 16.0122 11.1104 15.8447Z" fill="#313131" stroke="#313131" stroke-width="0.3"/>
<path d="M9.07568 5.64832C9.07568 8.25381 11.1954 10.3737 13.8009 10.3737C16.4064 10.3737 18.5261 8.25381 18.5261 5.64832C18.5261 3.04283 16.4064 0.923096 13.8009 0.923096C11.1954 0.923096 9.07568 3.04283 9.07568 5.64832ZM17.6671 5.64832C17.6671 7.78015 15.9327 9.51451 13.8009 9.51451C11.6691 9.51451 9.93472 7.78015 9.93472 5.64832C9.93472 3.51667 11.6691 1.7823 13.8009 1.7823C15.9327 1.7823 17.6671 3.51667 17.6671 5.64832Z" fill="#313131" stroke="#313131" stroke-width="0.3"/>
<path d="M5.94792 22.7961C6.11442 22.964 6.3855 22.9658 6.55418 22.7997L8.63683 20.7479C8.99065 20.3941 9.09824 19.8702 8.94264 19.4149L9.39063 18.9828C9.63182 18.7498 9.94939 18.6214 10.2851 18.6214H15.9957C17.0089 18.6214 17.9664 18.2324 18.6924 17.5259C18.7222 17.4969 18.4656 17.7992 22.5883 12.8718C23.1997 12.1484 23.1083 11.0621 22.3842 10.45C21.6646 9.84355 20.5867 9.93066 19.9735 10.6417L17.4387 13.247C17.1186 12.853 16.6305 12.6075 16.1032 12.6075H11.313C10.6314 12.3223 9.9081 12.178 9.16185 12.178C7.09331 12.178 5.2871 13.1334 4.31779 14.9246C3.90942 14.8472 3.47872 14.9708 3.16888 15.2806L1.12534 17.3302C0.9585 17.4975 0.958164 17.7683 1.12467 17.9361L5.94792 22.7961ZM9.16168 13.037C9.81964 13.037 10.4558 13.1694 11.0528 13.4306C11.1072 13.4544 11.1658 13.4667 11.225 13.4667H16.1032C16.5689 13.4667 16.9624 13.8465 16.9624 14.3257C16.9624 14.7996 16.577 15.1849 16.1032 15.1849H12.5983C12.3612 15.1849 12.1688 15.3773 12.1688 15.6145C12.1688 15.8518 12.3612 16.044 12.5983 16.044H16.1032C17.0507 16.044 17.8214 15.2732 17.8214 14.3257C17.8214 14.2502 17.816 14.1753 17.8063 14.1012C20.2584 11.5806 20.6041 11.2264 20.6189 11.2088C20.9251 10.8474 21.4686 10.8016 21.8301 11.1064C22.192 11.4124 22.2378 11.9556 21.9308 12.319L18.0779 16.925C17.5153 17.4651 16.7766 17.7624 15.9957 17.7624H10.2851C9.72548 17.7624 9.19576 17.9764 8.79393 18.3646L8.42886 18.7169L5.06353 15.3518C5.85006 13.8762 7.32594 13.037 9.16168 13.037ZM3.77682 15.8877C3.91848 15.7461 4.13601 15.7205 4.30873 15.8273C4.38308 15.8726 4.16958 15.6782 8.02939 19.5327C8.2011 19.7044 8.19186 19.978 8.03174 20.1381L6.25625 21.8872L2.03541 17.6342L3.77682 15.8877Z" fill="#313131" stroke="#313131" stroke-width="0.3"/>
<path d="M13.2856 3.07105V3.57442C12.7856 3.75166 12.4264 4.22919 12.4264 4.78929C12.4264 5.49979 13.0044 6.07802 13.7151 6.07802C13.9519 6.07802 14.1446 6.27071 14.1446 6.50754C14.1446 6.74438 13.9519 6.93706 13.7151 6.93706C13.5317 6.93706 13.3334 6.82175 13.1574 6.61211C13.0046 6.4305 12.7337 6.40717 12.5521 6.55974C12.3705 6.71248 12.347 6.98339 12.4997 7.165C12.7293 7.43809 12.9994 7.62843 13.2856 7.72443V8.22579C13.2856 8.46313 13.4779 8.65531 13.7151 8.65531C13.9523 8.65531 14.1446 8.46313 14.1446 8.22579V7.72242C14.6447 7.54501 15.0038 7.06748 15.0038 6.50754C15.0038 5.79688 14.4258 5.21881 13.7151 5.21881C13.4783 5.21881 13.2856 5.02613 13.2856 4.78929C13.2856 4.55246 13.4783 4.35961 13.7151 4.35961C13.8674 4.35961 14.028 4.43732 14.1797 4.58419C14.3502 4.74918 14.6222 4.74465 14.7872 4.57428C14.9521 4.40375 14.9476 4.13184 14.7772 3.96684C14.5592 3.75586 14.341 3.63652 14.1446 3.5714V3.07105C14.1446 2.83371 13.9523 2.64136 13.7151 2.64136C13.4779 2.64136 13.2856 2.83371 13.2856 3.07105Z" fill="#313131" stroke="#313131" stroke-width="0.3"/>
</svg>
