<svg width="33" height="37" viewBox="0 0 33 37" fill="none" xmlns="http://www.w3.org/2000/svg">
<path d="M31.0045 15.7776C31.5888 15.7776 32.0625 15.3039 32.0625 14.7196V6.20466C32.0625 3.27756 29.6841 0.877512 26.7325 0.877512C25.9839 0.877512 6.22092 0.877441 5.47649 0.877441C2.56011 0.877441 0.1875 3.25013 0.1875 6.1665V35.9147C0.1875 36.8622 1.35162 37.3337 2.00972 36.6464L3.3633 35.2329L4.79314 36.6628C5.20634 37.0759 5.87614 37.0759 6.28934 36.6629L7.64426 35.3084L9.01308 36.6659C9.42551 37.0748 10.0906 37.0749 10.5031 36.666L11.8935 35.2875L13.2845 36.6661C13.6966 37.0748 14.361 37.0749 14.7735 36.6668L16.5554 34.9034C18.1856 36.2094 20.2523 36.9918 22.4988 36.9918C27.7494 36.9918 32.0211 32.7201 32.0211 27.4694C32.0211 22.5652 28.2943 18.5156 23.5241 18.0025V15.7776H31.0045ZM29.9464 6.20466V13.6616H23.5241V6.20466C23.5241 4.434 24.9646 2.99352 26.7353 2.99352C28.5059 2.99352 29.9464 4.434 29.9464 6.20466ZM14.0299 34.4256L12.6382 33.0463C12.2257 32.6374 11.5609 32.6376 11.1485 33.0464L9.75836 34.4247L8.38644 33.0641C7.97275 32.6539 7.30534 32.6552 6.89341 33.0671L5.54159 34.4185L4.09511 32.9721C3.6628 32.5398 2.98192 32.5717 2.58276 32.9885L2.30357 33.28V6.1665C2.30357 4.41693 3.72692 2.99352 5.47649 2.99352H22.488C21.8108 3.88706 21.4081 4.99956 21.4081 6.20466V18.01C13.9822 18.8607 10.4115 27.5944 15.0598 33.4066L14.0299 34.4256ZM29.905 27.4694C29.905 31.5533 26.5826 34.8757 22.4988 34.8757C18.4149 34.8757 15.0925 31.5533 15.0925 27.4694C15.0925 23.3856 18.4149 20.0632 22.4988 20.0632C26.5826 20.0632 29.905 23.3856 29.905 27.4694Z" fill="#313131"/>
<path d="M21.7936 24.5322V26.6932H19.652C19.0677 26.6932 18.5939 27.167 18.5939 27.7513C18.5939 28.3356 19.0677 28.8093 19.652 28.8093H22.8516C23.4359 28.8093 23.9097 28.3356 23.9097 27.7513V24.5322C23.9097 23.9478 23.4359 23.4741 22.8516 23.4741C22.2673 23.4741 21.7936 23.9478 21.7936 24.5322Z" fill="#313131"/>
<path d="M13.7763 10.5086C12.7641 9.71973 11.4433 9.59728 11.1483 9.06473C11.0442 8.87675 11.1551 8.56717 11.3811 8.41524C11.7026 8.19905 12.3904 8.28425 12.632 8.50715C13.0616 8.90342 13.731 8.87626 14.1271 8.44677C14.5233 8.0172 14.4962 7.34782 14.0667 6.95169C13.738 6.64853 13.3211 6.43219 12.8704 6.30593V6.21868C12.8704 5.63436 12.3966 5.16064 11.8123 5.16064C11.228 5.16064 10.7543 5.63436 10.7543 6.21868V6.37675C9.2164 6.95303 8.55583 8.75141 9.29723 10.09C9.81673 11.0279 10.7282 11.3878 11.4605 11.6771C12.0404 11.9061 12.8944 12.2202 12.8238 12.8537C12.7901 13.1557 12.5617 13.4554 12.2554 13.5996C11.8185 13.8051 10.94 13.6781 10.4125 13.333C9.92359 13.0132 9.26775 13.1502 8.94794 13.6392C8.62806 14.1282 8.76518 14.7839 9.25413 15.1038C9.66522 15.3728 10.1908 15.5896 10.7543 15.7104V15.845C10.7543 16.4293 11.228 16.903 11.8123 16.903C12.3966 16.903 12.8704 16.4293 12.8704 15.845V15.6291C15.0058 14.8893 15.7897 12.0775 13.7763 10.5086Z" fill="#313131"/>
<path d="M10.835 18.9404H5.54479C4.96047 18.9404 4.48676 19.4141 4.48676 19.9985C4.48676 20.5828 4.96047 21.0565 5.54479 21.0565H10.835C11.4193 21.0565 11.893 20.5828 11.893 19.9985C11.893 19.4141 11.4193 18.9404 10.835 18.9404Z" fill="#313131"/>
<path d="M10.8349 23.1802H5.54119C4.95687 23.1802 4.48315 23.6539 4.48315 24.2382C4.48315 24.8225 4.95687 25.2963 5.54119 25.2963H10.8349C11.4192 25.2963 11.8929 24.8225 11.8929 24.2382C11.8929 23.6539 11.4192 23.1802 10.8349 23.1802Z" fill="#313131"/>
<path d="M10.8348 27.4038H5.53759C4.95327 27.4038 4.47955 27.8775 4.47955 28.4618C4.47955 29.0462 4.95327 29.5199 5.53759 29.5199H10.8348C11.4191 29.5199 11.8929 29.0462 11.8929 28.4618C11.8929 27.8775 11.4191 27.4038 10.8348 27.4038Z" fill="#313131"/>
</svg>
