<svg width="17" height="17" viewBox="0 0 17 17" fill="none" xmlns="http://www.w3.org/2000/svg">
<path d="M16.4532 12.2366C16.4231 12.2117 13.0254 9.79427 12.108 9.94217C11.6654 10.0204 11.4127 10.3224 10.9055 10.9265C10.8239 11.0239 10.6273 11.2568 10.4754 11.4229C10.1549 11.3184 9.8422 11.1912 9.53983 11.0421C7.97896 10.2822 6.71783 9.02104 5.95793 7.46017C5.80882 7.1578 5.68156 6.84515 5.57713 6.5246C5.74373 6.37217 5.9772 6.17553 6.07693 6.09167C6.67817 5.58733 6.97963 5.33403 7.05783 4.8909C7.2182 3.97347 4.78833 0.576867 4.7634 0.546267C4.65274 0.389332 4.50862 0.258924 4.34144 0.164456C4.17426 0.0699886 3.98819 0.0138182 3.79667 0C2.8118 0 0 3.64707 0 4.2619C0 4.2976 0.0515667 7.92653 4.52653 12.4786C9.07347 16.9484 12.7024 17 12.7381 17C13.3524 17 17 14.1882 17 13.2033C16.986 13.0118 16.9297 12.8257 16.8352 12.6585C16.7406 12.4914 16.6101 12.3473 16.4532 12.2366ZM12.6752 15.8633C12.1833 15.8213 9.13467 15.4196 5.32667 11.679C1.56797 7.8523 1.1764 4.79853 1.1373 4.32537C1.88007 3.15953 2.77712 2.09951 3.80403 1.17413C3.8267 1.1968 3.85673 1.2308 3.89527 1.275C4.68283 2.3501 5.36128 3.50102 5.92053 4.7107C5.73867 4.89366 5.54644 5.06602 5.3448 5.22693C5.03211 5.46519 4.74497 5.73523 4.488 6.03273C4.44452 6.09374 4.41357 6.16277 4.39693 6.23581C4.3803 6.30886 4.37832 6.38448 4.3911 6.4583C4.51102 6.97778 4.69469 7.48045 4.93793 7.95487C5.8094 9.74441 7.25547 11.1903 9.04513 12.0615C9.51946 12.3051 10.0221 12.489 10.5417 12.6089C10.6155 12.622 10.6912 12.6201 10.7643 12.6035C10.8374 12.5868 10.9064 12.5557 10.9673 12.512C11.2658 12.254 11.5368 11.9657 11.7759 11.6518C11.9538 11.4399 12.1913 11.1571 12.2814 11.0772C13.4941 11.6359 14.6476 12.3152 15.7244 13.1047C15.7715 13.1444 15.8049 13.175 15.827 13.1948C14.9016 14.2221 13.8413 15.1193 12.6752 15.8621V15.8633Z" fill="#313131"/>
</svg>
