<svg width="22" height="22" viewBox="0 0 22 22" fill="none" xmlns="http://www.w3.org/2000/svg">
<path fill-rule="evenodd" clip-rule="evenodd" d="M4.40478 0.395229C2.81808 0.7399 1.26987 1.97222 0.568945 3.44819C-1.48574 7.77483 2.34006 12.5204 6.99736 11.4223C7.73711 11.2479 8.56267 10.8708 9.00925 10.5034L9.28389 10.2773L10.4616 11.4471L11.6393 12.6168L11.3841 12.9575C10.9631 13.5196 10.6651 14.1973 10.4815 15.0106L10.3078 15.7798H8.74256H7.17748L7.03178 15.377C6.9517 15.1554 6.69064 14.762 6.45163 14.5027C5.23066 13.1782 3.06734 13.5434 2.30785 15.2022C1.63583 16.6701 2.44495 18.3406 4.02977 18.7569C5.22316 19.0703 6.64045 18.3171 7.01976 17.168L7.15023 16.7725H8.72513H10.3L10.4828 17.5169C10.748 18.5966 11.1514 19.3444 11.9004 20.1452C14.064 22.458 17.7356 22.5173 19.9728 20.2754C24.0057 16.2342 20.217 9.45175 14.6587 10.7623C13.9189 10.9367 13.0934 11.3137 12.6468 11.6811L12.3721 11.9072L11.1944 10.7375L10.0167 9.56778L10.2719 9.22708C10.6929 8.66491 10.9909 7.98726 11.1746 7.17395L11.3483 6.40475L12.9081 6.40519L14.4677 6.40552L14.6718 6.90185C14.9174 7.49909 15.6695 8.19186 16.2663 8.37064C17.5209 8.74653 18.8054 8.16792 19.3482 6.98236C20.0202 5.51445 19.2111 3.84393 17.6263 3.42767C16.4329 3.11422 15.0156 3.86742 14.6363 5.01658L14.5058 5.4121H12.9309H11.356L11.1732 4.66761C10.7712 3.03083 9.75231 1.69163 8.34748 0.953321C7.06509 0.27953 5.77684 0.0971024 4.40478 0.395229ZM6.41622 1.33042C8.89344 1.73564 10.6629 4.18385 10.244 6.62666C10.122 7.33773 9.81595 8.17035 9.67709 8.16869C9.64279 8.16825 9.49367 7.99024 9.34576 7.77296C9.0205 7.29549 8.34693 6.73552 7.7145 6.41699L7.24796 6.18195L7.4659 5.8246C7.72299 5.40294 7.75531 4.58169 7.5356 4.05569C7.05979 2.91712 5.41982 2.49954 4.41967 3.26245C3.6572 3.84404 3.3958 4.95757 3.82429 5.79813C4.08669 6.31287 4.08426 6.29445 3.89202 6.29445C3.59907 6.29445 2.44241 7.16214 2.06642 7.66399C1.85807 7.94204 1.65083 8.16947 1.60583 8.16947C1.56083 8.16947 1.42792 7.90884 1.31046 7.59042C0.661151 5.82912 1.06626 3.96271 2.38307 2.64866C3.06337 1.96991 3.7901 1.57031 4.70665 1.37112C5.4818 1.20281 5.61625 1.19961 6.41622 1.33042ZM6.36957 4.19036C6.90075 4.72154 6.75361 5.48765 6.05126 5.84776C5.68475 6.03559 5.19857 5.89033 4.86415 5.49283C4.03772 4.51066 5.45964 3.28043 6.36957 4.19036ZM17.9244 4.64996C18.2385 4.84033 18.6038 5.52052 18.6038 5.91493C18.6038 6.32942 18.2947 6.92589 17.956 7.16523C17.2629 7.65494 16.4273 7.54586 15.8519 6.89049C15.3201 6.28475 15.4111 5.28879 16.0512 4.70952C16.4859 4.3161 17.3296 4.2893 17.9244 4.64996ZM7.18829 7.29505C7.80097 7.58667 8.56454 8.29333 8.83763 8.82131C9.0119 9.15848 9.00914 9.17205 8.7087 9.44028C8.53973 9.59106 8.03403 9.89933 7.5848 10.1253C6.80876 10.5157 6.71545 10.5358 5.70978 10.5321C4.87551 10.529 4.5165 10.4751 4.01378 10.2771C3.30425 9.99771 2.46381 9.40609 2.41473 9.15153C2.37248 8.93215 2.90543 8.16064 3.36128 7.78145C3.56168 7.61479 4.00838 7.35902 4.35393 7.21321C5.17772 6.86556 6.35755 6.89964 7.18829 7.29505ZM17.111 11.7577C18.0293 11.9968 18.7396 12.415 19.383 13.0955C20.6463 14.4313 20.9842 16.269 20.297 18.0681C20.1985 18.3261 20.0875 18.5368 20.0502 18.5364C20.0129 18.536 19.8614 18.3579 19.7135 18.1407C19.3887 17.6639 18.7149 17.1033 18.0851 16.7861L17.6215 16.5527L17.8345 16.0836C18.1902 15.2999 18.051 14.4374 17.468 13.8131C16.6083 12.8924 15.0315 13.0287 14.3067 14.0865C13.9387 14.6235 13.8761 15.5698 14.1713 16.135L14.3855 16.5454L13.9048 16.778C13.338 17.0524 12.4321 17.8401 12.2134 18.2489C12.1286 18.4075 12.0214 18.5372 11.9754 18.5372C11.9293 18.5372 11.7793 18.2517 11.6419 17.903C11.446 17.4057 11.3912 17.0426 11.3881 16.2209C11.3843 15.2404 11.4096 15.1197 11.7812 14.3459C12.7843 12.2562 14.9631 11.1982 17.111 11.7577ZM16.8397 14.6476C17.3518 15.2987 16.8449 16.221 15.975 16.221C15.6192 16.221 15.4806 16.1561 15.2496 15.8816C14.8869 15.4506 14.8849 15.0085 15.2436 14.5822C15.6873 14.0549 16.3964 14.0839 16.8397 14.6476ZM5.18412 14.8273C5.76493 15.0699 6.14049 15.6011 6.14049 16.1797C6.14049 16.4511 6.06681 16.8156 5.9767 16.9898C5.42247 18.0617 3.81679 18.0499 3.26234 16.9699C3.00525 16.469 2.99675 16.0956 3.23124 15.6012C3.59301 14.839 4.42386 14.5096 5.18412 14.8273ZM17.266 17.529C17.996 17.8064 18.5529 18.2507 19.0065 18.9179L19.3849 19.4747L18.9743 19.8347C18.0472 20.6471 16.5607 21.0658 15.3149 20.8652C14.4684 20.7287 13.6035 20.346 13.0561 19.8653L12.647 19.5062L12.8956 19.0625C13.2348 18.4572 13.9895 17.8163 14.6726 17.5536C15.4188 17.2666 16.5473 17.2559 17.266 17.529Z" fill="#313131"/>
</svg>
