<svg width="70" height="70" viewBox="0 0 70 70" fill="none" xmlns="http://www.w3.org/2000/svg">
<rect opacity="0.1" width="70" height="70" rx="15" fill="#AD00FF"/>
<path d="M23.6521 44.492L21.9725 45.6122V41.1979H26.6209V45.6122L24.9413 44.492C24.5508 44.2317 24.0426 44.2317 23.6521 44.492Z" fill="#AD00FF"/>
<path d="M33.5934 41.9726V55.9176C33.5934 56.3453 33.2463 56.6924 32.8187 56.6924H15.7747C15.3471 56.6924 15 56.3453 15 55.9176V41.9726C15 41.5449 15.3471 41.1979 15.7747 41.1979H19.6484V47.783C19.6484 48.7065 20.6803 49.2643 21.455 48.7499L24.2967 46.8549L27.1384 48.7499C27.9178 49.2659 28.9451 48.7034 28.9451 47.783V41.1979H32.8187C33.2463 41.1979 33.5934 41.5449 33.5934 41.9726Z" fill="#AD00FF"/>
<path d="M45.3444 44.492L43.6648 45.6122V41.1979H48.3131V45.6122L46.6335 44.492C46.2431 44.2317 45.7349 44.2317 45.3444 44.492Z" fill="#AD00FF"/>
<path d="M55.2857 41.9726V55.9176C55.2857 56.3453 54.9387 56.6924 54.511 56.6924H37.467C37.0394 56.6924 36.6923 56.3453 36.6923 55.9176V41.9726C36.6923 41.5449 37.0394 41.1979 37.467 41.1979H41.3407V47.783C41.3407 48.7065 42.3726 49.2643 43.1473 48.7499L45.989 46.8549L48.8307 48.7499C49.6101 49.2659 50.6374 48.7034 50.6374 47.783V41.1979H54.511C54.9387 41.1979 55.2857 41.5449 55.2857 41.9726Z" fill="#AD00FF"/>
<path d="M15.7747 31.9011H54.511C54.9386 31.9011 55.2857 32.2482 55.2857 32.6759V34.2253C55.2857 34.653 54.9386 35 54.511 35H15.7747C15.3471 35 15 34.653 15 34.2253V32.6759C15 32.2482 15.3471 31.9011 15.7747 31.9011Z" fill="#AD00FF"/>
<path d="M38.2417 17.1814V28.0275C38.2417 28.4552 37.8947 28.8023 37.467 28.8023H32.8187C32.391 28.8023 32.0439 28.4552 32.0439 28.0275V17.1814C32.0439 16.7537 32.391 16.4066 32.8187 16.4066H37.467C37.8947 16.4066 38.2417 16.7537 38.2417 17.1814Z" fill="#AD00FF"/>
<path d="M52.1868 14.0825V28.0275C52.1868 28.4552 51.8397 28.8022 51.4121 28.8022H46.7637C46.3361 28.8022 45.989 28.4552 45.989 28.0275V14.0825C45.989 13.6548 46.3361 13.3077 46.7637 13.3077H51.4121C51.8397 13.3077 52.1868 13.6548 52.1868 14.0825Z" fill="#AD00FF"/>
<path d="M24.2967 21.8297V28.0275C24.2967 28.4552 23.9496 28.8022 23.522 28.8022H18.8736C18.446 28.8022 18.0989 28.4552 18.0989 28.0275V21.8297C18.0989 21.4021 18.446 21.055 18.8736 21.055H23.522C23.9496 21.055 24.2967 21.4021 24.2967 21.8297Z" fill="#AD00FF"/>
</svg>
