<svg width="28" height="21" viewBox="0 0 28 21" fill="none" xmlns="http://www.w3.org/2000/svg">
<path fill-rule="evenodd" clip-rule="evenodd" d="M21.6364 10.3835C21.1845 10.3835 20.7903 10.0507 20.7252 9.59021C20.6552 9.08547 21.0052 8.62004 21.5099 8.55004C22.7871 8.37074 23.7512 7.26303 23.7536 5.97111C23.7536 4.69024 22.835 3.60709 21.5689 3.39955C21.0678 3.31727 20.7277 2.84324 20.81 2.34096C20.8935 1.83869 21.3638 1.5022 21.8685 1.58202C24.0275 1.93693 25.5957 3.78394 25.5957 5.97357C25.5908 8.17794 23.944 10.0692 21.7642 10.3749C21.7212 10.3811 21.6782 10.3835 21.6364 10.3835Z" fill="#313131"/>
<mask id="mask0_561_12742" style="mask-type:luminance" maskUnits="userSpaceOnUse" x="22" y="12" width="6" height="7">
<path fill-rule="evenodd" clip-rule="evenodd" d="M22.9766 12.6616H27.6358V18.2242H22.9766V12.6616Z" fill="white"/>
</mask>
<g mask="url(#mask0_561_12742)">
<path fill-rule="evenodd" clip-rule="evenodd" d="M25.2893 18.2242C24.9185 18.2242 24.5685 17.9982 24.4285 17.6311C24.2467 17.1558 24.4862 16.6228 24.9614 16.4423C25.7941 16.1255 25.7941 15.7755 25.7941 15.6072C25.7941 15.0693 25.11 14.6935 23.7616 14.4921C23.2593 14.416 22.9118 13.9481 22.9867 13.4434C23.0616 12.9399 23.5283 12.6046 24.0355 12.6697C27.0111 13.1155 27.6362 14.513 27.6362 15.6072C27.6362 16.2753 27.3734 17.4947 25.6172 18.164C25.5092 18.2046 25.3986 18.2242 25.2893 18.2242Z" fill="#313131"/>
</g>
<path fill-rule="evenodd" clip-rule="evenodd" d="M14.2677 15.0099C11.3498 15.0099 7.87069 15.3684 7.87069 17.0755C7.87069 18.796 11.3498 19.157 14.2677 19.157C17.1855 19.157 20.6634 18.7996 20.6634 17.0963C20.6634 15.3721 17.1855 15.0099 14.2677 15.0099ZM14.2676 21C12.2303 21 6.02856 21 6.02856 17.0764C6.02856 13.1687 12.2303 13.1687 14.2676 13.1687C16.305 13.1687 22.5055 13.1687 22.5055 17.0973C22.5055 21 16.5211 21 14.2676 21Z" fill="#313131"/>
<path fill-rule="evenodd" clip-rule="evenodd" d="M14.2678 2.22138C12.1899 2.22138 10.5001 3.91242 10.5001 5.9903C10.4964 6.99731 10.8821 7.93923 11.5882 8.65028C12.2943 9.36132 13.235 9.75553 14.2371 9.75922L14.2678 10.6803V9.75922C16.3457 9.75922 18.0367 8.0694 18.0367 5.9903C18.0367 3.91242 16.3457 2.22138 14.2678 2.22138ZM14.2678 11.6012H14.2346C12.7364 11.5963 11.3327 11.0092 10.2815 9.9482C9.22783 8.88838 8.65187 7.48103 8.65801 5.98648C8.65801 2.89667 11.1743 0.37915 14.2678 0.37915C17.3625 0.37915 19.8788 2.89667 19.8788 5.99016C19.8788 9.08364 17.3625 11.6012 14.2678 11.6012Z" fill="#313131"/>
<path fill-rule="evenodd" clip-rule="evenodd" d="M6.89798 10.3838C6.85623 10.3838 6.81325 10.3813 6.77026 10.3752C4.59046 10.0694 2.94485 8.17817 2.93994 5.97626C2.93994 3.78417 4.50818 1.93716 6.66711 1.58225C7.18412 1.5012 7.64219 1.84137 7.72569 2.3412C7.80797 2.84347 7.4678 3.3175 6.96675 3.39978C5.70062 3.60733 4.78203 4.69048 4.78203 5.9738C4.78449 7.26326 5.74852 8.3722 7.02447 8.55027C7.5292 8.62027 7.8792 9.08571 7.8092 9.59044C7.74412 10.051 7.34991 10.3838 6.89798 10.3838Z" fill="#313131"/>
<path fill-rule="evenodd" clip-rule="evenodd" d="M3.24649 18.2239C3.13719 18.2239 3.02667 18.2043 2.9186 18.1638C1.16124 17.4933 0.898438 16.2738 0.898438 15.607C0.898438 14.514 1.52352 13.1152 4.50034 12.6694C5.00753 12.6056 5.47174 12.9396 5.54788 13.4431C5.62279 13.9478 5.27525 14.4157 4.77297 14.4919C3.42456 14.6933 2.74053 15.0691 2.74053 15.607C2.74053 15.7752 2.74053 16.124 3.57438 16.442C4.04964 16.6226 4.28911 17.1555 4.10736 17.6308C3.96736 17.998 3.61736 18.2239 3.24649 18.2239Z" fill="#313131"/>
</svg>
