<svg width="20" height="22" viewBox="0 0 20 22" fill="none" xmlns="http://www.w3.org/2000/svg">
<path fill-rule="evenodd" clip-rule="evenodd" d="M18.5281 6.6407L17.9057 5.56061C17.3791 4.64669 16.2121 4.33141 15.297 4.85581V4.85581C14.8613 5.11243 14.3415 5.18524 13.8521 5.05818C13.3628 4.93111 12.944 4.61461 12.6883 4.17846C12.5237 3.90124 12.4353 3.58548 12.432 3.26313V3.26313C12.4468 2.74631 12.2518 2.24549 11.8915 1.87476C11.5311 1.50403 11.036 1.29495 10.5189 1.29517H9.26494C8.7584 1.29516 8.27275 1.497 7.91544 1.85603C7.55812 2.21507 7.35861 2.70168 7.36105 3.20821V3.20821C7.34603 4.25402 6.49392 5.0939 5.448 5.09379C5.12565 5.09045 4.80989 5.00203 4.53267 4.8375V4.8375C3.6175 4.3131 2.45055 4.62838 1.92397 5.54231L1.25578 6.6407C0.729846 7.55348 1.04084 8.7197 1.95143 9.2494V9.2494C2.54334 9.59113 2.90797 10.2227 2.90797 10.9061C2.90797 11.5896 2.54334 12.2212 1.95143 12.5629V12.5629C1.04199 13.089 0.730663 14.2524 1.25578 15.1624V15.1624L1.88736 16.2517C2.13408 16.6969 2.54804 17.0254 3.03763 17.1645C3.52722 17.3037 4.05208 17.242 4.49606 16.9931V16.9931C4.93252 16.7384 5.45262 16.6687 5.94078 16.7993C6.42893 16.9299 6.84467 17.2501 7.0956 17.6888C7.26013 17.966 7.34854 18.2817 7.35189 18.6041V18.6041C7.35189 19.6606 8.20839 20.5171 9.26494 20.5171H10.5189C11.5719 20.5171 12.4269 19.6662 12.432 18.6132V18.6132C12.4295 18.1051 12.6303 17.6171 12.9896 17.2578C13.3489 16.8985 13.8369 16.6978 14.345 16.7002C14.6666 16.7088 14.9811 16.7969 15.2604 16.9565V16.9565C16.1731 17.4824 17.3394 17.1714 17.8691 16.2608V16.2608L18.5281 15.1624C18.7832 14.7246 18.8532 14.2031 18.7226 13.7135C18.5921 13.2238 18.2717 12.8064 17.8324 12.5537V12.5537C17.3932 12.301 17.0728 11.8837 16.9422 11.394C16.8117 10.9044 16.8817 10.3829 17.1368 9.94505C17.3027 9.65543 17.5428 9.41529 17.8324 9.2494V9.2494C18.7376 8.71998 19.0478 7.56058 18.5281 6.64986V6.64986V6.6407Z" stroke="#313131" stroke-width="1.5" stroke-linecap="round" stroke-linejoin="round"/>
<circle cx="9.89641" cy="10.9062" r="2.63616" stroke="#313131" stroke-width="1.5" stroke-linecap="round" stroke-linejoin="round"/>
</svg>
