<svg width="70" height="70" viewBox="0 0 70 70" fill="none" xmlns="http://www.w3.org/2000/svg">
<rect opacity="0.1" width="70" height="70" rx="15" fill="#FF7A00"/>
<path d="M27.7027 15.0179C27.5073 15.0179 28.218 15.0179 16.7762 15.0179C16.3409 15.0179 15.7635 14.4849 22.1062 19.2375L27.7027 15.0179Z" fill="#FF7A00"/>
<path d="M29.2129 23.9013C29.2129 16.1816 29.2573 16.5991 29.1063 16.2083C22.0529 21.4939 22.5237 21.2362 22.1062 21.2362C21.6887 21.2362 22.1062 21.4495 15.1061 16.2083C14.9995 16.608 14.9995 16.226 14.9995 23.9013C14.9995 24.3725 15.1867 24.8244 15.5199 25.1576C15.8531 25.4908 16.305 25.6779 16.7762 25.6779H27.4363C27.9075 25.6779 28.3594 25.4908 28.6926 25.1576C29.0257 24.8244 29.2129 24.3725 29.2129 23.9013Z" fill="#FF7A00"/>
<path d="M47.868 21.5828L50.3199 20.348L47.868 19.1221V21.5828Z" fill="#FF7A00"/>
<path d="M54.0864 15.0178H43.4263C42.9551 15.0178 42.5032 15.205 42.17 15.5382C41.8368 15.8714 41.6497 16.3233 41.6497 16.7945V23.9012C41.6497 24.3724 41.8368 24.8243 42.17 25.1575C42.5032 25.4907 42.9551 25.6779 43.4263 25.6779H54.0864C54.5576 25.6779 55.0095 25.4907 55.3427 25.1575C55.6759 24.8243 55.8631 24.3724 55.8631 23.9012V16.7945C55.8631 16.3233 55.6759 15.8714 55.3427 15.5382C55.0095 15.205 54.5576 15.0178 54.0864 15.0178ZM51.1193 21.938C48.4543 23.2527 48.4543 23.3504 47.868 23.3504C47.3968 23.3504 46.9449 23.1633 46.6117 22.8301C46.2785 22.4969 46.0914 22.045 46.0914 21.5738C46.0914 19.4062 45.8426 18.2869 46.9797 17.6118C48.1168 16.9366 48.8541 17.6118 51.1638 18.7577C51.4574 18.9092 51.703 19.1395 51.873 19.4228C52.043 19.7061 52.1305 20.0312 52.1259 20.3616C52.1213 20.692 52.0247 21.0145 51.8469 21.293C51.6691 21.5714 51.4171 21.7948 51.1193 21.938Z" fill="#FF7A00"/>
<path d="M48.7564 50.5514C49.7376 50.5514 50.5331 49.756 50.5331 48.7747C50.5331 47.7935 49.7376 46.998 48.7564 46.998C47.7752 46.998 46.9797 47.7935 46.9797 48.7747C46.9797 49.756 47.7752 50.5514 48.7564 50.5514Z" fill="#FF7A00"/>
<path d="M55.0369 46.9981C54.8729 46.999 54.7124 46.951 54.5757 46.8603C54.4391 46.7695 54.3325 46.6402 54.2696 46.4887C54.2067 46.3372 54.1904 46.1704 54.2226 46.0096C54.2548 45.8488 54.3342 45.7012 54.4506 45.5857C54.6041 45.4309 54.6903 45.2218 54.6903 45.0038C54.6903 44.7858 54.6041 44.5767 54.4506 44.4219L53.1092 43.0805C53.0338 43.0024 52.9434 42.9402 52.8435 42.8977C52.7435 42.8552 52.636 42.8333 52.5274 42.8333C52.4187 42.8333 52.3112 42.8552 52.2113 42.8977C52.1113 42.9402 52.0209 43.0024 51.9455 43.0805C51.83 43.197 51.6824 43.2763 51.5215 43.3086C51.3607 43.3408 51.1939 43.3244 51.0425 43.2615C50.891 43.1987 50.7616 43.0921 50.6709 42.9555C50.5802 42.8188 50.5322 42.6583 50.533 42.4942C50.533 42.2751 50.446 42.065 50.2911 41.9101C50.1361 41.7551 49.926 41.6681 49.7069 41.6681H47.8058C47.5867 41.6681 47.3766 41.7551 47.2217 41.9101C47.0667 42.065 46.9797 42.2751 46.9797 42.4942C46.9805 42.6583 46.9325 42.8188 46.8418 42.9555C46.7511 43.0921 46.6218 43.1987 46.4703 43.2615C46.3188 43.3244 46.152 43.3408 45.9912 43.3086C45.8304 43.2763 45.6828 43.197 45.5672 43.0805C45.4918 43.0024 45.4014 42.9402 45.3015 42.8977C45.2015 42.8552 45.094 42.8333 44.9854 42.8333C44.8768 42.8333 44.7692 42.8552 44.6693 42.8977C44.5693 42.9402 44.4789 43.0024 44.4035 43.0805L43.0621 44.4219C42.985 44.498 42.9238 44.5886 42.882 44.6885C42.8403 44.7883 42.8188 44.8955 42.8188 45.0038C42.8188 45.1121 42.8403 45.2193 42.882 45.3192C42.9238 45.419 42.985 45.5096 43.0621 45.5857C43.1743 45.7028 43.25 45.8501 43.2798 46.0095C43.3097 46.1689 43.2925 46.3336 43.2303 46.4834C43.1681 46.6332 43.0636 46.7616 42.9297 46.853C42.7957 46.9445 42.638 46.9949 42.4758 46.9981C42.2567 46.9981 42.0466 47.0852 41.8916 47.2401C41.7367 47.395 41.6497 47.6052 41.6497 47.8243V49.7253C41.6497 49.9444 41.7367 50.1546 41.8916 50.3095C42.0466 50.4644 42.2567 50.5515 42.4758 50.5515C42.6398 50.5506 42.8004 50.5986 42.937 50.6893C43.0737 50.7801 43.1802 50.9094 43.2431 51.0609C43.306 51.2124 43.3224 51.3792 43.2901 51.54C43.2579 51.7008 43.1785 51.8484 43.0621 51.9639C42.9839 52.0393 42.9218 52.1297 42.8793 52.2297C42.8368 52.3297 42.8149 52.4372 42.8149 52.5458C42.8149 52.6544 42.8368 52.7619 42.8793 52.8619C42.9218 52.9619 42.9839 53.0523 43.0621 53.1277L44.4035 54.4691C44.4789 54.5472 44.5693 54.6094 44.6693 54.6519C44.7692 54.6944 44.8768 54.7163 44.9854 54.7163C45.094 54.7163 45.2015 54.6944 45.3015 54.6519C45.4014 54.6094 45.4918 54.5472 45.5672 54.4691C45.6828 54.3526 45.8304 54.2733 45.9912 54.241C46.152 54.2088 46.3188 54.2252 46.4703 54.2881C46.6218 54.3509 46.7511 54.4575 46.8418 54.5941C46.9325 54.7308 46.9805 54.8913 46.9797 55.0554C46.9797 55.2745 47.0667 55.4846 47.2217 55.6395C47.3766 55.7945 47.5867 55.8815 47.8058 55.8815H49.7069C49.926 55.8815 50.1361 55.7945 50.2911 55.6395C50.446 55.4846 50.533 55.2745 50.533 55.0554C50.5322 54.8913 50.5802 54.7308 50.6709 54.5941C50.7616 54.4575 50.891 54.3509 51.0425 54.2881C51.1939 54.2252 51.3607 54.2088 51.5215 54.241C51.6824 54.2733 51.83 54.3526 51.9455 54.4691C52.0209 54.5472 52.1113 54.6094 52.2113 54.6519C52.3112 54.6944 52.4187 54.7163 52.5274 54.7163C52.636 54.7163 52.7435 54.6944 52.8435 54.6519C52.9434 54.6094 53.0338 54.5472 53.1092 54.4691L54.4506 53.1277C54.5288 53.0523 54.591 52.9619 54.6335 52.8619C54.6759 52.7619 54.6978 52.6544 54.6978 52.5458C54.6978 52.4372 54.6759 52.3297 54.6335 52.2297C54.591 52.1297 54.5288 52.0393 54.4506 51.9639C54.3342 51.8484 54.2548 51.7008 54.2226 51.54C54.1904 51.3792 54.2067 51.2124 54.2696 51.0609C54.3325 50.9094 54.4391 50.7801 54.5757 50.6893C54.7124 50.5986 54.8729 50.5506 55.0369 50.5515C55.256 50.5515 55.4662 50.4644 55.6211 50.3095C55.776 50.1546 55.8631 49.9444 55.8631 49.7253V47.8243C55.8631 47.6052 55.776 47.395 55.6211 47.2401C55.4662 47.0852 55.256 46.9981 55.0369 46.9981ZM48.7564 52.3282C48.0536 52.3282 47.3666 52.1198 46.7822 51.7293C46.1979 51.3389 45.7424 50.7839 45.4735 50.1346C45.2046 49.4853 45.1342 48.7709 45.2713 48.0816C45.4084 47.3923 45.7468 46.7591 46.2438 46.2622C46.7407 45.7653 47.3739 45.4268 48.0631 45.2897C48.7524 45.1526 49.4669 45.223 50.1162 45.4919C50.7655 45.7609 51.3204 46.2163 51.7109 46.8007C52.1013 47.385 52.3097 48.072 52.3097 48.7748C52.3097 49.7172 51.9354 50.621 51.269 51.2874C50.6026 51.9538 49.6988 52.3282 48.7564 52.3282Z" fill="#FF7A00"/>
<path d="M20.7027 42.1744L17.558 45.3103C17.0589 45.81 16.7786 46.4873 16.7786 47.1936C16.7786 47.8998 17.0589 48.5771 17.558 49.0768L20.072 51.5908C20.5716 52.0899 21.249 52.3702 21.9552 52.3702C22.6615 52.3702 23.3388 52.0899 23.8385 51.5908L26.9832 48.455L20.7027 42.1744Z" fill="#FF7A00"/>
<path d="M27.6051 50.3383L25.1 52.8523L27.6051 55.3574C27.9465 55.637 28.3797 55.7795 28.8204 55.7572C29.2611 55.7349 29.6778 55.5494 29.9893 55.2369C30.3007 54.9243 30.4847 54.507 30.5055 54.0662C30.5262 53.6254 30.3821 53.1927 30.1013 52.8523L27.6051 50.3383Z" fill="#FF7A00"/>
<path d="M21.7332 40.691L28.4579 47.4157L39.5443 42.1656L26.9832 29.6045L21.7332 40.691Z" fill="#FF7A00"/>
<path d="M32.3398 32.456L36.6927 36.8089C36.8544 36.2062 36.8546 35.5716 36.6932 34.9689C36.5318 34.3662 36.2146 33.8166 35.7734 33.3753C35.3322 32.9341 34.7825 32.6169 34.1798 32.4555C33.5771 32.2941 32.9425 32.2943 32.3398 32.456Z" fill="#FF7A00"/>
<path d="M38.2829 31.7542C38.7715 31.7542 38.7892 31.612 40.7969 29.6044C40.9641 29.4383 41.0586 29.2126 41.0594 28.9768C41.0603 28.7411 40.9674 28.5147 40.8013 28.3474C40.6352 28.1801 40.4095 28.0857 40.1737 28.0848C39.938 28.084 39.7116 28.1769 39.5443 28.343L37.661 30.2262C37.5332 30.3494 37.4452 30.5081 37.4084 30.6818C37.3716 30.8555 37.3878 31.0363 37.4547 31.2007C37.5216 31.3652 37.6363 31.5058 37.7839 31.6044C37.9315 31.7031 38.1053 31.7553 38.2829 31.7542Z" fill="#FF7A00"/>
<path d="M35.4313 29.2313V26.5663C35.4313 26.3307 35.3377 26.1048 35.1712 25.9382C35.0046 25.7716 34.7786 25.678 34.543 25.678C34.3074 25.678 34.0814 25.7716 33.9149 25.9382C33.7483 26.1048 33.6547 26.3307 33.6547 26.5663V29.2313C33.6547 29.4669 33.7483 29.6929 33.9149 29.8595C34.0814 30.0261 34.3074 30.1197 34.543 30.1197C34.7786 30.1197 35.0046 30.0261 35.1712 29.8595C35.3377 29.6929 35.4313 29.4669 35.4313 29.2313Z" fill="#FF7A00"/>
<path d="M42.538 33.673H39.873C39.6374 33.673 39.4114 33.7666 39.2448 33.9332C39.0782 34.0998 38.9846 34.3257 38.9846 34.5613C38.9846 34.7969 39.0782 35.0229 39.2448 35.1895C39.4114 35.3561 39.6374 35.4497 39.873 35.4497H42.538C42.7736 35.4497 42.9995 35.3561 43.1661 35.1895C43.3327 35.0229 43.4263 34.7969 43.4263 34.5613C43.4263 34.3257 43.3327 34.0998 43.1661 33.9332C42.9995 33.7666 42.7736 33.673 42.538 33.673Z" fill="#FF7A00"/>
</svg>
