<svg width="53" height="38" viewBox="0 0 53 38" fill="none" xmlns="http://www.w3.org/2000/svg">
<path fill-rule="evenodd" clip-rule="evenodd" d="M36.001 10.053C36.001 15.6335 31.5522 20.1082 26.004 20.1082C20.4557 20.1082 16.0069 15.6335 16.0069 10.053C16.0069 4.47039 20.4557 0 26.004 0C31.5522 0 36.001 4.47039 36.001 10.053ZM26.0039 38C17.8548 38 10.8967 36.7081 10.8967 31.5404C10.8967 26.3706 17.8102 25.0316 26.0039 25.0316C34.153 25.0316 41.1111 26.3235 41.1111 31.4933C41.1111 36.661 34.1976 38 26.0039 38ZM40.273 10.2343C40.273 13.0791 39.4245 15.7293 37.9359 17.9324C37.7828 18.1591 37.9189 18.465 38.189 18.512C38.5611 18.5762 38.9461 18.6126 39.3373 18.6233C43.2396 18.7259 46.7421 16.1998 47.7097 12.3968C49.143 6.74787 44.9345 1.67644 39.5755 1.67644C38.9928 1.67644 38.4357 1.73847 37.8934 1.84969C37.819 1.86681 37.7403 1.90103 37.6978 1.96734C37.6467 2.04862 37.685 2.1577 37.736 2.22829C39.3459 4.4977 40.273 7.26549 40.273 10.2343ZM46.7358 22.5923C49.3579 23.1077 51.0825 24.1601 51.7971 25.6894C52.401 26.945 52.401 28.4016 51.7971 29.655C50.704 32.0271 47.1803 32.7886 45.8108 32.9854C45.5279 33.0281 45.3004 32.7822 45.3301 32.4977C46.0298 25.9247 40.4645 22.8083 39.0248 22.0917C38.9632 22.0597 38.9504 22.0105 38.9568 21.9805C38.961 21.9591 38.9866 21.9249 39.0333 21.9185C42.1488 21.8607 45.4981 22.2885 46.7358 22.5923ZM12.9132 18.6231C13.3045 18.6124 13.6872 18.5782 14.0615 18.5119C14.3316 18.4649 14.4677 18.159 14.3146 17.9323C12.826 15.7292 11.9775 13.079 11.9775 10.2342C11.9775 7.26537 12.9047 4.49758 14.5145 2.22816C14.5655 2.15758 14.6017 2.04849 14.5528 1.96721C14.5102 1.90304 14.4294 1.86668 14.3571 1.84957C13.8127 1.73834 13.2555 1.67632 12.6729 1.67632C7.31388 1.67632 3.10537 6.74774 4.54082 12.3967C5.50841 16.1997 9.01089 18.7258 12.9132 18.6231ZM13.2927 21.9793C13.2991 22.0113 13.2863 22.0584 13.2268 22.0926C11.785 22.8092 6.21972 25.9256 6.91936 32.4964C6.94914 32.7831 6.72372 33.0269 6.44088 32.9862C5.07136 32.7895 1.54762 32.028 0.454557 29.6559C-0.151519 28.4004 -0.151519 26.9459 0.454557 25.6903C1.16909 24.161 2.89162 23.1086 5.51369 22.591C6.75349 22.2894 10.1007 21.8616 13.2183 21.9194C13.2651 21.9258 13.2885 21.96 13.2927 21.9793Z" fill="#FF0000"/>
</svg>
