<svg width="30" height="30" viewBox="0 0 30 30" fill="none" xmlns="http://www.w3.org/2000/svg">
<path fill-rule="evenodd" clip-rule="evenodd" d="M8.67962 28.611C14.2347 31.18 21.0228 30.1895 25.607 25.6048C31.459 19.7521 31.4696 10.2525 25.607 4.3893C19.755 -1.46335 10.2474 -1.46335 4.39539 4.39081C-0.188837 8.97403 -1.18075 15.7644 1.38949 21.3186C1.71962 22.1402 1.97589 22.8006 1.97589 23.4398C1.97589 24.1313 1.7184 24.8864 1.4685 25.6192C1.07113 26.7844 0.692973 27.8933 1.40004 28.6005C2.10935 29.3089 3.22235 28.9263 4.38863 28.5253C5.11605 28.2753 5.86419 28.0181 6.54806 28.014C7.18723 28.014 7.85956 28.2809 8.67962 28.611ZM20.9093 13.8697C19.9428 13.8697 19.1593 14.6532 19.1593 15.6197C19.1593 16.5862 19.9428 17.3697 20.9093 17.3697H20.9228C21.8893 17.3697 22.6728 16.5862 22.6728 15.6197C22.6728 14.6532 21.8893 13.8697 20.9228 13.8697H20.9093ZM13.1455 15.6197C13.1455 14.6532 13.929 13.8697 14.8955 13.8697H14.909C15.8755 13.8697 16.659 14.6532 16.659 15.6197C16.659 16.5862 15.8755 17.3697 14.909 17.3697H14.8955C13.929 17.3697 13.1455 16.5862 13.1455 15.6197ZM8.88181 13.8697C7.91531 13.8697 7.13181 14.6532 7.13181 15.6197C7.13181 16.5862 7.91531 17.3697 8.88181 17.3697H8.89531C9.86181 17.3697 10.6453 16.5862 10.6453 15.6197C10.6453 14.6532 9.86181 13.8697 8.89531 13.8697H8.88181Z" fill="white"/>
</svg>
