<svg width="22" height="23" viewBox="0 0 22 23" fill="none" xmlns="http://www.w3.org/2000/svg">
<path fill-rule="evenodd" clip-rule="evenodd" d="M18.0714 18.6468C15.0152 21.7033 10.4898 22.3636 6.78642 20.6509C6.23971 20.4308 5.79148 20.2529 5.36537 20.2529C4.17849 20.2599 2.70117 21.4108 1.93336 20.6439C1.16555 19.876 2.31726 18.3975 2.31726 17.2035C2.31726 16.7773 2.14642 16.3371 1.92632 15.7893C0.212831 12.0865 0.874109 7.55959 3.93026 4.50411C7.8316 0.601336 14.17 0.601336 18.0714 4.50311C21.9797 8.41191 21.9727 14.745 18.0714 18.6468Z" stroke="#313131" stroke-width="1.2" stroke-linecap="round" stroke-linejoin="round"/>
<path d="M14.9393 11.9899H14.9483" stroke="#313131" stroke-width="2" stroke-linecap="round" stroke-linejoin="round"/>
<path d="M10.9306 11.9899H10.9396" stroke="#313131" stroke-width="2" stroke-linecap="round" stroke-linejoin="round"/>
<path d="M6.92128 11.9899H6.93028" stroke="#313131" stroke-width="2" stroke-linecap="round" stroke-linejoin="round"/>
</svg>
