<svg width="22" height="22" viewBox="0 0 22 22" fill="none" xmlns="http://www.w3.org/2000/svg">
<path fill-rule="evenodd" clip-rule="evenodd" d="M1.25 4.83012C1.25 1.98614 1.28045 1.03845 5.04167 1.03845C8.80288 1.03845 8.83333 1.98614 8.83333 4.83012C8.83333 7.6741 8.84533 8.62179 5.04167 8.62179C1.238 8.62179 1.25 7.6741 1.25 4.83012Z" stroke="#313131" stroke-width="1.2" stroke-linecap="round" stroke-linejoin="round"/>
<path fill-rule="evenodd" clip-rule="evenodd" d="M13.1665 4.83012C13.1665 1.98614 13.197 1.03845 16.9582 1.03845C20.7194 1.03845 20.7498 1.98614 20.7498 4.83012C20.7498 7.6741 20.7618 8.62179 16.9582 8.62179C13.1545 8.62179 13.1665 7.6741 13.1665 4.83012Z" stroke="#313131" stroke-width="1.2" stroke-linecap="round" stroke-linejoin="round"/>
<path fill-rule="evenodd" clip-rule="evenodd" d="M1.25 16.7467C1.25 13.9028 1.28045 12.9551 5.04167 12.9551C8.80288 12.9551 8.83333 13.9028 8.83333 16.7467C8.83333 19.5907 8.84533 20.5384 5.04167 20.5384C1.238 20.5384 1.25 19.5907 1.25 16.7467Z" stroke="#313131" stroke-width="1.2" stroke-linecap="round" stroke-linejoin="round"/>
<path fill-rule="evenodd" clip-rule="evenodd" d="M13.1665 16.7467C13.1665 13.9028 13.197 12.9551 16.9582 12.9551C20.7194 12.9551 20.7498 13.9028 20.7498 16.7467C20.7498 19.5907 20.7618 20.5384 16.9582 20.5384C13.1545 20.5384 13.1665 19.5907 13.1665 16.7467Z" stroke="#313131" stroke-width="1.2" stroke-linecap="round" stroke-linejoin="round"/>
</svg>
