<svg width="55" height="53" viewBox="0 0 55 53" fill="none" xmlns="http://www.w3.org/2000/svg">
<path d="M8.7901 34.2191C10.3118 35.5804 12.0374 36.6598 13.8868 37.4711L23.6128 31.3637C25.6249 30.0941 28.32 30.3943 30.0044 32.0879L33.2746 35.3581C38.1766 31.7441 41.2498 25.9621 41.2498 19.6875C41.2498 8.94627 32.5115 0.208008 21.7703 0.208008C11.0291 0.208008 2.29083 8.94627 2.29083 19.6875C2.29083 25.2311 4.65816 30.5272 8.7901 34.2191ZM22.6411 21.4062H20.8994C18.2204 21.4062 16.041 19.2268 16.041 16.5478C16.041 14.1393 17.7781 12.1569 20.0515 11.7536V9.94774C20.0515 8.99897 20.8215 8.22896 21.7703 8.22896C22.7191 8.22896 23.4891 8.99897 23.4891 9.94774V11.6665H25.7808C26.7295 11.6665 27.4995 12.4365 27.4995 13.3853C27.4995 14.3341 26.7295 15.1041 25.7808 15.1041H20.8994C20.1157 15.1041 19.4786 15.7412 19.4786 16.5249C19.4786 17.3316 20.1157 17.9687 20.8994 17.9687H22.6411C25.3201 17.9687 27.4995 20.1481 27.4995 22.8271C27.4995 25.2357 25.7624 27.218 23.4891 27.6213V29.4249C23.4891 30.3737 22.7191 31.1437 21.7703 31.1437C20.8215 31.1437 20.0515 30.3737 20.0515 29.4249V27.7084H17.7598C16.8111 27.7084 16.041 26.9384 16.041 25.9896C16.041 25.0409 16.8111 24.2709 17.7598 24.2709H22.6411C23.4249 24.2709 24.062 23.6338 24.062 22.85C24.062 22.0433 23.4249 21.4062 22.6411 21.4062Z" fill="#FF0000"/>
<path d="M52.7083 25.417H43.5415C42.6156 25.417 41.7769 25.9762 41.424 26.831C41.0687 27.6881 41.2658 28.6735 41.9213 29.3289L44.8844 32.2921L35.5205 41.656L27.974 34.1094C27.2246 33.3554 26.0466 33.2248 25.1483 33.7817L1.08543 48.6778C0.00833291 49.3446 -0.321672 50.7563 0.342921 51.8311C0.776053 52.5324 1.52544 52.9174 2.29316 52.9174C2.70567 52.9174 3.12046 52.8074 3.4963 52.5737L26.0146 38.6332L33.898 46.5167C34.7941 47.4127 36.2424 47.4127 37.1385 46.5167L48.1249 35.5326L51.0881 38.4957C51.5258 38.9334 52.1125 39.1672 52.7083 39.1672C53.0039 39.1672 53.3018 39.1099 53.586 38.993C54.4431 38.6378 55 37.8013 55 36.8755V27.7087C55 26.4437 53.9756 25.417 52.7083 25.417Z" fill="#FF0000"/>
</svg>
