<svg width="16" height="16" viewBox="0 0 16 16" fill="none" xmlns="http://www.w3.org/2000/svg">
<path opacity="0.8" d="M15.9215 6.89224C15.6329 4.79617 14.5214 2.90029 12.8314 1.62165C11.1414 0.343022 9.01142 -0.21362 6.90996 0.0741847C4.80851 0.361989 2.90775 1.47066 1.62583 3.15631C0.343904 4.84196 -0.214169 6.96651 0.0743754 9.06257C0.311178 10.7973 1.10996 12.4072 2.34904 13.6471C3.58813 14.8871 5.19959 15.689 6.93795 15.9309C7.29428 15.977 7.65325 16.0001 8.01258 16C9.46225 16.0026 10.8848 15.6081 12.1251 14.8595C12.1886 14.8254 12.2446 14.7788 12.2896 14.7224C12.3345 14.6661 12.3676 14.6013 12.3867 14.5318C12.4057 14.4624 12.4105 14.3898 12.4006 14.3185C12.3907 14.2471 12.3664 14.1785 12.3291 14.1169C12.2919 14.0552 12.2424 14.0017 12.1838 13.9597C12.1252 13.9176 12.0587 13.8879 11.9882 13.8723C11.9177 13.8566 11.8448 13.8555 11.7739 13.8688C11.7029 13.8821 11.6354 13.9097 11.5755 13.9498C10.1704 14.7923 8.51135 15.1109 6.89303 14.849C5.27471 14.5872 3.80179 13.7618 2.73576 12.5194C1.66973 11.277 1.07958 9.69799 1.07008 8.06275C1.06058 6.4275 1.63235 4.8418 2.68387 3.58717C3.73538 2.33254 5.19862 1.49017 6.81379 1.2096C8.42896 0.929034 10.0915 1.22843 11.5064 2.05463C12.9212 2.88083 13.9968 4.18038 14.542 5.72256C15.0873 7.26474 15.0671 8.94975 14.4849 10.4784C14.3898 10.7281 14.2101 10.9367 13.9769 11.0679C13.7436 11.1992 13.4717 11.2448 13.2083 11.1968C12.9449 11.1488 12.7066 11.0104 12.5349 10.8054C12.3632 10.6005 12.269 10.342 12.2685 10.0749V4.30294C12.2685 4.16192 12.2123 4.02669 12.1123 3.92698C12.0124 3.82727 11.8768 3.77125 11.7354 3.77125C11.594 3.77125 11.4585 3.82727 11.3585 3.92698C11.2585 4.02669 11.2024 4.16192 11.2024 4.30294V5.22062C10.6255 4.56587 9.8609 4.10369 9.01204 3.89664C8.16317 3.68958 7.27101 3.74765 6.45632 4.06298C5.64163 4.37832 4.94373 4.93569 4.45707 5.65966C3.97042 6.38364 3.71851 7.23926 3.73543 8.11074C3.75236 8.98222 4.0373 9.82747 4.5517 10.5321C5.0661 11.2367 5.78511 11.7667 6.61144 12.0504C7.43776 12.334 8.3315 12.3575 9.17169 12.1179C10.0119 11.8782 10.758 11.3868 11.309 10.7103C11.4412 11.1508 11.7086 11.5389 12.0736 11.82C12.4385 12.101 12.8827 12.2608 13.3435 12.2769C13.8042 12.293 14.2585 12.1645 14.6423 11.9096C15.026 11.6547 15.32 11.2862 15.4828 10.8559C15.9586 9.592 16.1095 8.22928 15.9215 6.89224ZM8.00405 11.2148C7.37148 11.2148 6.75312 11.0277 6.22716 10.6772C5.70121 10.3267 5.29127 9.82844 5.0492 9.24552C4.80713 8.66261 4.74379 8.02119 4.8672 7.40237C4.9906 6.78355 5.29521 6.21512 5.7425 5.76898C6.1898 5.32284 6.75968 5.01901 7.38009 4.89592C8.0005 4.77283 8.64358 4.836 9.22799 5.07745C9.8124 5.3189 10.3119 5.72779 10.6633 6.2524C11.0148 6.77701 11.2024 7.39378 11.2024 8.02472C11.2015 8.87053 10.8643 9.68146 10.2647 10.2795C9.66505 10.8776 8.85203 11.214 8.00405 11.2148Z" fill="#313131"/>
</svg>
