<svg width="31" height="31" viewBox="0 0 31 31" fill="none" xmlns="http://www.w3.org/2000/svg">
<path d="M1.96663 12.6005H5.57505C5.89617 12.6 6.20802 12.4929 6.46169 12.296C6.71536 12.0991 6.89649 11.8236 6.97666 11.5126C7.17434 11.6576 7.36621 11.7934 7.56824 11.9191C7.51182 12.0884 7.5034 12.2701 7.54392 12.444C7.58444 12.6178 7.67232 12.7771 7.79781 12.9041L7.94716 12.7547L7.7983 12.9041L13.2709 18.3655C13.4521 18.5467 13.698 18.6485 13.9543 18.6485C14.2106 18.6485 14.4564 18.5467 14.6377 18.3655L24.8839 8.11925C25.0646 7.93806 25.166 7.69266 25.166 7.43681C25.166 7.18097 25.0646 6.93557 24.8839 6.75438L19.4172 1.28181C19.236 1.10133 18.9907 1 18.735 1C18.4792 1 18.2339 1.10133 18.0528 1.28181L15.656 3.67905L15.3897 3.45382C15.1014 3.19469 14.7449 3.02353 14.3624 2.96058C13.9799 2.89763 13.5874 2.94552 13.2312 3.09859C11.4345 3.76014 9.55344 4.16528 7.64363 4.30204C7.58543 4.15681 7.50379 4.02211 7.40198 3.90331C7.26575 3.75003 7.09855 3.6274 6.91143 3.5435C6.72431 3.45961 6.52152 3.41636 6.31645 3.41661H1.96663C1.71026 3.41661 1.4644 3.51845 1.28312 3.69973C1.10184 3.88101 1 4.12687 1 4.38324V11.6329C0.999873 11.76 1.02478 11.8858 1.0733 12.0032C1.12182 12.1205 1.193 12.2272 1.28278 12.3171C1.37255 12.4069 1.47915 12.4782 1.59649 12.5269C1.71383 12.5755 1.83961 12.6005 1.96663 12.6005ZM9.50633 11.1951C9.778 11.4669 9.93061 11.8356 9.93061 12.2199C9.93061 12.6043 9.778 12.9729 9.50633 13.2448L8.48025 12.2202L9.50633 11.1951ZM13.9528 17.6831L12.9272 16.6594C13.199 16.3885 13.5671 16.2363 13.9509 16.2363C14.3346 16.2363 14.7028 16.3885 14.9745 16.6594L13.9528 17.6831ZM23.1749 8.45999C22.9034 8.18813 22.7509 7.8196 22.7509 7.43537C22.7509 7.05113 22.9034 6.6826 23.1749 6.41074L24.1991 7.4344L23.1749 8.45999ZM18.7342 1.9657L19.7603 2.99226C19.488 3.2634 19.1193 3.41563 18.735 3.41563C18.3506 3.41563 17.982 3.2634 17.7096 2.99226L18.7342 1.9657ZM17.0243 3.67711C17.4779 4.12962 18.0925 4.38374 18.7333 4.38374C19.374 4.38374 19.9886 4.12962 20.4423 3.67711L22.493 5.7254C22.0408 6.17893 21.7869 6.79324 21.7869 7.43367C21.7869 8.07411 22.0408 8.68842 22.493 9.14195L15.6584 15.977C15.2054 15.5248 14.5914 15.2709 13.9514 15.2709C13.3113 15.2709 12.6974 15.5248 12.2443 15.977L10.1917 13.9282C10.6444 13.4751 10.8987 12.8607 10.8987 12.2202C10.8987 11.5796 10.6444 10.9653 10.1917 10.5121L13.572 7.13329C13.6593 7.04524 13.7771 6.99412 13.9011 6.99052C14.0251 6.98693 14.1457 7.03112 14.238 7.11396C14.3139 7.18163 14.4671 7.3155 14.6541 7.4779C14.1965 7.80362 13.8434 8.25521 13.6376 8.77782C13.4318 9.30044 13.3822 9.87157 13.4948 10.4218C13.6074 10.9721 13.8774 11.4778 14.272 11.8776C14.6666 12.2773 15.1687 12.5538 15.7175 12.6736C16.2662 12.7933 16.838 12.7512 17.3632 12.5522C17.8884 12.3531 18.3446 12.0059 18.6762 11.5526C19.0079 11.0993 19.2007 10.5594 19.2313 9.99854C19.262 9.4377 19.1291 8.88004 18.8488 8.39329C19.0365 8.08803 19.1297 7.73404 19.1165 7.37592C19.1089 7.13369 19.0521 6.89556 18.9495 6.67597C18.847 6.45638 18.7009 6.25992 18.5201 6.09852L16.3969 4.30542L17.0243 3.67711ZM18.0982 9.0419C18.2415 9.36309 18.2944 9.71736 18.251 10.0664C18.2075 10.4154 18.0695 10.746 17.8519 11.0222C17.6342 11.2985 17.3451 11.5101 17.0159 11.634C16.6868 11.7579 16.33 11.7894 15.9842 11.7252C15.6383 11.661 15.3166 11.5035 15.0539 11.2697C14.7911 11.0359 14.5972 10.7347 14.4932 10.3987C14.3892 10.0627 14.379 9.7047 14.4638 9.36333C14.5485 9.02197 14.725 8.71026 14.9741 8.46192C15.1059 8.33366 15.2563 8.22596 15.4202 8.14245C15.8005 8.47159 16.1224 8.74901 16.1224 8.74901C16.3856 8.98822 16.714 9.14379 17.0658 9.19594C17.4176 9.24809 17.7769 9.19447 18.0982 9.0419ZM13.6082 3.98934C13.7979 3.90782 14.007 3.8827 14.2106 3.91699C14.4142 3.95128 14.6036 4.04351 14.7561 4.18266L17.886 6.82784C18.0478 6.98127 18.1422 7.19262 18.1483 7.41552C18.1545 7.63842 18.072 7.85466 17.9189 8.01679C17.7628 8.16174 17.5583 8.2433 17.3454 8.24553C17.1324 8.24777 16.9262 8.17052 16.7672 8.02887C16.7672 8.02887 15.1872 6.66448 14.8822 6.39141C14.6058 6.14397 14.245 6.01192 13.8741 6.02244C13.5033 6.03296 13.1505 6.18525 12.8886 6.44795L8.17915 11.1574C7.81259 10.9316 7.46068 10.6828 7.12552 10.4126L7.72918 5.26528C9.73902 5.11791 11.7181 4.68838 13.6082 3.98934ZM1.96663 4.38324H6.31645C6.38451 4.38328 6.45179 4.39769 6.51389 4.42553C6.57598 4.45337 6.6315 4.49401 6.67681 4.54479C6.72212 4.59557 6.75619 4.65535 6.77679 4.72021C6.7974 4.78507 6.80408 4.85355 6.79639 4.92116L6.05692 11.2042C6.04344 11.3227 5.98663 11.4321 5.89741 11.5112C5.80819 11.5904 5.69286 11.6337 5.5736 11.6329L1.96663 11.6344V4.38324Z" fill="#313131" stroke="#313131" stroke-width="0.4"/>
<path d="M29.0324 21.3013H27.0992C26.9301 21.3017 26.7642 21.3465 26.618 21.4314C26.4718 21.5162 26.3505 21.6381 26.2664 21.7847H25.1659C24.8523 21.7839 24.5473 21.6822 24.2959 21.4947L23.4975 20.8954C23.1949 20.6664 22.8484 20.502 22.4796 20.4125C22.1107 20.3231 21.7275 20.3104 21.3535 20.3753L13.8138 21.6377C13.5123 21.6838 13.2305 21.8156 13.0019 22.0176C12.7733 22.2195 12.6077 22.4829 12.5248 22.7764L10.2716 21.1332C10.0349 20.9619 9.7551 20.86 9.46369 20.8387C9.17227 20.8175 8.88069 20.8778 8.62159 21.0128C8.36531 21.1396 8.1495 21.3353 7.99845 21.5781C7.8474 21.8209 7.76711 22.101 7.7666 22.3869C7.7663 22.6168 7.81699 22.8438 7.91502 23.0518C8.01305 23.2597 8.15599 23.4433 8.33353 23.5894L15.4097 29.2789C16.0059 29.7465 16.7419 30.0005 17.4996 30C17.8454 30.0019 18.1889 29.9434 18.5145 29.827L24.6792 27.668C24.8354 27.6125 25.0001 27.5846 25.1659 27.5854H26.2674C26.3515 27.7318 26.4727 27.8534 26.6187 27.9383C26.7646 28.0231 26.9303 28.0681 27.0992 28.0687H29.0324C29.2888 28.0687 29.5347 27.9669 29.7159 27.7856C29.8972 27.6043 29.9991 27.3584 29.9991 27.1021V22.2689C29.9992 22.1419 29.9743 22.0161 29.9258 21.8987C29.8772 21.7813 29.806 21.6747 29.7163 21.5848C29.6265 21.4949 29.5199 21.4237 29.4026 21.375C29.2852 21.3264 29.1594 21.3013 29.0324 21.3013ZM24.3568 26.758L18.1898 28.9164C17.823 29.0346 17.4329 29.0609 17.0536 28.9929C16.6744 28.9249 16.3176 28.7647 16.0148 28.5264C16.0076 28.5206 8.94251 22.8402 8.94251 22.8407C8.87634 22.7852 8.82327 22.7157 8.78709 22.6372C8.75091 22.5587 8.73252 22.4733 8.73323 22.3869C8.73408 22.2801 8.76493 22.1757 8.82228 22.0856C8.87963 21.9955 8.96115 21.9234 9.05753 21.8775C9.1578 21.8241 9.27086 21.7995 9.38422 21.8064C9.49758 21.8134 9.60682 21.8515 9.69986 21.9166L15.9216 26.4496C16.0839 26.5659 16.2803 26.6249 16.4798 26.6172C16.6794 26.6095 16.8707 26.5355 17.0235 26.4071L19.0607 24.6826H20.8161C20.9443 24.6826 21.0672 24.6317 21.1578 24.5411C21.2485 24.4504 21.2994 24.3275 21.2994 24.1993C21.2994 24.0711 21.2485 23.9482 21.1578 23.8575C21.0672 23.7669 20.9443 23.716 20.8161 23.716H14.0062C13.931 23.7164 13.8565 23.7015 13.7873 23.6719C13.7181 23.6424 13.6558 23.599 13.6041 23.5444C13.5495 23.4912 13.5067 23.427 13.4786 23.3562C13.4504 23.2853 13.4375 23.2093 13.4407 23.1331C13.4544 22.9957 13.5146 22.867 13.6112 22.7684C13.7079 22.6697 13.8352 22.6069 13.9724 22.5903L21.527 21.325C21.7702 21.2858 22.0188 21.2958 22.258 21.3546C22.4972 21.4134 22.7222 21.5197 22.9195 21.6672L23.716 22.2699C24.1349 22.5825 24.6433 22.7519 25.1659 22.7532H26.1325V26.6197H25.1659C24.8903 26.6189 24.6166 26.6656 24.3568 26.758ZM15.1415 24.6855H17.5639L16.4431 25.6338L15.1415 24.6855ZM27.0992 27.1021V22.2689H29.0324V27.1021H27.0992Z" fill="#313131" stroke="#313131" stroke-width="0.4"/>
</svg>
