<svg width="17" height="22" viewBox="0 0 17 22" fill="none" xmlns="http://www.w3.org/2000/svg">
<path d="M16.9673 19.3729C16.7447 18.2915 15.5834 14.0857 11.123 12.5837C11.5968 12.2676 12.0168 11.8688 12.3643 11.406H14.0993C15.1049 11.406 15.9231 10.5383 15.9231 9.47184V6.8351C15.9231 6.38815 15.779 5.97648 15.5381 5.6486C13.2123 -1.46652 3.80699 -1.47892 1.47258 5.64868C1.23171 5.97656 1.08766 6.38819 1.08766 6.8351V9.47184C1.08766 10.5384 1.90581 11.406 2.91141 11.406H4.64639C4.99392 11.8688 5.41395 12.2676 5.88775 12.5837C1.42907 14.0848 0.259601 18.2895 0.0347589 19.3691C-0.160817 20.2818 0.487386 21.3076 1.51482 21.3076C4.5385 21.3076 12.5706 21.3076 15.4959 21.2977C16.4977 21.2977 17.1576 20.3149 16.9673 19.3729ZM14.7617 6.8351V9.47184C14.7617 9.85921 14.4646 10.1743 14.0993 10.1743H13.055C13.5628 8.91215 13.5628 7.39474 13.055 6.13258H14.0993C14.4646 6.13253 14.7617 6.44769 14.7617 6.8351ZM3.95572 10.1743H2.91141C2.54616 10.1743 2.24904 9.85917 2.24904 9.47184V6.8351C2.24904 6.44769 2.5462 6.13258 2.91141 6.13258H3.95572C3.44793 7.39474 3.44793 8.91211 3.95572 10.1743ZM3.06653 4.90083C5.39718 0.401926 11.6148 0.405005 13.9443 4.90083H12.3643C10.4666 2.28224 6.54323 2.28322 4.64639 4.90083H3.06653ZM4.7352 8.15343C4.7352 5.94868 6.42648 4.155 8.50534 4.155C11.0687 4.10204 12.9627 6.98857 12.0502 9.51515H9.74848C8.97918 9.54529 8.9791 10.7167 9.74848 10.7469H11.3725C9.14139 13.5473 4.73532 11.8636 4.7352 8.15343ZM15.7615 19.9323C15.6963 20.0172 15.5995 20.066 15.4941 20.066C12.5687 20.0759 4.53804 20.0759 1.51482 20.0759C1.30058 20.0815 1.12196 19.8531 1.16977 19.6299C2.96151 11.4403 13.9517 11.2591 15.8317 19.6314C15.8519 19.7382 15.8264 19.8478 15.7615 19.9323Z" fill="#313131"/>
</svg>
