<svg width="70" height="70" viewBox="0 0 70 70" fill="none" xmlns="http://www.w3.org/2000/svg">
<rect opacity="0.1" width="70" height="70" rx="15" fill="#69B721"/>
<path fill-rule="evenodd" clip-rule="evenodd" d="M33.2574 14.0927C32.8588 14.3193 24.1247 21.8755 24.0357 22.0707C23.7812 22.6286 24.0057 23.3558 24.531 23.6757C24.779 23.8269 24.9479 23.8388 26.8312 23.8391L28.8638 23.8394V39.9197V56L33.36 55.9997C37.7017 55.9994 37.8655 55.9938 38.1239 55.8363C38.6731 55.5019 38.7183 55.3258 38.7147 53.5387L38.7115 51.9389L38.0375 51.5474C36.9819 50.9342 36.2895 50.3876 35.2689 49.3612C30.3894 44.4548 30.0309 36.7677 34.4295 31.3633C35.1484 30.4802 36.3768 29.372 37.3605 28.7194C37.8591 28.3886 38.3686 28.0724 38.4928 28.0166L38.7186 27.9152V25.8773V23.8394L40.7511 23.8391C42.6345 23.8388 42.8033 23.8269 43.0513 23.6757C43.5767 23.3558 43.8011 22.6286 43.5467 22.0707C43.4523 21.8635 34.6848 14.2877 34.3099 14.0893C34.082 13.9687 33.472 13.9707 33.2574 14.0927ZM43.5228 28.8951C42.7476 29.0123 41.878 29.2211 41.2644 29.4373C37.5491 30.7469 34.8319 33.8335 33.9866 37.7046C33.7705 38.6941 33.7705 41.1453 33.9866 42.1348C34.9338 46.473 38.1563 49.7298 42.5282 50.7675C43.5516 51.0104 46.0448 51.0309 47.0761 50.8048C51.4618 49.8431 54.7456 46.6449 55.8092 42.2989C55.9757 41.6191 56 41.3152 56 39.9197C56 38.5242 55.9757 38.2204 55.8092 37.5405C54.7593 33.2505 51.567 30.0916 47.2594 29.08C46.7473 28.9597 46.1894 28.9082 45.1653 28.887C44.3974 28.871 43.6583 28.8747 43.5228 28.8951ZM22.0673 31.4689C21.9201 31.5586 21.7263 31.7522 21.6365 31.8993C21.4756 32.1629 21.4732 32.3371 21.473 44.0834L21.4727 56H23.9364H26.4001V43.6526V31.3053L24.3675 31.3056C22.4842 31.3058 22.3153 31.3178 22.0673 31.4689ZM45.5297 31.5383C45.9946 31.8781 46.0658 32.0709 46.0978 33.0797L46.1278 34.0227L46.5875 34.2258C47.1726 34.4843 47.8808 35.0169 48.0856 35.3524C48.1772 35.5026 48.2444 35.7615 48.2446 35.9653C48.2456 37.107 46.9805 37.5809 46.1097 36.7651C45.5452 36.2363 44.7548 36.0782 44.2407 36.3915C43.4189 36.8919 43.4563 38.1304 44.3055 38.539C44.4622 38.6144 44.9045 38.7157 45.2885 38.7641C46.9681 38.9756 48.2176 40.1685 48.497 41.8272C48.7459 43.3051 47.9356 44.9139 46.5871 45.6192L46.1264 45.8602L46.0971 46.7815C46.0655 47.7739 45.996 47.9565 45.5113 48.318C45.2047 48.5466 44.5555 48.5497 44.2526 48.324C43.7615 47.958 43.6903 47.7752 43.646 46.7688L43.6049 45.8355L42.9966 45.5319C42.1848 45.1266 41.3212 44.2912 41.1826 43.7768C40.9826 43.0349 41.5432 42.2989 42.3085 42.2989C42.7619 42.2989 42.9265 42.3827 43.4407 42.8749C44.2021 43.6038 44.9294 43.8047 45.515 43.4479C46.3368 42.9475 46.2994 41.7091 45.4502 41.3004C45.2935 41.225 44.8512 41.1238 44.4672 41.0754C42.7876 40.8638 41.5381 39.6709 41.2588 38.0122C41.0079 36.5238 41.8421 34.8738 43.1738 34.2238L43.646 33.9934V33.188C43.646 32.326 43.7167 32.0342 44.0005 31.7256C44.3969 31.2944 45.0814 31.2105 45.5297 31.5383ZM14.5941 41.314C14.4468 41.4037 14.253 41.5973 14.1633 41.7444C14.0039 42.0053 14 42.1704 14 48.5752C14 54.98 14.0039 55.145 14.1633 55.4059C14.253 55.553 14.4468 55.7467 14.5941 55.8363C14.8421 55.9874 15.0109 55.9994 16.8943 55.9997L18.9268 56V48.5752V41.1503L16.8943 41.1507C15.0109 41.1509 14.8421 41.1629 14.5941 41.314Z" fill="#69B721"/>
</svg>
