<svg width="18" height="26" viewBox="0 0 18 26" fill="none" xmlns="http://www.w3.org/2000/svg">
<path d="M12.637 8.99987C12.637 11.0082 11.0089 12.6362 9.00062 12.6362C6.99233 12.6362 5.36426 11.0082 5.36426 8.99987C5.36426 6.99158 6.99233 5.3635 9.00062 5.3635C11.0089 5.3635 12.637 6.99158 12.637 8.99987Z" stroke="#313131" stroke-width="2" stroke-miterlimit="10" stroke-linecap="round" stroke-linejoin="round"/>
<path d="M9 24.3939C9 24.3939 1 14.8182 1 8.99998C1 4.58878 4.5888 0.999982 9 0.999982C13.4112 0.999982 17 4.58878 17 8.99998C17 14.8182 9 24.3939 9 24.3939Z" stroke="#313131" stroke-width="2" stroke-miterlimit="10" stroke-linecap="round" stroke-linejoin="round"/>
<path d="M9 12.6364V14.0909" stroke="#313131" stroke-width="2" stroke-miterlimit="10" stroke-linecap="round" stroke-linejoin="round"/>
<path d="M3.90918 9.00006H5.36373" stroke="#313131" stroke-width="2" stroke-miterlimit="10" stroke-linecap="round" stroke-linejoin="round"/>
<path d="M9 3.9091V5.36365" stroke="#313131" stroke-width="2" stroke-miterlimit="10" stroke-linecap="round" stroke-linejoin="round"/>
<path d="M12.6367 9.00006H14.0913" stroke="#313131" stroke-width="2" stroke-miterlimit="10" stroke-linecap="round" stroke-linejoin="round"/>
</svg>
