<svg width="30" height="30" viewBox="0 0 30 30" fill="none" xmlns="http://www.w3.org/2000/svg">
<path d="M0 13.2363V28.6975L9.93929 20.9669L0 13.2363Z" fill="#FE4D4D"/>
<path d="M25.931 9.21387V13.9675L28.8663 11.6844L25.931 9.21387Z" fill="#FE4D4D"/>
<path d="M15.4224 0.36934C15.0971 0.0956365 14.622 0.0956365 14.2967 0.36934L11.9789 2.32011H17.7401L15.4224 0.36934Z" fill="#FE4D4D"/>
<path d="M3.78769 9.21387L0.852356 11.6844L3.78769 13.9675V9.21387Z" fill="#FE4D4D"/>
<path d="M11.663 21.8408L1.17401 29.9989H28.5449L18.0559 21.8408H11.663Z" fill="#FE4D4D"/>
<path d="M19.7793 20.967L29.7187 28.6976V13.2363L19.7793 20.967Z" fill="#FE4D4D"/>
<path d="M14.6392 10.6162C13.9302 10.6162 13.1968 11.3056 13.1968 12.4591C13.1968 13.6319 13.9122 14.4197 14.5803 14.4197C15.2839 14.4197 15.8608 13.5965 15.9023 12.5615L15.9034 12.3418C15.872 11.3206 15.361 10.6162 14.6392 10.6162Z" fill="#FE4D4D"/>
<path d="M18.056 20.0932L24.183 15.3276V4.94244C24.183 4.45971 23.7917 4.06836 23.309 4.06836H6.41006C5.92734 4.06836 5.53598 4.45971 5.53598 4.94244V15.3277L11.6631 20.0932H18.056ZM8.69771 14.1441C8.2803 12.557 8.4902 10.8839 9.28882 9.433C10.0871 7.98261 11.388 6.9097 12.9518 6.41189C14.6017 5.88656 16.3535 6.04133 17.8844 6.84764C19.4155 7.65401 20.534 9.01035 21.034 10.6669C21.0367 10.6758 21.0393 10.6849 21.0416 10.694C21.3739 11.9387 21.2756 13.1137 20.7227 14.5038C20.349 15.4434 19.4328 16.4474 17.9821 16.4474C17.4558 16.4474 16.9511 16.2315 16.561 15.8395C16.4687 15.7468 16.3855 15.6457 16.3111 15.5387C15.8212 15.9372 15.2271 16.1677 14.5804 16.1677C13.7356 16.1677 12.9142 15.7576 12.3268 15.0424C11.7605 14.353 11.4487 13.4355 11.4487 12.4589C11.4487 11.4779 11.7805 10.5702 12.3831 9.90308C12.9772 9.24519 13.7996 8.86782 14.6392 8.86782C15.101 8.86782 15.5399 8.9779 15.9342 9.18529C16.0107 8.78012 16.3658 8.47402 16.7923 8.47402H16.7968C17.2795 8.47641 17.6689 8.86969 17.6665 9.35241L17.6425 14.2085C17.6417 14.3576 17.7007 14.5063 17.8002 14.6063C17.8346 14.641 17.9041 14.6991 17.9821 14.6991C18.6874 14.6991 18.9976 14.1106 19.0982 13.8577C19.5065 12.8311 19.5839 12.0228 19.3562 11.1583C18.9906 9.95984 18.1791 8.9786 17.0698 8.39436C15.9565 7.80803 14.6822 7.69562 13.4821 8.07759C11.1163 8.8307 9.75738 11.3 10.3884 13.6993C10.9124 15.6918 12.7134 17.123 14.7681 17.1799C15.2506 17.1932 15.6311 17.5952 15.6177 18.0778C15.6046 18.5521 15.2159 18.9277 14.7444 18.9277C14.7362 18.9277 14.728 18.9276 14.7198 18.9273C13.3652 18.8899 12.0281 18.4087 10.9547 17.5724C9.83949 16.7037 9.05911 15.5182 8.69771 14.1441Z" fill="#FE4D4D"/>
</svg>
