<svg width="23" height="19" viewBox="0 0 23 19" fill="none" xmlns="http://www.w3.org/2000/svg">
<path d="M21.0009 11.7426L21.076 11.7218C22.1316 11.4296 22.9 10.5019 22.9 9.41167C22.9 8.08994 21.7695 7.00628 20.3699 7.00628C19.6723 7.00628 19.0773 6.51772 19.0773 5.8857C19.0773 5.25368 19.6723 4.76517 20.3699 4.76517C20.5614 4.76517 20.8224 4.84781 21.0431 4.94719C21.1552 4.99771 21.2615 5.05456 21.3482 5.11135C21.4314 5.16584 21.5084 5.2277 21.5491 5.29115L21.5493 5.29146C21.7377 5.58764 22.1201 5.66786 22.4041 5.47509L22.4603 5.55783L22.4041 5.47509C22.6901 5.28097 22.7714 4.8814 22.5818 4.58337C22.2747 4.1006 21.6328 3.75615 21.0494 3.58993L20.9785 3.56974L20.9768 3.49607L20.9658 3.02055C20.9575 2.66326 20.6705 2.38648 20.3324 2.39376C19.9938 2.4022 19.7204 2.69361 19.7286 3.05143L19.7385 3.47664L19.7403 3.55459L19.6651 3.57535C18.6088 3.86699 17.8398 4.79505 17.8398 5.88575C17.8398 7.20748 18.9702 8.29114 20.3699 8.29114C21.0675 8.29114 21.6625 8.7797 21.6625 9.41172C21.6625 10.0437 21.0675 10.5323 20.3699 10.5323C20.129 10.5323 19.9425 10.4956 19.7589 10.3995C19.5792 10.3054 19.4084 10.1574 19.1941 9.94855C18.946 9.70674 18.5561 9.7183 18.3217 9.97494C18.0856 10.2335 18.0973 10.6418 18.3472 10.8854C18.7301 11.2584 19.1169 11.5893 19.69 11.7365L19.7633 11.7553L19.7651 11.831L19.774 12.2123C19.7822 12.5646 20.0605 12.8391 20.3922 12.8391L20.4075 12.8389L20.4076 12.8389M21.0009 11.7426L21.1111 12.1787C21.1207 12.5886 20.8068 12.929 20.4099 12.9388L20.4076 12.8389M21.0009 11.7426L21.0027 11.8205L21.0112 12.1811C21.0195 12.5388 20.7462 12.8304 20.4076 12.8389M21.0009 11.7426L20.4076 12.8389M4.93803 12.0358V11.9358H4.83803H4.2788C1.97772 11.9358 0.1 10.0011 0.1 7.61625C0.1 5.2314 1.97772 3.29665 4.2788 3.29665L9.03489 3.29674C10.0778 3.29674 10.9482 3.0558 11.8509 2.51744L15.31 0.454616L15.2588 0.368796L15.31 0.454615C15.5008 0.340834 15.7354 0.340855 15.9263 0.454615C16.1175 0.568656 16.2369 0.780601 16.2369 1.01165V14.2209C16.2369 14.4519 16.1175 14.6639 15.9263 14.7779C15.8307 14.8349 15.7243 14.8633 15.6181 14.8633C15.5119 14.8633 15.4056 14.8349 15.31 14.7779L11.851 12.7151C10.9483 12.1768 10.0779 11.9358 9.03507 11.9358H8.51227H8.41227V12.0358V17.5269C8.41227 17.8848 8.1322 18.1693 7.79353 18.1693H6.68144C5.72325 18.1693 4.93803 17.363 4.93803 16.3652V12.0358ZM4.93799 4.68147V4.58147H4.83799H4.27876C2.65385 4.58147 1.3375 5.94584 1.3375 7.61625C1.3375 9.28667 2.65385 10.651 4.2788 10.651H4.83799H4.93799V10.551V4.68147ZM7.07478 16.8845H7.17478V16.7845V12.0358V11.9358H7.07478H6.27553H6.17553V12.0358V16.3652C6.17553 16.6485 6.39939 16.8845 6.68144 16.8845H7.07478ZM14.8482 13.0209L14.9994 13.1111V12.935V2.29755V2.12148L14.8482 2.21166L12.4672 3.63156C11.3796 4.28014 10.2903 4.58156 9.03485 4.58156L6.27553 4.58151L6.17553 4.58151V4.68151V10.551V10.651H6.27553H9.03507C10.2904 10.651 11.3797 10.9524 12.4673 11.601L14.8482 13.0209Z" fill="#313131" stroke="white" stroke-width="0.2"/>
</svg>
