<svg width="42" height="42" viewBox="0 0 42 42" fill="none" xmlns="http://www.w3.org/2000/svg">
<path d="M0.876295 22.0344L5.22793 25.1455C5.31117 25.2048 5.40526 25.247 5.50484 25.2699C5.60443 25.2928 5.70754 25.2959 5.8083 25.2789C5.90906 25.2619 6.00549 25.2253 6.09208 25.171C6.17866 25.1168 6.25371 25.046 6.31293 24.9627L9.42402 20.6111C9.48352 20.5276 9.52598 20.4332 9.549 20.3333C9.57201 20.2333 9.57512 20.1299 9.55815 20.0288C9.54117 19.9277 9.50445 19.8309 9.45008 19.744C9.39571 19.657 9.32474 19.5817 9.24124 19.5222C9.15775 19.4627 9.06335 19.4202 8.96344 19.3972C8.86353 19.3742 8.76006 19.3711 8.65895 19.3881C8.55784 19.405 8.46106 19.4417 8.37414 19.4961C8.28722 19.5505 8.21186 19.6215 8.15236 19.705L6.13793 22.5244C5.57015 20.0397 5.5943 17.4563 6.20844 14.9827C6.82257 12.5091 8.00949 10.2144 9.67347 8.2838C11.3374 6.35319 13.4319 4.8407 15.7878 3.86832C18.1438 2.89594 20.6953 2.4909 23.2366 2.68586C25.7778 2.88083 28.2377 3.67035 30.4177 4.99073C32.5978 6.31111 34.437 8.1254 35.787 10.2872C37.137 12.4491 37.96 14.8979 38.1896 17.4363C38.4192 19.9747 38.049 22.5315 37.1089 24.9005C37.071 24.9955 37.0522 25.097 37.0536 25.1992C37.055 25.3015 37.0765 25.4024 37.117 25.4964C37.1574 25.5903 37.216 25.6753 37.2893 25.7465C37.3627 25.8178 37.4494 25.8739 37.5444 25.9116C37.636 25.9478 37.7337 25.9663 37.8322 25.966C37.988 25.9662 38.1402 25.9196 38.2691 25.8322C38.3981 25.7448 38.4979 25.6208 38.5555 25.476C39.584 22.884 39.9898 20.0868 39.7402 17.3093C39.4905 14.5319 38.5926 11.8518 37.1184 9.48469C35.6443 7.11756 33.6351 5.12946 31.2526 3.68033C28.87 2.2312 26.1807 1.36149 23.4008 1.14116C20.6208 0.920828 17.828 1.35603 15.247 2.41176C12.6659 3.46749 10.3687 5.11427 8.54005 7.21963C6.71142 9.32499 5.40245 11.8301 4.71845 14.5336C4.03444 17.237 3.9945 20.0633 4.60183 22.7849L1.77851 20.7705C1.69601 20.704 1.60079 20.655 1.49868 20.6266C1.39658 20.5982 1.28974 20.591 1.18474 20.6053C1.07974 20.6197 0.978781 20.6554 0.888068 20.7102C0.797355 20.765 0.718799 20.8378 0.657223 20.924C0.595647 21.0103 0.55235 21.1082 0.529989 21.2118C0.507629 21.3154 0.506677 21.4225 0.527192 21.5265C0.547707 21.6305 0.589256 21.7291 0.649288 21.8165C0.709321 21.9038 0.78657 21.978 0.876295 22.0344Z" fill="#313131" stroke="#313131" stroke-width="0.479062"/>
<path d="M40.3443 28.781C38.7888 26.9415 36.2377 27.7854 34.861 28.2365C33.9899 28.5243 31.9016 29.4032 29.8444 30.2743C29.9685 29.6169 29.8842 28.9371 29.6033 28.3299C28.491 25.7904 25.7455 26.2765 23.7388 26.6343C23.1197 26.7688 22.4898 26.8482 21.8566 26.8715C20.784 26.8595 19.7252 26.6279 18.7455 26.191C17.4732 25.6436 16.0974 25.3782 14.7128 25.4132C12.0616 25.4623 9.44779 26.0469 7.0284 27.1321L6.59285 27.311C2.98009 28.7499 1.42454 29.0765 1.42454 29.0765C1.27982 29.1054 1.14629 29.1748 1.03956 29.2768C0.932826 29.3787 0.857289 29.5088 0.82177 29.6521C0.794548 29.7649 0.183996 32.3743 1.91454 36.0415C3.40009 39.1526 5.13841 40.3465 6.33229 40.7781C6.45619 40.8225 6.58932 40.8347 6.71923 40.8137C6.84913 40.7926 6.97157 40.7389 7.07507 40.6576C7.07507 40.6576 8.05117 39.8798 8.79783 39.4442C9.29172 39.1448 10.4934 38.9542 13.4334 39.7709C16.1535 40.4947 18.9494 40.8955 21.7633 40.9648C22.8591 41.0005 23.953 40.8506 24.9988 40.5215C28.0672 39.3548 35.5338 35.4659 38.4699 33.8715C40.0254 33.0237 40.8732 32.1098 41.0676 31.0754C41.1309 30.6631 41.0986 30.2418 40.9732 29.844C40.8478 29.4461 40.6326 29.0824 40.3443 28.781ZM39.5354 30.7915C39.4382 31.3165 38.7926 31.9271 37.7232 32.5104C35.2577 33.8598 27.5033 37.9237 24.4505 39.0709C22.3077 39.872 16.9139 39.1254 13.8495 38.2931C12.6251 37.9086 11.3556 37.6864 10.0734 37.632C9.3461 37.5969 8.6233 37.7638 7.98506 38.1143C7.46006 38.4331 6.86118 38.8687 6.48396 39.1487C5.3173 38.5654 4.20897 37.2431 3.31842 35.3687C2.54951 33.8515 2.19024 32.1597 2.27621 30.461C3.93865 29.9756 5.57315 29.3992 7.17229 28.7343L7.61951 28.5515C9.86051 27.5391 12.2851 26.9965 14.7439 26.9571C15.9319 26.9263 17.1118 27.1615 18.1972 27.6454C19.3429 28.1478 20.5785 28.4124 21.8294 28.4232C22.5629 28.4005 23.2929 28.3133 24.0111 28.1626C26.1538 27.7738 27.6005 27.6299 28.176 28.9404C28.2743 29.1421 28.3301 29.3617 28.3402 29.5858C28.3502 29.8098 28.3142 30.0336 28.2344 30.2432C28.0166 30.7799 27.4566 31.2699 26.5777 31.6665C25.7999 31.9932 25.2166 32.246 24.96 32.3471C23.3111 32.9926 21.8916 32.7671 20.5189 32.5493L19.7644 32.4326C19.5582 32.4048 19.3493 32.46 19.1837 32.5862C19.0182 32.7123 18.9095 32.8991 18.8817 33.1054C18.8538 33.3117 18.909 33.5206 19.0352 33.6861C19.1614 33.8517 19.3482 33.9603 19.5544 33.9882C19.7917 34.0193 20.0328 34.0582 20.2739 34.0971C21.7789 34.3343 23.4822 34.6026 25.5277 33.8054C25.765 33.7121 26.2394 33.5137 26.8694 33.2415C26.9861 33.1948 27.0988 33.1482 27.2077 33.0976L28.211 32.6698C30.7427 31.581 34.2116 30.0876 35.351 29.7143C37.1593 29.1193 38.4271 28.9365 39.1543 29.7843C39.6249 30.3365 39.5588 30.6787 39.5354 30.7915Z" fill="#313131" stroke="#313131" stroke-width="0.479062"/>
<path d="M21.2577 9.53949V10.57C20.9881 10.6315 20.7269 10.7255 20.48 10.85C20.0838 11.0495 19.7491 11.3527 19.5114 11.7273C19.2738 12.1018 19.1422 12.5338 19.1305 12.9772C19.0761 14.6845 20.6122 15.2561 21.7322 15.6722C23.0388 16.1583 23.4355 16.4072 23.3772 17.0294C23.3654 17.2412 23.2911 17.4447 23.1637 17.6142C23.0364 17.7838 22.8617 17.9119 22.6616 17.9822C22.2873 18.1251 21.8856 18.1817 21.4864 18.1481C21.0872 18.1144 20.7006 17.9913 20.3555 17.7878C20.2751 17.7245 20.183 17.6776 20.0844 17.6499C19.9859 17.6221 19.8828 17.6141 19.7812 17.6262C19.6795 17.6383 19.5812 17.6703 19.492 17.7204C19.4027 17.7704 19.3241 17.8376 19.2608 17.9181C19.1975 17.9985 19.1506 18.0906 19.1229 18.1892C19.0952 18.2877 19.0871 18.3907 19.0992 18.4924C19.1113 18.594 19.1433 18.6923 19.1934 18.7816C19.2435 18.8709 19.3106 18.9494 19.3911 19.0128C19.9388 19.4059 20.5851 19.6389 21.2577 19.6855V20.615C21.2577 20.8213 21.3397 21.0191 21.4855 21.1649C21.6314 21.3108 21.8292 21.3928 22.0355 21.3928C22.2418 21.3928 22.4396 21.3108 22.5855 21.1649C22.7313 21.0191 22.8133 20.8213 22.8133 20.615V19.5689C22.976 19.5276 23.1358 19.4756 23.2916 19.4133C23.7483 19.233 24.1452 18.9283 24.4374 18.5337C24.7296 18.1391 24.9052 17.6705 24.9444 17.1811C25.131 15.2678 23.4238 14.6339 22.2961 14.2139C21.0866 13.7667 20.6861 13.5334 20.7016 13.0278C20.7056 12.8576 20.7573 12.6919 20.8508 12.5496C20.9443 12.4073 21.0759 12.2941 21.2305 12.2228C21.5893 12.0672 21.981 12.0031 22.3707 12.0364C22.7603 12.0697 23.1355 12.1992 23.4627 12.4134C23.5493 12.4711 23.6466 12.5108 23.7488 12.5303C23.851 12.5497 23.956 12.5484 24.0578 12.5265C24.1595 12.5046 24.2557 12.4626 24.3409 12.4028C24.4261 12.343 24.4984 12.2668 24.5535 12.1786C24.6087 12.0904 24.6456 11.992 24.6621 11.8893C24.6785 11.7865 24.6742 11.6815 24.6494 11.5805C24.6245 11.4795 24.5797 11.3844 24.5175 11.3011C24.4552 11.2177 24.3769 11.1476 24.2872 11.095C23.8368 10.8139 23.3363 10.6224 22.8133 10.5312V9.53949C22.8133 9.33321 22.7313 9.13538 22.5855 8.98952C22.4396 8.84366 22.2418 8.76172 22.0355 8.76172C21.8292 8.76172 21.6314 8.84366 21.4855 8.98952C21.3397 9.13538 21.2577 9.33321 21.2577 9.53949Z" fill="#313131" stroke="#313131" stroke-width="0.479062"/>
<path d="M12.702 15.0774C12.702 16.9234 13.2494 18.7279 14.275 20.2627C15.3005 21.7976 16.7582 22.9938 18.4636 23.7002C20.169 24.4067 22.0457 24.5915 23.8561 24.2314C25.6666 23.8712 27.3296 22.9823 28.6349 21.677C29.9402 20.3718 30.8291 18.7087 31.1892 16.8982C31.5494 15.0878 31.3645 13.2112 30.6581 11.5057C29.9517 9.80029 28.7554 8.34263 27.2206 7.31708C25.6857 6.29153 23.8813 5.74414 22.0353 5.74414C19.56 5.74414 17.186 6.72747 15.4357 8.47779C13.6854 10.2281 12.702 12.6021 12.702 15.0774ZM29.813 15.0774C29.813 16.6157 29.3569 18.1195 28.5022 19.3985C27.6476 20.6775 26.4329 21.6744 25.0117 22.2631C23.5905 22.8518 22.0267 23.0058 20.5179 22.7057C19.0092 22.4056 17.6234 21.6648 16.5356 20.5771C15.4479 19.4894 14.7071 18.1035 14.407 16.5948C14.1069 15.086 14.2609 13.5222 14.8496 12.101C15.4383 10.6798 16.4352 9.4651 17.7142 8.61047C18.9933 7.75584 20.497 7.29969 22.0353 7.29969C24.0981 7.29969 26.0764 8.11912 27.535 9.57773C28.9936 11.0363 29.813 13.0146 29.813 15.0774Z" fill="#313131" stroke="#313131" stroke-width="0.479062"/>
</svg>
