<svg width="19" height="13" viewBox="0 0 19 13" fill="none" xmlns="http://www.w3.org/2000/svg">
<path opacity="0.8" fill-rule="evenodd" clip-rule="evenodd" d="M15.7871 0.0390439C15.7463 0.0592825 15.2607 0.486561 14.708 0.988566L13.7031 1.9013L13.1873 1.7155C11.8725 1.24196 10.7232 1.06099 9.24047 1.09399C7.59817 1.13058 6.29855 1.43067 4.84939 2.10795C3.83141 2.58369 2.94155 3.17698 2.04987 3.97434C1.27855 4.66411 0.627375 5.39449 0.185133 6.06585C-0.061711 6.4406 -0.061711 6.55588 0.185133 6.93063C0.977296 8.13324 2.39115 9.46242 3.77915 10.3094L4.20396 10.5686L3.33227 11.3679C2.85283 11.8074 2.44211 12.2004 2.41956 12.241C2.39701 12.2817 2.37854 12.3822 2.37854 12.4644C2.37854 12.8409 2.86796 13.1205 3.22423 12.9477C3.34559 12.8887 16.5227 0.860366 16.5808 0.755484C16.6997 0.540609 16.5861 0.235981 16.3278 0.0771858C16.1909 -0.00705148 15.9188 -0.0262409 15.7871 0.0390439ZM10.1492 2.20072C10.9528 2.26103 11.7629 2.41684 12.4437 2.64201L12.7724 2.75071L12.1741 3.29611L11.5758 3.8415L11.4374 3.76379C11.1516 3.60334 10.6951 3.42062 10.3903 3.34467C9.9491 3.23478 9.03468 3.23427 8.59938 3.34369C7.57205 3.60192 6.71672 4.25568 6.27118 5.12327C6.06321 5.52821 5.97345 5.86692 5.94945 6.33748C5.91236 7.06407 6.06414 7.58398 6.51739 8.28306L6.58842 8.39265L5.84659 9.06963L5.10476 9.7466L4.7153 9.52442C3.53127 8.8489 2.34241 7.826 1.52054 6.77566L1.3007 6.49465L1.53341 6.20031C3.70226 3.45717 6.92952 1.959 10.1492 2.20072ZM15.3473 3.44746L14.9116 3.84603L15.1543 4.01613C15.9716 4.58867 16.8553 5.42989 17.506 6.25467L17.701 6.50179L17.4251 6.84693C15.8844 8.7741 13.768 10.1211 11.5216 10.6042C10.3144 10.8638 8.8164 10.8802 7.71515 10.6457L7.50603 10.6012L7.01535 11.0499C6.74547 11.2967 6.53902 11.5065 6.55652 11.5162C6.63382 11.5589 7.55707 11.7533 7.97935 11.8157C8.65746 11.9159 9.90541 11.9391 10.61 11.8645C11.9155 11.7264 12.9988 11.428 14.1482 10.8901C15.1633 10.415 16.0597 9.81873 16.9309 9.039C17.7176 8.33484 18.3846 7.5895 18.809 6.94048C19.0623 6.553 19.063 6.44233 18.8151 6.06585C18.1614 5.07345 16.8764 3.78952 15.8222 3.07534C15.7987 3.05944 15.6086 3.20838 15.3473 3.44746ZM10.157 4.43827C10.3746 4.49946 10.687 4.62197 10.687 4.64614C10.687 4.65047 9.96256 5.31492 9.07711 6.12271L7.46723 7.59133L7.39323 7.45896C7.07388 6.88782 7.06516 6.15351 7.37068 5.56418C7.54954 5.21925 7.97105 4.81102 8.35027 4.61551C8.88646 4.33904 9.56676 4.2723 10.157 4.43827ZM12.384 6.15093C11.9909 6.51049 11.8369 6.67369 11.8369 6.73068C11.8369 6.88 11.7207 7.22585 11.5852 7.47971C11.397 7.8324 10.9623 8.22908 10.5758 8.40077C10.2969 8.52464 9.91842 8.6304 9.75392 8.6304C9.69016 8.6304 9.51517 8.76835 9.11532 9.13379L8.56455 9.63715L8.76343 9.68376C9.08791 9.75977 10.0433 9.7419 10.3976 9.6532C11.6403 9.34207 12.6135 8.45435 12.9585 7.31719C13.0245 7.09968 13.0375 6.96447 13.0373 6.49824C13.0372 6.10443 13.0215 5.89717 12.9841 5.79517L12.9311 5.65052L12.384 6.15093Z" fill="#313131"/>
</svg>
