<svg width="22" height="23" viewBox="0 0 22 23" fill="none" xmlns="http://www.w3.org/2000/svg">
<path d="M4.41986 9.60953C4.41986 10.5539 3.65428 11.3195 2.70993 11.3195C1.76553 11.3195 1 10.5539 1 9.60953C1 8.66518 1.76553 7.8996 2.70993 7.8996C3.65428 7.8996 4.41986 8.66518 4.41986 9.60953Z" stroke="#313131" stroke-width="1.2" stroke-miterlimit="10" stroke-linecap="round" stroke-linejoin="round"/>
<path d="M5.27482 21.408H4.41986C2.53111 21.408 1 19.8768 1 17.9881V14.7392C1 13.7988 1.76947 13.0293 2.70993 13.0293C3.65039 13.0293 4.41986 13.7988 4.41986 14.7392V15.5942C4.41986 16.5386 5.18539 17.3041 6.12978 17.3041H7.66872" stroke="#313131" stroke-width="1.2" stroke-miterlimit="10" stroke-linecap="round" stroke-linejoin="round"/>
<path d="M17.7573 9.60953C17.7573 10.5539 18.5229 11.3195 19.4673 11.3195C20.4116 11.3195 21.1772 10.5539 21.1772 9.60953C21.1772 8.66518 20.4116 7.8996 19.4673 7.8996C18.5229 7.8996 17.7573 8.66518 17.7573 9.60953Z" stroke="#313131" stroke-width="1.2" stroke-miterlimit="10" stroke-linecap="round" stroke-linejoin="round"/>
<path d="M16.9022 21.408H17.7572C19.6459 21.408 21.177 19.8768 21.177 17.9881V14.7392C21.177 13.7988 20.4076 13.0293 19.4671 13.0293C18.5266 13.0293 17.7572 13.7988 17.7572 14.7392V15.5942C17.7572 16.5386 16.9916 17.3041 16.0472 17.3041H14.5083" stroke="#313131" stroke-width="1.2" stroke-miterlimit="10" stroke-linecap="round" stroke-linejoin="round"/>
<path d="M14.5087 21.408H7.66895V11.3194H14.5087V21.408Z" stroke="#313131" stroke-width="1.2" stroke-miterlimit="10" stroke-linecap="round" stroke-linejoin="round"/>
<path d="M7.66895 8.92554V8.07057C7.66895 7.12622 8.43448 6.36064 9.37887 6.36064H12.7987C13.7431 6.36064 14.5087 7.12622 14.5087 8.07057V8.92554" stroke="#313131" stroke-width="1.2" stroke-miterlimit="10" stroke-linecap="round" stroke-linejoin="round"/>
<path d="M12.7983 2.94071C12.7983 3.88506 12.0327 4.65063 11.0883 4.65063C10.144 4.65063 9.37842 3.88506 9.37842 2.94071C9.37842 1.99636 10.144 1.23078 11.0883 1.23078C12.0327 1.23078 12.7983 1.99636 12.7983 2.94071Z" stroke="#313131" stroke-width="1.2" stroke-miterlimit="10" stroke-linecap="round" stroke-linejoin="round"/>
</svg>
