<svg width="20" height="19" viewBox="0 0 20 19" fill="none" xmlns="http://www.w3.org/2000/svg">
<path fill-rule="evenodd" clip-rule="evenodd" d="M11.1043 1.63843L12.9317 5.28918C13.1108 5.64758 13.4565 5.8961 13.8573 5.95361L17.9453 6.54204C18.9554 6.68787 19.3573 7.91197 18.6263 8.61337L15.6702 11.4539C15.3797 11.7332 15.2474 12.1347 15.3162 12.5291L16.0138 16.5392C16.1856 17.5313 15.1298 18.2881 14.227 17.8188L10.5732 15.9241C10.215 15.7382 9.78602 15.7382 9.42679 15.9241L5.773 17.8188C4.87023 18.2881 3.81439 17.5313 3.98724 16.5392L4.68385 12.5291C4.75257 12.1347 4.62033 11.7332 4.32982 11.4539L1.37368 8.61337C0.642715 7.91197 1.04464 6.68787 2.05466 6.54204L6.14265 5.95361C6.54354 5.8961 6.89028 5.64758 7.06937 5.28918L8.89574 1.63843C9.34765 0.735757 10.6523 0.735757 11.1043 1.63843Z" stroke="#313131" stroke-width="1.5" stroke-linecap="round" stroke-linejoin="round"/>
</svg>
