<svg width="43" height="43" viewBox="0 0 43 43" fill="none" xmlns="http://www.w3.org/2000/svg">
<path d="M2.32611 17.2907H7.49247C7.95223 17.2899 8.39873 17.1366 8.76192 16.8547C9.12511 16.5728 9.38444 16.1783 9.49922 15.7331C9.78224 15.9407 10.057 16.1351 10.3462 16.315C10.2654 16.5575 10.2534 16.8176 10.3114 17.0666C10.3694 17.3155 10.4952 17.5435 10.6749 17.7253L10.8887 17.5115L10.6756 17.7253L18.5109 25.5447C18.7705 25.8042 19.1224 25.9499 19.4894 25.9499C19.8564 25.9499 20.2083 25.8042 20.4679 25.5447L35.138 10.8746C35.3966 10.6152 35.5418 10.2639 35.5418 9.89755C35.5418 9.53125 35.3966 9.17988 35.138 8.92047L27.3109 1.08512C27.0515 0.826724 26.7003 0.681641 26.3342 0.681641C25.968 0.681641 25.6168 0.826724 25.3574 1.08512L21.9259 4.51737L21.5446 4.1949C21.1318 3.82389 20.6214 3.57883 20.0738 3.4887C19.5261 3.39857 18.9641 3.46714 18.4542 3.68629C15.8817 4.63348 13.1885 5.21352 10.4542 5.40934C10.3708 5.2014 10.2539 5.00854 10.1082 4.83845C9.91312 4.619 9.67374 4.44342 9.40583 4.3233C9.13792 4.20318 8.84758 4.14126 8.55397 4.14162H2.32611C1.95906 4.14162 1.60704 4.28743 1.34749 4.54697C1.08795 4.80652 0.942139 5.15854 0.942139 5.52559V15.9054C0.941958 16.0872 0.977621 16.2673 1.04709 16.4354C1.11656 16.6035 1.21847 16.7562 1.34701 16.8849C1.47554 17.0135 1.62817 17.1156 1.79617 17.1852C1.96417 17.2549 2.14425 17.2907 2.32611 17.2907ZM13.1211 15.2784C13.51 15.6677 13.7285 16.1955 13.7285 16.7458C13.7285 17.2961 13.51 17.8239 13.1211 18.2131L11.652 16.7461L13.1211 15.2784ZM19.4873 24.5676L18.0189 23.102C18.4081 22.7141 18.9351 22.4963 19.4846 22.4963C20.034 22.4963 20.5611 22.7141 20.9502 23.102L19.4873 24.5676ZM32.6911 11.3625C32.3023 10.9732 32.084 10.4456 32.084 9.89547C32.084 9.34534 32.3023 8.81771 32.6911 8.42847L34.1574 9.89409L32.6911 11.3625ZM26.3331 2.06428L27.8022 3.53406C27.4123 3.92227 26.8844 4.14021 26.3342 4.14021C25.7839 4.14021 25.2561 3.92227 24.8661 3.53406L26.3331 2.06428ZM23.8849 4.5146C24.5344 5.16247 25.4144 5.52631 26.3318 5.52631C27.2491 5.52631 28.1291 5.16247 28.7786 4.5146L31.7147 7.44723C31.0673 8.09657 30.7037 8.97611 30.7037 9.89305C30.7037 10.81 31.0673 11.6895 31.7147 12.3389L21.9293 22.1249C21.2807 21.4776 20.4017 21.114 19.4853 21.114C18.5688 21.114 17.6898 21.4776 17.0412 22.1249L14.1023 19.1916C14.7505 18.5428 15.1146 17.6632 15.1146 16.7461C15.1146 15.829 14.7505 14.9494 14.1023 14.3006L18.942 9.46298C19.0671 9.33691 19.2358 9.26372 19.4133 9.25857C19.5908 9.25342 19.7635 9.31669 19.8956 9.4353C20.0042 9.53218 20.2236 9.72386 20.4914 9.95637C19.8363 10.4227 19.3306 11.0693 19.036 11.8175C18.7413 12.5658 18.6703 13.3835 18.8315 14.1714C18.9928 14.9592 19.3794 15.6833 19.9443 16.2556C20.5092 16.8279 21.2282 17.2238 22.0139 17.3953C22.7996 17.5668 23.6182 17.5064 24.3702 17.2214C25.1222 16.9365 25.7753 16.4393 26.2501 15.7903C26.7249 15.1412 27.001 14.3683 27.0449 13.5653C27.0887 12.7623 26.8984 11.9639 26.4971 11.267C26.7659 10.8299 26.8993 10.3231 26.8805 9.81036C26.8695 9.46356 26.7882 9.1226 26.6414 8.8082C26.4946 8.49381 26.2854 8.21252 26.0266 7.98144L22.9867 5.41418L23.8849 4.5146ZM25.4225 12.1956C25.6277 12.6555 25.7034 13.1627 25.6412 13.6625C25.579 14.1622 25.3814 14.6354 25.0698 15.031C24.7581 15.4266 24.3443 15.7294 23.873 15.9068C23.4017 16.0842 22.8908 16.1294 22.3957 16.0375C21.9006 15.9455 21.44 15.72 21.0638 15.3853C20.6875 15.0506 20.4099 14.6193 20.261 14.1383C20.1121 13.6572 20.0976 13.1446 20.2189 12.6558C20.3402 12.1671 20.5929 11.7208 20.9495 11.3652C21.1382 11.1816 21.3536 11.0274 21.5882 10.9078C22.1328 11.3791 22.5937 11.7763 22.5937 11.7763C22.9705 12.1188 23.4406 12.3415 23.9443 12.4162C24.448 12.4908 24.9625 12.4141 25.4225 12.1956ZM18.9939 4.96162C19.2655 4.84491 19.565 4.80895 19.8564 4.85804C20.1479 4.90713 20.4191 5.03919 20.6374 5.23841L25.1187 9.02565C25.3504 9.24532 25.4854 9.54792 25.4943 9.86706C25.5031 10.1862 25.3849 10.4958 25.1658 10.7279C24.9423 10.9355 24.6495 11.0522 24.3446 11.0554C24.0397 11.0586 23.7445 10.948 23.5168 10.7452C23.5168 10.7452 21.2547 8.79176 20.818 8.40079C20.4222 8.04652 19.9057 7.85746 19.3747 7.87252C18.8437 7.88758 18.3387 8.10562 17.9636 8.48175L11.2209 15.2244C10.6961 14.9011 10.1922 14.545 9.71235 14.1581L10.5766 6.78846C13.4542 6.57746 16.2878 5.96248 18.9939 4.96162ZM2.32611 5.52559H8.55397C8.65141 5.52565 8.74773 5.54628 8.83664 5.58614C8.92555 5.626 9.00504 5.68419 9.06991 5.75689C9.13478 5.8296 9.18356 5.91518 9.21306 6.00805C9.24256 6.10091 9.25212 6.19896 9.24111 6.29577L8.18238 15.2916C8.16308 15.4612 8.08175 15.6178 7.954 15.7311C7.82626 15.8444 7.66114 15.9065 7.49039 15.9054L2.32611 15.9074V5.52559Z" fill="#313131" stroke="#313131" stroke-width="0.319375"/>
<path d="M41.0774 29.748H38.3095C38.0675 29.7485 37.8299 29.8127 37.6206 29.9342C37.4113 30.0556 37.2377 30.2301 37.1172 30.44H35.5416C35.0926 30.4389 34.6559 30.2933 34.296 30.0248L33.1528 29.1667C32.7195 28.8389 32.2234 28.6036 31.6954 28.4755C31.1673 28.3474 30.6185 28.3292 30.0832 28.4222L19.2882 30.2296C18.8566 30.2956 18.453 30.4843 18.1257 30.7734C17.7985 31.0625 17.5614 31.4397 17.4427 31.8599L14.2167 29.5072C13.8777 29.262 13.4771 29.1161 13.0599 29.0857C12.6427 29.0552 12.2252 29.1415 11.8542 29.3349C11.4873 29.5164 11.1783 29.7967 10.962 30.1443C10.7458 30.4918 10.6308 30.8928 10.6301 31.3022C10.6297 31.6313 10.7022 31.9565 10.8426 32.2542C10.983 32.5519 11.1876 32.8148 11.4418 33.0239L21.5731 41.1699C22.4268 41.8394 23.4804 42.203 24.5653 42.2023C25.0604 42.2051 25.5522 42.1212 26.0185 41.9546L34.8447 38.8635C35.0684 38.784 35.3042 38.744 35.5416 38.7452H37.1186C37.2391 38.9547 37.4125 39.129 37.6215 39.2504C37.8305 39.3719 38.0678 39.4363 38.3095 39.4372H41.0774C41.4445 39.4372 41.7965 39.2914 42.056 39.0318C42.3156 38.7723 42.4614 38.4203 42.4614 38.0532V31.1334C42.4616 30.9515 42.4259 30.7714 42.3565 30.6033C42.287 30.4352 42.1851 30.2825 42.0565 30.1538C41.928 30.0252 41.7754 29.9231 41.6074 29.8535C41.4394 29.7838 41.2593 29.748 41.0774 29.748ZM34.3832 37.5605L25.5534 40.6509C25.0284 40.8202 24.4698 40.8577 23.9268 40.7604C23.3838 40.663 22.873 40.4336 22.4395 40.0925C22.4291 40.0842 12.3137 31.9513 12.3137 31.952C12.219 31.8724 12.143 31.7729 12.0912 31.6606C12.0394 31.5483 12.013 31.4259 12.0141 31.3022C12.0153 31.1493 12.0595 30.9999 12.1416 30.8709C12.2237 30.7419 12.3404 30.6386 12.4784 30.5729C12.6219 30.4965 12.7838 30.4613 12.9461 30.4712C13.1084 30.4811 13.2648 30.5357 13.398 30.6289L22.306 37.119C22.5384 37.2855 22.8196 37.3699 23.1053 37.3589C23.3909 37.3479 23.6648 37.2421 23.8837 37.0581L26.8004 34.5891H29.3137C29.4972 34.5891 29.6732 34.5162 29.803 34.3865C29.9328 34.2567 30.0057 34.0807 30.0057 33.8971C30.0057 33.7136 29.9328 33.5376 29.803 33.4078C29.6732 33.2781 29.4972 33.2052 29.3137 33.2052H19.5636C19.456 33.2058 19.3493 33.1844 19.2503 33.1421C19.1512 33.0999 19.0619 33.0377 18.9879 32.9595C18.9097 32.8833 18.8485 32.7915 18.8082 32.69C18.7679 32.5885 18.7494 32.4797 18.754 32.3706C18.7737 32.1739 18.8598 31.9897 18.9981 31.8484C19.1365 31.7071 19.3189 31.6172 19.5152 31.5935L30.3316 29.7819C30.6798 29.7257 31.0357 29.7401 31.3782 29.8243C31.7207 29.9084 32.0427 30.0607 32.3252 30.2718L33.4656 31.1347C34.0654 31.5822 34.7932 31.8248 35.5416 31.8267H36.9255V37.3626H35.5416C35.1469 37.3614 34.755 37.4283 34.3832 37.5605ZM21.1891 34.5933H24.6573L23.0526 35.951L21.1891 34.5933ZM38.3095 38.0532V31.1334H41.0774V38.0532H38.3095Z" fill="#313131" stroke="#313131" stroke-width="0.319375"/>
</svg>
