<svg width="13" height="13" viewBox="0 0 13 13" fill="none" xmlns="http://www.w3.org/2000/svg">
<path d="M6.15235 0.336315C6.34619 0.148798 6.65381 0.148798 6.84765 0.336315L7.93122 1.38457C8.04206 1.4918 8.19619 1.54188 8.34889 1.52028L9.84167 1.30913C10.1087 1.27136 10.3576 1.45218 10.4042 1.71782L10.6647 3.20278C10.6913 3.35468 10.7866 3.48579 10.9228 3.55807L12.2546 4.26468C12.4928 4.39109 12.5879 4.68365 12.4694 4.92595L11.8073 6.28042C11.7396 6.41897 11.7396 6.58103 11.8073 6.71958L12.4694 8.07405C12.5879 8.31635 12.4928 8.60891 12.2546 8.73532L10.9228 9.44193C10.7866 9.51421 10.6913 9.64532 10.6647 9.79722L10.4042 11.2822C10.3576 11.5478 10.1087 11.7286 9.84167 11.6909L8.34889 11.4797C8.19619 11.4581 8.04206 11.5082 7.93122 11.6154L6.84765 12.6637C6.65381 12.8512 6.34619 12.8512 6.15235 12.6637L5.06878 11.6154C4.95793 11.5082 4.80381 11.4581 4.65111 11.4797L3.15833 11.6909C2.89129 11.7286 2.64242 11.5478 2.59582 11.2822L2.33534 9.79722C2.30869 9.64532 2.21344 9.51421 2.0772 9.44193L0.745416 8.73532C0.507179 8.60891 0.412117 8.31635 0.530558 8.07405L1.19266 6.71958C1.26039 6.58103 1.26039 6.41897 1.19266 6.28042L0.530558 4.92595C0.412117 4.68365 0.507178 4.39109 0.745416 4.26468L2.0772 3.55807C2.21344 3.48579 2.30869 3.35468 2.33534 3.20278L2.59582 1.71782C2.64242 1.45218 2.89129 1.27136 3.15833 1.30913L4.65111 1.52028C4.80381 1.54188 4.95793 1.4918 5.06878 1.38457L6.15235 0.336315Z" fill="#FF9D00"/>
<path d="M7.32257 5.74484C8.00592 5.06279 8.60837 4.48785 8.66137 4.46716C8.81097 4.40871 8.9741 4.41954 9.15057 4.49964C9.42432 4.62385 9.54683 4.98404 9.41704 5.28309C9.38682 5.35283 8.7163 6.05052 7.88481 6.87747C6.63458 8.12091 6.38168 8.35508 6.24626 8.39465C5.9402 8.48411 5.86037 8.44069 5.2193 7.83596C4.89698 7.5319 4.49563 7.14351 4.32745 6.97287C4.02351 6.66446 4.02154 6.66118 4.00497 6.4319C3.99125 6.24223 4.00343 6.17666 4.07354 6.06327C4.21142 5.84028 4.47319 5.74265 4.74067 5.8145C4.86599 5.84814 4.99554 5.94738 5.30796 6.24901C5.53065 6.46404 5.7955 6.71755 5.89649 6.8124L6.08013 6.98485L7.32257 5.74484Z" fill="white"/>
</svg>
