<svg width="26" height="24" viewBox="0 0 26 24" fill="none" xmlns="http://www.w3.org/2000/svg">
<path fill-rule="evenodd" clip-rule="evenodd" d="M14.0761 1.87613L16.441 6.60063C16.6728 7.06444 17.1201 7.38605 17.6389 7.46047L22.9293 8.22197C24.2363 8.41069 24.7565 9.99482 23.8105 10.9025L19.9849 14.5785C19.609 14.9399 19.4378 15.4596 19.5268 15.9699L20.4296 21.1595C20.652 22.4433 19.2856 23.4228 18.1173 22.8154L13.3889 20.3635C12.9253 20.1229 12.3701 20.1229 11.9053 20.3635L7.17683 22.8154C6.00853 23.4228 4.64216 22.4433 4.86584 21.1595L5.76733 15.9699C5.85627 15.4596 5.68513 14.9399 5.30918 14.5785L1.48359 10.9025C0.537632 9.99482 1.05777 8.41069 2.36486 8.22197L7.6552 7.46047C8.17399 7.38605 8.62271 7.06444 8.85448 6.60063L11.218 1.87613C11.8028 0.707958 13.4913 0.707958 14.0761 1.87613Z" stroke="#313131" stroke-width="1.94118" stroke-linecap="round" stroke-linejoin="round"/>
</svg>
